<svg width="88" height="24" viewBox="0 0 88 24" fill="none" xmlns="http://www.w3.org/2000/svg">
<path d="M18.9243 4.26139C16.8334 2.74755 14.4587 1.12473 12.4891 0C10.5202 1.12403 8.14334 2.74685 6.05459 4.26139C3.96583 5.77593 1.68152 7.52519 0 9.04462C0.464713 11.2605 1.27919 14.0109 2.07754 16.4608C2.87589 18.9108 3.84037 21.6143 4.77049 23.678C7.02677 23.9218 9.90477 24 12.4891 24C15.0734 24 17.9521 23.9218 20.2084 23.678C21.0936 21.7142 22.009 19.1707 22.7843 16.8178L22.9013 16.4608C23.1305 15.7581 23.3611 15.0301 23.584 14.2952C22.8929 13.7182 22.2095 13.1404 21.531 12.569C19.7051 11.0321 17.2708 8.82038 15.2816 7.74245C14.4196 7.29388 13.4614 7.06017 12.4891 7.06133C11.4188 7.06133 10.1978 7.34077 8.97394 8.19025L8.93889 8.2154L8.90385 8.24055C7.88268 8.98103 7.12261 10.0244 6.73235 11.2214C6.34208 12.4184 6.3416 13.7078 6.73098 14.9051C6.73589 14.9191 6.74009 14.933 6.7443 14.947L6.75832 14.9882C7.14899 16.1854 7.90955 17.2288 8.93119 17.9691C9.95282 18.7094 11.1832 19.1087 12.4463 19.1099H12.5339C13.6459 19.1091 14.7357 18.7996 15.6812 18.2163C16.6266 17.6329 17.3904 16.7986 17.8869 15.807C17.1411 15.1601 16.4921 14.6019 15.9243 14.1262C15.9201 14.1401 15.9152 14.1541 15.911 14.1681L15.9026 14.1939L15.8942 14.2198C15.662 14.9303 15.2103 15.5494 14.6038 15.9885C13.9972 16.4277 13.2668 16.6644 12.5171 16.6648H12.4631C11.7134 16.6646 10.9829 16.428 10.3763 15.9888C9.76968 15.5496 9.31806 14.9304 9.08609 14.2198L9.07768 14.1939L9.06927 14.1681C8.83809 13.4575 8.83828 12.6923 9.0698 11.9819C9.30131 11.2715 9.7523 10.6522 10.3583 10.2127L10.3807 10.1966L10.4024 10.1805C10.9692 9.77009 11.6453 9.53624 12.3454 9.50848C12.358 9.50779 12.3706 9.50779 12.3832 9.50848C13.9715 9.44491 15.2283 10.2979 18.5402 13.1411C19.1969 13.7049 19.935 14.3462 20.7726 15.0748C20.7025 15.2879 20.6359 15.4996 20.5679 15.7092C20.3668 16.3267 20.1537 16.961 19.9371 17.5912C19.4745 18.9185 18.981 20.2276 18.4995 21.3342C16.7234 21.5032 14.5162 21.5591 12.4919 21.5591C10.4676 21.5591 8.2611 21.5032 6.48496 21.3342C5.77352 19.6981 5.03614 17.6233 4.41092 15.705C3.78569 13.7866 3.15626 11.6797 2.76935 9.94091C4.10672 8.76379 5.85903 7.42599 7.49639 6.23839C9.13375 5.05079 10.9527 3.80451 12.4891 2.90124C14.0262 3.80451 15.8451 5.05289 17.4825 6.23839C19.1198 7.4239 20.8721 8.76239 22.2095 9.94091C22.6875 10.3396 23.1705 10.7452 23.6583 11.1579L24.3263 11.7202C24.58 10.782 24.8036 9.87594 24.9782 9.04462C23.2966 7.52519 21.0151 5.77593 18.9243 4.26139Z" fill="#01001A"></path>
<path d="M35.9641 21.52H35.9599C32.0445 21.52 29.421 18.3463 29.421 14.4454C29.421 10.5444 32.0445 7.37075 35.9599 7.37075H35.9641C37.4921 7.40149 40.1402 7.90028 41.3808 11.3834L43.8432 10.8246C43.3736 8.91114 41.4383 4.8733 35.9585 4.89076C30.3245 4.89076 26.7224 9.16892 26.7224 14.4454C26.7224 19.7218 30.3259 23.9999 35.9585 23.9999C41.4383 24.0174 43.3736 19.9796 43.8432 18.0661L41.3808 17.5073C40.1388 20.9904 37.4921 21.4892 35.9641 21.52Z" fill="#01001A"></path>
<path d="M45.9767 13.5428L48.4117 13.8851C48.4159 13.8677 48.4285 13.802 48.4551 13.7021C48.582 13.2327 48.9353 12.0332 50.3476 11.3667C50.9133 11.0992 51.5848 10.9643 52.3102 10.9643C52.9277 10.9558 53.5401 11.0762 54.1081 11.3178C54.297 11.3998 54.4777 11.4995 54.6478 11.6154C54.706 11.6552 54.7642 11.6965 54.8181 11.7405C54.9199 11.8198 55.016 11.9061 55.1055 11.999C55.3042 12.1984 55.4699 12.4281 55.5961 12.6794C55.7829 13.0537 55.883 13.465 55.8891 13.883C55.8891 13.8907 55.8891 13.8977 55.8891 13.9054C55.8695 14.771 54.4985 14.8834 52.7623 15.0301H52.7525C52.4651 15.0546 52.1679 15.079 51.8644 15.1091C50.8341 15.2153 49.8317 15.3641 48.9339 15.6211C48.7986 15.661 48.6661 15.7022 48.535 15.7469C47.7935 15.9991 47.1458 16.34 46.6474 16.8143C46.5656 16.8914 46.4877 16.9725 46.414 17.0574C45.8932 17.6603 45.5876 18.4504 45.5876 19.4962C45.5876 20.4204 45.8365 21.2427 46.3264 21.9336C46.3629 21.986 46.407 22.0433 46.461 22.1138C46.5562 22.2328 46.6582 22.3462 46.7666 22.4533C46.822 22.5078 46.8816 22.5637 46.9559 22.6301C47.0774 22.7359 47.2047 22.835 47.3372 22.927C47.3487 22.9361 47.3609 22.9445 47.3736 22.9521C48.336 23.6109 49.6222 24 51.132 24C52.7287 24 53.7892 23.5264 54.5665 23.0527L54.5952 23.0353C55.5134 22.4352 55.9915 21.8225 55.9915 21.8225C55.9768 22.2242 56.0616 23.3077 56.1695 23.5627H58.7307C58.6984 23.3601 58.6697 23.0842 58.6438 22.869C58.5954 22.461 58.5597 22.0307 58.5337 21.5843C58.3984 19.3313 58.4384 16.7277 58.4587 15.0595C58.4629 14.78 58.4636 14.5271 58.4587 14.3057C58.4587 14.2016 58.4552 14.1045 58.4517 14.0151C58.4342 13.5652 58.3606 12.7856 58.1713 12.2379C58.0185 11.8013 57.8812 11.3821 57.3106 10.701C56.6798 9.9458 56.2382 9.71666 56.2298 9.71108C55.0431 8.89233 53.6308 8.58146 52.2345 8.58146C51.2623 8.58146 50.2018 8.75261 49.2479 9.21019C48.383 9.63443 47.6328 10.2592 47.0603 11.0321C46.5129 11.7764 46.1424 12.6349 45.9767 13.5428ZM54.8784 19.8741C54.7653 20.0372 54.6407 20.192 54.5055 20.3373C53.8522 21.0443 52.8794 21.6024 51.4355 21.7296C50.3778 21.8225 49.4988 21.4802 48.9044 21.0107C48.8417 20.962 48.7821 20.9095 48.7257 20.8536C48.5358 20.6692 48.3854 20.4485 48.2835 20.2046C48.1816 19.9608 48.1303 19.6989 48.1327 19.4347C48.1327 19.39 48.1327 19.346 48.1369 19.3034C48.1428 19.1978 48.1576 19.0929 48.1811 18.9897C48.357 18.2276 49.0082 17.8301 49.939 17.5863C50.0595 17.5548 50.1857 17.5255 50.3161 17.4989C50.8193 17.3948 51.3864 17.3229 51.9941 17.2572L52.2289 17.2328C53.2158 17.1273 54.0121 17.0616 54.6646 16.9331C55.0024 16.8734 55.3318 16.7737 55.6459 16.6362L55.6585 16.6306C55.6585 16.6306 55.9228 18.382 54.8812 19.8741H54.8784Z" fill="#01001A"></path>
<path d="M72.3207 18.1144C72.6571 19.1718 72.5805 20.3167 72.1062 21.3202C71.7957 21.9741 71.3801 22.4624 70.7352 22.9046C69.5072 23.7485 68.0654 24.0922 66.2977 23.9791C64.8909 23.8861 64.0905 23.599 63.1141 22.9731C60.7309 21.4474 60.4744 18.4469 60.4751 18.4448L62.9038 18.1039C63.1674 19.9678 64.1942 21.0122 65.3248 21.4145C66.0589 21.6796 66.8464 21.7642 67.6203 21.6611C68.146 21.5801 69.1673 21.2371 69.6824 20.4288C69.8539 20.1587 69.9549 19.8502 69.9762 19.5312C69.9975 19.2123 69.9385 18.8931 69.8044 18.6027C69.6362 18.2534 69.3061 17.974 68.6626 17.6498C67.9421 17.2866 67.0981 17.1965 66.3131 17.0372L66.1028 16.9946C65.2225 16.8129 64.0701 16.5342 62.9942 15.9774C61.8412 15.3822 61.1326 14.3253 61.0499 13.0755C60.9601 11.7363 61.5938 10.4586 62.7426 9.658C63.7652 8.94823 64.9456 8.59474 66.3587 8.57728C67.79 8.56051 68.9906 8.85672 70.0266 9.49383C71.092 10.1442 71.7235 11.0775 72.1182 12.4181C72.1892 12.6556 72.2461 12.897 72.2885 13.1412C72.3172 13.2809 72.3347 13.4499 72.3523 13.5421L69.9229 13.8831C69.8838 13.625 69.8281 13.3697 69.756 13.1188C69.4518 12.0248 68.6703 11.1851 67.5993 10.9245C66.4568 10.6451 65.4916 10.7394 64.6505 11.2082C64.3748 11.3599 64.1442 11.5816 63.9821 11.8508C63.82 12.1199 63.7321 12.427 63.7274 12.7409C63.7141 13.3277 64.0491 13.8761 64.647 14.2463C65.2673 14.6305 65.9577 14.7493 66.7883 14.91C68.0577 15.1552 68.917 15.3291 70.1458 15.8608C71.125 16.2848 71.9485 16.9506 72.3207 18.1144Z" fill="#01001A"></path>
<path d="M74.66 13.5428L77.0951 13.8851C77.0951 13.8677 77.1112 13.802 77.1385 13.7021C77.2654 13.2327 77.6186 12.0332 79.031 11.3667C79.5974 11.0992 80.2688 10.9643 80.9936 10.9643C81.6113 10.9557 82.224 11.0761 82.7922 11.3178C82.981 11.4 83.1617 11.4996 83.3319 11.6154C83.3901 11.6552 83.4475 11.6965 83.5022 11.7405C83.6039 11.8199 83.6999 11.9063 83.7896 11.999C83.9881 12.1986 84.1537 12.4282 84.2802 12.6794C84.4668 13.0538 84.5669 13.4651 84.5732 13.883C84.5732 13.8907 84.5732 13.8977 84.5732 13.9054C84.5529 14.771 83.1826 14.8834 81.4464 15.0301H81.4366C81.1492 15.0546 80.852 15.079 80.5485 15.1091C79.5182 15.2153 78.5123 15.3641 77.6179 15.6211C77.4827 15.661 77.3495 15.7022 77.2191 15.7469C76.4775 15.9991 75.8299 16.34 75.3315 16.8143C75.2495 16.8912 75.1716 16.9724 75.0981 17.0574C74.5773 17.6603 74.2717 18.4504 74.2717 19.4962C74.2717 20.4204 74.5206 21.2427 75.0105 21.9336C75.047 21.986 75.0904 22.0433 75.1451 22.1138C75.2402 22.2328 75.3423 22.3462 75.4507 22.4533C75.5061 22.5078 75.5656 22.5637 75.6399 22.6301C75.7614 22.7357 75.8885 22.8348 76.0205 22.927C76.0325 22.936 76.0449 22.9444 76.0577 22.9521C77.0201 23.6109 78.3063 24 79.816 24C81.412 24 82.4732 23.5264 83.2506 23.0527L83.2786 23.0353C84.1975 22.4352 84.6756 21.8225 84.6756 21.8225C84.6608 22.2242 84.7456 23.3077 84.8536 23.5627H87.4183C87.386 23.3601 87.3573 23.0842 87.3314 22.869C87.283 22.461 87.2472 22.0307 87.2206 21.5843C87.086 19.3313 87.126 16.7277 87.1463 15.0595C87.1463 14.78 87.1505 14.5271 87.1463 14.3057C87.1463 14.2016 87.1463 14.1045 87.1393 14.0151C87.1218 13.5652 87.0482 12.7856 86.8589 12.2379C86.7061 11.8013 86.5688 11.3821 85.9982 10.701C85.3674 9.9458 84.9258 9.71666 84.9174 9.71108C83.7307 8.89233 82.3183 8.58146 80.9221 8.58146C79.9499 8.58146 78.8894 8.75261 77.9355 9.21019C77.0705 9.63422 76.3202 10.259 75.7479 11.0321C75.199 11.776 74.827 12.6346 74.66 13.5428ZM83.5618 19.8741C83.4487 20.0372 83.3241 20.192 83.1889 20.3373C82.5349 21.0443 81.5628 21.6024 80.1188 21.7296C79.0612 21.8225 78.1822 21.4802 77.5878 21.0107C77.5251 20.962 77.4654 20.9095 77.4091 20.8536C77.3221 20.77 77.2435 20.6783 77.1743 20.5797C76.9343 20.2464 76.8082 19.845 76.8147 19.4347C76.8147 19.39 76.8147 19.346 76.8189 19.3034C76.8244 19.1978 76.8392 19.0928 76.863 18.9897C77.039 18.2276 77.6901 17.8301 78.621 17.5863C78.7415 17.5548 78.8677 17.5255 78.9981 17.4989C79.5006 17.3948 80.0684 17.3229 80.6754 17.2572L80.9109 17.2328C81.8978 17.1273 82.694 17.0616 83.3466 16.9331C83.6844 16.8733 84.0138 16.7736 84.3279 16.6362L84.3398 16.6306C84.3398 16.6306 84.6055 18.382 83.5646 19.8741H83.5618Z" fill="#01001A"></path>
</svg>