<svg xmlns="http://www.w3.org/2000/svg" fill="none" viewBox="0 0 605 175" aria-hidden="true" role="img" focusable="false" aria-label="Coin Wallet" class="custom-logo"><path fill="#68C481" d="M105.204 174.681H40.176c-14.502 0-21.753 0-27.232-2.957a24.65 24.65 0 0 1-9.988-9.987C0 156.258 0 149.007 0 134.504V89.866A41.29 41.29 0 0 1 13.932 58.94a11.28 11.28 0 0 0 11.265 10.717h69.656c14.502 0 21.753 0 27.232 2.956a24.65 24.65 0 0 1 9.988 9.988c2.168 4.018 2.746 8.989 2.9 17.073-.93-.01-1.974-.01-3.159-.01h-25.72c-12.429 0-22.505 10.075-22.505 22.504s10.076 22.505 22.505 22.505h25.72c1.209 0 2.271 0 3.215-.011v.193c0 4.809 0 7.214-.335 9.223a24.65 24.65 0 0 1-20.266 20.267c-2.01.335-4.414.335-9.224.335Z"></path><path fill="#68C481" fill-rule="evenodd" d="M107.166 106.094c-8.878 0-16.075 7.197-16.075 16.075s7.197 16.075 16.075 16.075h24.112c2.49 0 3.735 0 4.77-.206a10.72 10.72 0 0 0 8.42-8.42c.206-1.035.206-2.28.206-4.77v-5.358c0-2.49 0-3.735-.206-4.77a10.72 10.72 0 0 0-8.42-8.42c-1.035-.206-2.28-.206-4.77-.206zm0 21.434a5.358 5.358 0 1 0 0-10.717 5.358 5.358 0 0 0 0 10.717M37.813 49.297c-12.8.005-19.428.125-24.527 2.774a24.65 24.65 0 0 0-10.51 10.511C0 67.924 0 74.942 0 88.98v25.655c0 14.037 0 21.056 2.775 26.398a24.64 24.64 0 0 0 8.095 9.075c-.153-2.409-.153-5.387-.153-9.228V84.168c0-8.544 0-12.816 1.689-16.068a15 15 0 0 1 6.398-6.398c3.252-1.69 7.524-1.69 16.068-1.69h2.94V49.298Zm55.896 10.716h17.165c6.843 0 10.945 0 13.978.867a24.65 24.65 0 0 0-9.539-8.809c-4.696-2.44-10.688-2.734-21.604-2.77z" clip-rule="evenodd"></path><mask id="logo_svg__a" width="84" height="65" x="24" y="0" maskUnits="userSpaceOnUse" style="mask-type:alpha"><path fill="#C4C4C4" d="M24.648 0h82.518v64.299H24.648z"></path></mask><g mask="url(#logo_svg__a)"><path fill="#FFC700" fill-rule="evenodd" d="M65.64 88.412c21.573 0 39.061-17.489 39.061-39.062 0-21.574-17.488-39.062-39.062-39.062S26.577 27.776 26.577 49.35s17.489 39.062 39.062 39.062Zm4.607-67.236h-9.676v7.983H51.04v44.026h9.53v9.676h9.677v-9.69c7.528-.3 13.498-5.319 13.498-12.88 0-4.465-2.138-7.861-5.409-9.937 2.39-2.075 3.837-4.968 3.837-8.616 0-6.946-5.187-11.691-11.926-12.467zm1.863 21.316c0-2.264-1.51-3.899-3.837-3.899h-7.17v7.799h7.17c2.264 0 3.837-1.635 3.837-3.9M61.103 63.751h8.428c2.516 0 4.151-1.761 4.151-4.214s-1.635-4.214-4.151-4.214h-8.428z" clip-rule="evenodd"></path></g><path fill="#222" d="M245.732 137.723q-4.28 5.204-10.095 7.969-5.814 2.684-13.002 2.684-6.46 0-12.033-2.358-5.492-2.359-9.529-6.425-4.038-4.066-6.38-9.596-2.343-5.612-2.342-12.035 0-6.424 2.342-11.955 2.342-5.611 6.38-9.677 4.037-4.065 9.529-6.424 5.573-2.36 12.033-2.359 6.945 0 12.195 2.44 5.33 2.44 9.449 7.075l-7.672 7.481q-2.584-3.009-5.977-4.798-3.31-1.788-7.914-1.789-4.038 0-7.591 1.464a18.3 18.3 0 0 0-6.219 3.985q-2.584 2.602-4.119 6.343-1.534 3.66-1.534 8.214t1.534 8.294q1.535 3.66 4.119 6.262 2.666 2.602 6.219 4.066 3.553 1.383 7.591 1.383 4.846 0 8.56-1.952 3.796-2.033 6.704-5.693zm24.619-31.797q4.604 0 8.399 1.626 3.877 1.545 6.623 4.392 2.826 2.765 4.361 6.668 1.615 3.903 1.615 8.539c0 4.636-.539 5.936-1.615 8.539q-1.535 3.903-4.361 6.749-2.746 2.766-6.623 4.392-3.795 1.545-8.399 1.545t-8.479-1.545q-3.796-1.626-6.623-4.392-2.745-2.846-4.361-6.749-1.534-3.904-1.534-8.539c0-4.635.511-5.937 1.534-8.539q1.616-3.903 4.361-6.668a19.7 19.7 0 0 1 6.623-4.392q3.876-1.626 8.479-1.626m0 32.61q2.019 0 3.877-.732a10.4 10.4 0 0 0 3.392-2.277q1.454-1.464 2.261-3.578.888-2.115.888-4.798 0-2.684-.888-4.798-.807-2.114-2.261-3.578a9.4 9.4 0 0 0-3.392-2.196 9.6 9.6 0 0 0-3.877-.813 9.8 9.8 0 0 0-3.957.813 9.6 9.6 0 0 0-3.311 2.196q-1.454 1.464-2.342 3.578-.807 2.114-.808 4.798 0 2.683.808 4.798.888 2.114 2.342 3.578a10.7 10.7 0 0 0 3.311 2.277q1.858.732 3.957.732m32.902-37.083a7.5 7.5 0 0 1-2.665-.488 8.6 8.6 0 0 1-2.18-1.464 8.6 8.6 0 0 1-1.454-2.195q-.485-1.22-.485-2.684t.485-2.683a7.4 7.4 0 0 1 1.454-2.115 6.5 6.5 0 0 1 2.18-1.464 6.5 6.5 0 0 1 2.665-.569q2.827 0 4.846 2.033 2.019 1.951 2.019 4.798t-2.019 4.88q-2.019 1.951-4.846 1.951m-5.249 45.622v-39.848h10.579v39.848zm30.187-34.643h.646q1.857-3.01 5.007-4.717 3.15-1.79 7.187-1.789 3.716 0 6.542 1.22 2.827 1.22 4.603 3.497 1.858 2.194 2.746 5.367.969 3.09.969 6.912v24.153h-10.579v-22.852q0-4.31-1.939-6.343-1.857-2.114-5.491-2.114-2.18 0-3.877.976-1.615.894-2.826 2.521-1.13 1.545-1.777 3.74-.565 2.115-.565 4.555v19.517h-10.58v-39.848h9.934zm47.721-23.584h11.548l8.965 33.993 1.292 6.262h.646l1.696-6.262 8.318-26.186h10.176l8.399 26.186 1.615 6.18h.646l1.211-6.18 8.399-33.993h11.549l-15.344 58.227h-10.499l-9.045-28.056-1.696-6.425h-.646l-1.696 6.425-9.045 28.056h-10.499zm101.439 53.998h-.647q-1.857 2.277-4.522 3.903-2.584 1.627-6.703 1.627-3.069 0-5.815-1.057-2.664-.976-4.684-2.765a12.5 12.5 0 0 1-3.149-4.31q-1.131-2.521-1.131-5.53 0-3.09 1.211-5.53a12.55 12.55 0 0 1 3.392-4.31q2.181-1.789 5.088-2.684 2.988-.975 6.461-.976 3.876 0 6.38.651 2.503.569 4.119 1.22v-1.22q0-3.171-2.504-5.205-2.504-2.114-6.218-2.114-5.492 0-9.288 4.635l-7.672-5.286q6.3-7.97 17.202-7.969 9.207 0 14.052 4.391 4.845 4.311 4.845 12.849v23.909h-10.417zm0-11.954a19.5 19.5 0 0 0-3.877-1.383q-1.938-.569-4.28-.569-3.796 0-5.896 1.708-2.019 1.626-2.019 4.066t1.939 3.903q2.019 1.464 4.603 1.464 2.1 0 3.876-.732 1.778-.813 2.988-2.033a8.7 8.7 0 0 0 1.939-2.927 8.9 8.9 0 0 0 .727-3.497m18.829 16.183V88.848h10.58v58.227zm19.638 0V88.848h10.579v58.227zm56.716-9.596q-2.747 4.88-7.43 7.888-4.603 3.009-11.307 3.009-4.522 0-8.399-1.545-3.795-1.626-6.622-4.473t-4.442-6.668q-1.534-3.904-1.534-8.539 0-4.31 1.534-8.132 1.535-3.904 4.281-6.75a20.5 20.5 0 0 1 6.46-4.635q3.796-1.708 8.319-1.708 4.764 0 8.479 1.626 3.716 1.545 6.219 4.392 2.504 2.765 3.795 6.587 1.293 3.822 1.293 8.295v.975a5.5 5.5 0 0 0-.081.895 4.6 4.6 0 0 0-.081.895h-29.8q.323 2.44 1.292 4.228a12 12 0 0 0 2.504 2.928 11.3 11.3 0 0 0 3.311 1.708 13.7 13.7 0 0 0 3.634.488q3.635 0 5.976-1.627 2.423-1.707 3.796-4.229zm-9.611-15.451q-.08-1.057-.727-2.359-.565-1.3-1.776-2.439-1.13-1.139-2.908-1.871-1.695-.732-4.118-.732-3.393 0-5.977 1.952-2.583 1.951-3.634 5.449zm20.191-5.693h-6.945v-9.108h6.945V95.029h10.58v12.198h9.691v9.108h-9.691v15.451q0 1.382.242 2.603a4.4 4.4 0 0 0 1.131 1.951q1.13 1.302 3.23 1.301 1.373 0 2.18-.244a8.2 8.2 0 0 0 1.535-.813l2.988 9.352a16 16 0 0 1-4.038 1.301q-2.1.488-4.684.488-2.988 0-5.411-.894-2.342-.976-3.957-2.602-3.796-3.66-3.796-10.41z"></path></svg>