<svg width="500" height="72" viewBox="0 0 500 72" fill="none" xmlns="http://www.w3.org/2000/svg">
  <g>
    <path d="M174.267 70.9546H136.397C131.539 70.9546 127.588 67.0101 127.588 62.1604V6.85828C127.588 3.14504 130.606 0.132162 134.325 0.132162C138.045 0.132162 141.063 3.14504 141.063 6.85828V57.509H174.273C177.993 57.509 181.011 60.5218 181.011 64.2351C181.004 67.9417 177.986 70.9546 174.267 70.9546Z" fill="#E01E26"/>
    <path d="M99.996 71.3642H80.9948C79.2079 71.3642 77.4937 70.6572 76.2296 69.3953L65.7793 58.9559C64.5152 57.6939 63.8071 55.9827 63.8071 54.1987V17.1589C63.8071 15.3749 64.5152 13.6637 65.7793 12.4017L76.2296 1.96894C77.4937 0.706966 79.2079 0 80.9948 0H99.996C101.783 0 103.497 0.706966 104.761 1.96894L115.211 12.4017C116.476 13.6637 117.184 15.3749 117.184 17.1589V54.1987C117.184 55.9827 116.476 57.6939 115.211 58.9559L104.761 69.3953C103.49 70.6506 101.783 71.3642 99.996 71.3642ZM83.7811 57.912H97.203L103.709 51.4171V19.9471L97.203 13.4522H83.7811L77.2753 19.9471V51.4171L83.7811 57.912Z" fill="#E01E26"/>
    <path d="M227.597 71.3642H198.146C194.426 71.3642 191.408 68.3513 191.408 64.6381V6.72611C191.408 3.01287 194.426 0 198.146 0H227.597C229.384 0 231.098 0.706966 232.362 1.96894L242.812 12.4017C244.077 13.6637 244.785 15.3749 244.785 17.1589V54.1987C244.785 55.9827 244.077 57.6939 242.812 58.9559L232.362 69.3953C231.098 70.6506 229.384 71.3642 227.597 71.3642ZM204.883 57.912H224.811L231.316 51.4171V19.9471L224.811 13.4522H204.883V57.912Z" fill="#E01E26"/>
    <path d="M482.812 71.3642H453.361C449.641 71.3642 446.623 68.3513 446.623 64.6381V6.72611C446.623 3.01287 449.641 0 453.361 0H482.812C484.599 0 486.313 0.706966 487.577 1.96894L498.028 12.4017C499.292 13.6637 500 15.3749 500 17.1589V54.1987C500 55.9827 499.292 57.6939 498.028 58.9559L487.577 69.3953C486.313 70.6506 484.599 71.3642 482.812 71.3642ZM460.092 57.912H480.019L486.525 51.4171V19.9471L480.019 13.4522H460.092V57.912Z" fill="#E01E26"/>
    <path d="M36.1889 71.3642H17.1877C15.4008 71.3642 13.6867 70.6572 12.4226 69.3953L1.97226 58.9559C0.70816 57.6939 0 55.9827 0 54.1987V17.1589C0 15.3749 0.70816 13.6637 1.97226 12.4017L12.4226 1.96894C13.6867 0.706966 15.4008 0 17.1877 0H36.1889C37.9759 0 39.69 0.706966 40.9541 1.96894L51.4044 12.4017C54.0319 15.0247 54.0319 19.2864 51.4044 21.9094C48.7769 24.5325 44.5081 24.5325 41.8807 21.9094L33.4026 13.4456H19.9807L13.4749 19.9405V51.4105L19.9807 57.9054H33.4026L41.8807 49.4416C44.5081 46.8185 48.7769 46.8185 51.4044 49.4416C54.0319 52.0646 54.0319 56.3263 51.4044 58.9493L40.9541 69.3886C39.69 70.6506 37.9759 71.3642 36.1889 71.3642Z" fill="#E01E26"/>
    <path d="M291.404 71.3642H272.403C270.616 71.3642 268.902 70.6572 267.638 69.3953L257.187 58.9559C255.923 57.6939 255.215 55.9827 255.215 54.1987V17.1589C255.215 15.3749 255.923 13.6637 257.187 12.4017L267.638 1.96894C268.902 0.706966 270.616 0 272.403 0H291.404C293.191 0 294.905 0.706966 296.169 1.96894L306.62 12.4017C309.247 15.0247 309.247 19.2864 306.62 21.9094C303.992 24.5325 299.723 24.5325 297.096 21.9094L288.618 13.4456H275.196L268.69 19.9405V51.4105L275.196 57.9054H288.618L297.096 49.4416C299.723 46.8185 303.992 46.8185 306.62 49.4416C309.247 52.0646 309.247 56.3263 306.62 58.9493L296.169 69.3886C294.905 70.6506 293.191 71.3642 291.404 71.3642Z" fill="#E01E26"/>
    <path d="M365.662 71.3642C361.942 71.3642 358.924 68.3513 358.924 64.6381V19.9471L352.418 13.4522H338.996L332.491 19.9471V64.6381C332.491 68.3513 329.473 71.3642 325.753 71.3642C322.034 71.3642 319.016 68.3513 319.016 64.6381V17.1655C319.016 15.3815 319.724 13.6702 320.988 12.4083L331.438 1.97553C332.702 0.713556 334.417 0.00658962 336.203 0.00658962H355.205C356.992 0.00658962 358.706 0.713556 359.97 1.97553L370.42 12.4083C371.684 13.6702 372.392 15.3815 372.392 17.1655V64.6381C372.392 68.3513 369.381 71.3642 365.662 71.3642Z" fill="#E01E26"/>
    <path d="M364.801 50.274H325.753C322.034 50.274 319.016 47.2612 319.016 43.5479C319.016 39.8347 322.034 36.8218 325.753 36.8218H364.801C368.521 36.8218 371.539 39.8347 371.539 43.5479C371.539 47.2612 368.521 50.274 364.801 50.274Z" fill="#E01E26"/>
    <path d="M389.554 71.3642C385.834 71.3642 382.816 68.3513 382.816 64.6381V6.72611C382.816 3.01287 385.834 0 389.554 0H416.814C420.031 0 423.049 1.24876 425.319 3.51503L432.672 10.8622C434.942 13.1285 436.199 16.148 436.199 19.3525V31.3973C436.199 34.6084 434.949 37.6213 432.672 39.8876L425.319 47.2282C423.042 49.4944 420.024 50.7432 416.808 50.7432H396.284V64.6315C396.291 68.3513 393.273 71.3642 389.554 71.3642ZM396.291 37.3042H416.219L422.725 30.8093V19.9537L416.219 13.4588H396.291V37.3042Z" fill="#E01E26"/>
    <path d="M429.462 71.2651C427.596 71.2651 425.743 70.4987 424.412 68.9922L406.96 49.2764C404.498 46.4948 404.756 42.2463 407.549 39.7885C410.335 37.3306 414.591 37.5949 417.053 40.3765L434.505 60.0924C436.967 62.874 436.709 67.1224 433.916 69.5803C432.639 70.7101 431.05 71.2651 429.462 71.2651Z" fill="#E01E26"/>
    <path d="M494.03 65.563L495.288 66.8184L494.891 67.2148L494.176 66.5012H493.852L493.302 67.0496L494.963 68.708H495.288L495.883 68.1134L496.261 68.49L494.308 70.4391L493.931 70.0625L494.527 69.4678V69.1441L492.865 67.4857L492.316 68.0341V68.3578L493.031 69.0714L492.634 69.4678L491.376 68.2125L494.03 65.563Z" fill="#E01E26"/>
    <path d="M497.617 65.8736L495.672 64.757L495.552 64.8759L497.181 66.5012H497.505L497.756 66.2502L498.134 66.6268L496.982 67.7764L496.605 67.3998L496.79 67.2148V66.8911L495.288 65.3912H494.963L494.778 65.5762L494.401 65.1996L495.533 64.0698L497.366 65.16L496.274 63.3298L497.399 62.2066L497.776 62.5832L497.591 62.7682V63.0919L499.093 64.5918H499.418L499.603 64.4068L499.98 64.7834L498.829 65.933L498.451 65.5564L498.703 65.3053V64.9816L497.075 63.3562L496.962 63.4685L498.074 65.4177L497.617 65.8736Z" fill="#E01E26"/>
  </g>
</svg>
