<?xml version="1.0" encoding="utf-8"?>
<!-- Generator: Adobe Illustrator 25.4.1, SVG Export Plug-In . SVG Version: 6.00 Build 0)  -->
<svg version="1.1" id="Layer_1" xmlns="http://www.w3.org/2000/svg" xmlns:xlink="http://www.w3.org/1999/xlink" x="0px" y="0px"
	 viewBox="0 0 1248 288.5" style="enable-background:new 0 0 1248 288.5;" xml:space="preserve">
<style type="text/css">
	.st0{fill:#0F1725;}
	.st1{fill:#2B9CDE;}
	.st2{fill:#3D5FD6;}
	.st3{fill:#F4F9FA;}
	.st4{fill:url(#SVGID_1_);}
	.st5{fill:url(#SVGID_00000013194660456668374460000002857076698086427530_);}
	.st6{fill:#575D67;}
	.st7{fill:#888F98;}
	.st8{fill:#D8DBE0;}
	.st9{fill:#EEEFF1;}
	.st10{fill:#FFFFFF;}
</style>
<g id="Wordmark_black_R_00000132072375553133862800000005790394377871070108_">
	<g>
		<g>
			<path d="M370.5,184.9c-5.9,3.1-12.1,5.1-21.1,5.1c-23.9,0-41.1-15.1-41.1-37.4c0-22.1,16.8-36.8,41.1-36.8
				c10.1,0,16.9,2,21.1,3.9v18.1c-7.2-3.4-12.9-4.3-18.2-4.3c-14,0-22.6,8.2-22.6,19.1c0,10.8,8.6,19.6,22.5,19.6
				c5.5,0,10.9-1,18.3-5V184.9z"/>
			<path d="M482.2,188.7h-24.1l-6.9-14.8c-1.6-3.5-3-5.6-6.3-5.6h-13.4v20.3h-19.5v-71.7h35.7c17.7,0,29.1,9.8,29.1,24.5
				c0,9.1-4.7,16-10.9,19.7c2.1,2.1,4.1,5.1,5.9,8.4L482.2,188.7z M447.1,153.3c5,0,9.8-3.9,9.8-9.7c0-6.1-4.4-10-11.7-10h-13.7
				v19.7H447.1z"/>
			<path d="M584.1,117.1l-28.7,46.6v25.1h-19.5v-25.4l-28.5-46.2h22.3l16.4,30.6l17-30.6H584.1z"/>
			<path d="M682.5,143.8c0,16.2-10.7,27-28.4,27h-14.9v17.9h-19.5v-71.7h34.4C671.8,117.1,682.5,127.8,682.5,143.8z M664.1,143.9
				c0-6.6-4.8-11-12.4-11h-12.6v22h12.6C659.2,155,664.1,150.5,664.1,143.9z"/>
			<path d="M785.1,133.5h-24.2v55.2h-19.5v-55.2h-24.2v-16.5h67.9V133.5z"/>
			<path d="M816.5,152.3c0-21.5,16.2-36.5,38.9-36.5c22.6,0,38.8,15,38.8,36.5c0,22.3-16.2,37.7-38.8,37.7
				C832.7,190,816.5,174.6,816.5,152.3z M874.6,152.5c0-11.2-7.7-19.4-19.2-19.4c-11.4,0-19.2,8.2-19.2,19.4
				c0,11.9,7.8,20.3,19.2,20.3C866.9,172.8,874.6,164.4,874.6,152.5z"/>
			<path d="M994.6,133.5h-24.2v55.2h-19.5v-55.2h-24.2v-16.5h67.9V133.5z"/>
			<path d="M1073.5,176.7h-32.5l-4.5,12h-20.1l29.2-71.7h24.6l29.2,71.7H1078L1073.5,176.7z M1068,162.2l-10.8-28.7l-10.8,28.7H1068
				z"/>
			<path d="M1197.6,152.1V185c-9.2,3.3-18.8,5-27.2,5c-25.5,0-41.8-15.1-41.8-37.4c0-22,16.1-36.8,42.3-36.8
				c7.6,0,14.9,1.3,21.2,3.2l-0.2,17.2c-6-2.1-11.7-3-16.7-3c-17,0-25.9,8.4-25.9,20.5c0,10.7,8.2,19.6,21.8,19.4
				c2.9-0.1,5.7-0.4,8.6-1.3v-19.8H1197.6z"/>
		</g>
		<path d="M120.2,196.7h-11v0c0-4.3-2.6-8.2-6.6-9.7C77.3,176.9-9.2,132.6,59.8,16.4l11.7,33.4c-20.5,23.6-17.1,48.8-7.4,63.9
			c7.5,11.7,20.1,16.3,20.1,16.3l0.9-0.5c10.8-5.7,22.8-8.7,35-8.7h0h0c12.2,0,24.2,3,35,8.7l0.9,0.5c0,0,12.6-4.6,20.1-16.3
			c9.7-15.1,13.1-40.3-7.4-63.9l11.7-33.4c69.1,116.2-17.4,160.5-42.8,170.6c-4,1.6-6.6,5.4-6.6,9.7v0H120.2z"/>
		<g>
			<path d="M222.4,140.2h-12.3c-11.5,23.8-30.9,39.4-47.1,48.9c-2.9,1.7-4.5,4.9-4.6,8.3c0,1.7-0.5,3.3-1.4,4.8l-7.4,11.8
				c-0.6,1-1,2-1.3,3.1l-11.1,54.9h1.8l27.2-37.6l1.5-17.6c0.3-3.2,3-5.5,6.2-5.3l17.2,1.3c1,0.1,1.9-0.3,2.5-1.1l6.6-8.4
				c0.9-1.1,0.8-2.7-0.2-3.8l-7.6-7.8L222.4,140.2z"/>
			<path d="M103.2,272.1l-11.1-54.9c-0.2-1.1-0.6-2.2-1.3-3.1l-7.5-12c-0.9-1.5-1.3-3.3-1.3-5c-0.1-3.3-1.8-6.2-4.6-7.9
				c-16.2-9.6-35.6-25.1-47-48.9H18l30.2,51.5l-7.6,7.8c-1,1-1.1,2.6-0.2,3.8l6.6,8.4c0.6,0.8,1.5,1.2,2.5,1.1l17.2-1.3
				c3.2-0.2,6,2.1,6.2,5.3l1.5,17.6l27.2,37.6H103.2z"/>
		</g>
	</g>
	<g>
		<path d="M1216.5,89.5c3.7,0,6.9,1.3,9.5,3.9c2.6,2.6,4,5.7,4,9.4s-1.3,6.8-4,9.4c-2.6,2.6-5.8,3.9-9.5,3.9c-3.7,0-6.9-1.3-9.5-3.9
			c-2.6-2.6-3.9-5.7-3.9-9.4s1.3-6.8,3.9-9.4C1209.6,90.8,1212.8,89.5,1216.5,89.5z M1209.1,110.2c2.1,2,4.5,3,7.4,3
			c2.9,0,5.4-1,7.4-3c2.1-2,3.1-4.5,3.1-7.4s-1-5.4-3.1-7.4c-2.1-2-4.5-3-7.4-3c-2.9,0-5.4,1-7.4,3c-2.1,2-3.1,4.5-3.1,7.4
			S1207,108.2,1209.1,110.2z M1221.4,100.4c0,1.6-0.7,2.8-2.1,3.5l2.8,5.4h-3.4l-2.4-4.6h-1.5v4.6h-3.1V96.3h5.5
			c1.3,0,2.3,0.4,3,1.1C1221,98.2,1221.4,99.2,1221.4,100.4z M1214.9,99v3h1.8c0.5,0,0.9-0.1,1.1-0.4c0.3-0.3,0.4-0.6,0.4-1.1
			c0-1-0.5-1.4-1.5-1.4H1214.9z"/>
	</g>
</g>
</svg>
