<svg width="204" height="33" viewBox="0 0 204 33" fill="none" xmlns="http://www.w3.org/2000/svg">
<g clip-path="url(#clip0_1098_1135)">
<path d="M58.0206 19.5207L55.9057 22.2364H50.5626C49.6407 22.2364 48.7874 22.0996 48.0026 21.8261C47.2179 21.5519 46.5422 21.1762 45.975 20.6966C45.4084 20.2182 44.9627 19.6494 44.6392 18.9921C44.3163 18.3342 44.1543 17.6206 44.1543 16.852C44.1543 16.0839 44.3163 15.3814 44.6392 14.744C44.9627 14.1078 45.4084 13.56 45.975 13.102C46.5422 12.6447 47.2179 12.2919 48.0026 12.0443C48.7874 11.7974 49.6407 11.673 50.5626 11.673H58.0206L55.9057 14.4209H50.5626C50.1176 14.4209 49.7043 14.4834 49.3228 14.6097C48.9414 14.7365 48.6122 14.9129 48.3367 15.1388C48.0606 15.3654 47.8437 15.6364 47.6848 15.9521C47.5258 16.2677 47.446 16.6155 47.446 16.9943C47.446 17.3731 47.5227 17.7184 47.6767 18.0285C47.83 18.3392 48.0475 18.6053 48.3286 18.8256C48.6091 19.0466 48.9414 19.218 49.3228 19.3387C49.7043 19.46 50.1176 19.5207 50.5626 19.5207H58.0206Z" fill="#CFAB66"/>
<path d="M58.0206 19.5207L55.9057 22.2364H50.5626C49.6407 22.2364 48.7874 22.0996 48.0026 21.8261C47.2179 21.5519 46.5422 21.1762 45.975 20.6966C45.4084 20.2182 44.9627 19.6494 44.6392 18.9921C44.3163 18.3342 44.1543 17.6206 44.1543 16.852C44.1543 16.0839 44.3163 15.3814 44.6392 14.744C44.9627 14.1078 45.4084 13.56 45.975 13.102C46.5422 12.6447 47.2179 12.2919 48.0026 12.0443C48.7874 11.7974 49.6407 11.673 50.5626 11.673H58.0206L55.9057 14.4209H50.5626C50.1176 14.4209 49.7043 14.4834 49.3228 14.6097C48.9414 14.7365 48.6122 14.9129 48.3367 15.1388C48.0606 15.3654 47.8437 15.6364 47.6848 15.9521C47.5258 16.2677 47.446 16.6155 47.446 16.9943C47.446 17.3731 47.5227 17.7184 47.6767 18.0285C47.83 18.3392 48.0475 18.6053 48.3286 18.8256C48.6091 19.0466 48.9414 19.218 49.3228 19.3387C49.7043 19.46 50.1176 19.5207 50.5626 19.5207H58.0206Z" fill="#141414"/>
<path d="M74.3998 11.6732L68.0862 18.7472V22.236H64.7789V18.7311L58.2908 11.6732H62.5206L65.065 14.6099C65.1497 14.7046 65.2613 14.829 65.3991 14.9812C65.5368 15.1341 65.6802 15.295 65.8285 15.4627C65.9769 15.6317 66.1146 15.7889 66.2418 15.9368C66.369 16.0841 66.4593 16.1949 66.5123 16.2679C66.6183 16.1212 66.7722 15.9207 66.9736 15.6682C67.1743 15.4157 67.4666 15.058 67.8481 14.5944L70.2647 11.6732H74.3998Z" fill="#CFAB66"/>
<path d="M74.3998 11.6732L68.0862 18.7472V22.236H64.7789V18.7311L58.2908 11.6732H62.5206L65.065 14.6099C65.1497 14.7046 65.2613 14.829 65.3991 14.9812C65.5368 15.1341 65.6802 15.295 65.8285 15.4627C65.9769 15.6317 66.1146 15.7889 66.2418 15.9368C66.369 16.0841 66.4593 16.1949 66.5123 16.2679C66.6183 16.1212 66.7722 15.9207 66.9736 15.6682C67.1743 15.4157 67.4666 15.058 67.8481 14.5944L70.2647 11.6732H74.3998Z" fill="#141414"/>
<path d="M88.1232 15.6362C88.1232 16.226 88.0066 16.7601 87.7734 17.2391C87.5397 17.7182 87.1988 18.1254 86.7481 18.4627C86.2968 18.7994 85.7483 19.0624 85.1019 19.2524C84.4549 19.4412 83.7188 19.5365 82.8917 19.5365H77.3261V22.2361H74.0505V16.8362H83.2095C83.7188 16.8362 84.1133 16.7261 84.3944 16.5045C84.6756 16.2836 84.8158 15.989 84.8158 15.6207C84.8158 15.2525 84.6756 14.9603 84.3944 14.7443C84.1133 14.529 83.7188 14.4207 83.2095 14.4207H74.0505L76.229 11.6734H82.9079C83.7344 11.6734 84.4711 11.7705 85.1181 11.9655C85.7645 12.1604 86.3105 12.4309 86.7562 12.7787C87.2013 13.1259 87.5397 13.5418 87.7734 14.0258C88.0066 14.5104 88.1232 15.047 88.1232 15.6362Z" fill="#CFAB66"/>
<path d="M88.1232 15.6362C88.1232 16.226 88.0066 16.7601 87.7734 17.2391C87.5397 17.7182 87.1988 18.1254 86.7481 18.4627C86.2968 18.7994 85.7483 19.0624 85.1019 19.2524C84.4549 19.4412 83.7188 19.5365 82.8917 19.5365H77.3261V22.2361H74.0505V16.8362H83.2095C83.7188 16.8362 84.1133 16.7261 84.3944 16.5045C84.6756 16.2836 84.8158 15.989 84.8158 15.6207C84.8158 15.2525 84.6756 14.9603 84.3944 14.7443C84.1133 14.529 83.7188 14.4207 83.2095 14.4207H74.0505L76.229 11.6734H82.9079C83.7344 11.6734 84.4711 11.7705 85.1181 11.9655C85.7645 12.1604 86.3105 12.4309 86.7562 12.7787C87.2013 13.1259 87.5397 13.5418 87.7734 14.0258C88.0066 14.5104 88.1232 15.047 88.1232 15.6362Z" fill="#141414"/>
<path d="M102.705 22.2362H99.4292V18.1626H93.1006V22.2362H89.7927V11.6734H93.1006V15.4153H99.4292V11.6734H102.705V22.2362Z" fill="#CFAB66"/>
<path d="M102.705 22.2362H99.4292V18.1626H93.1006V22.2362H89.7927V11.6734H93.1006V15.4153H99.4292V11.6734H102.705V22.2362Z" fill="#141414"/>
<path d="M117.08 19.5207L114.965 22.2364H104.724V11.673H117.048L114.917 14.4209H108.032V15.6841H116.46L114.568 18.0842H108.032V19.5207H117.08Z" fill="#CFAB66"/>
<path d="M117.08 19.5207L114.965 22.2364H104.724V11.673H117.048L114.917 14.4209H108.032V15.6841H116.46L114.568 18.0842H108.032V19.5207H117.08Z" fill="#141414"/>
<path d="M133.3 22.2362H128.895L126.526 19.4413H121.469V22.2362H118.177V16.8363H127.432C127.941 16.8363 128.371 16.7311 128.72 16.5207C129.071 16.3102 129.245 16.0206 129.245 15.6523C129.245 15.2414 129.086 14.9338 128.768 14.7283C128.45 14.5235 128.005 14.4207 127.432 14.4207H118.177L120.324 11.6734H127.162C127.766 11.6734 128.392 11.7285 129.038 11.8393C129.685 11.9495 130.274 12.1469 130.803 12.431C131.334 12.715 131.771 13.0994 132.115 13.584C132.46 14.0686 132.632 14.6893 132.632 15.4469C132.632 15.8572 132.569 16.2471 132.441 16.6154C132.314 16.9842 132.131 17.3159 131.893 17.6099C131.654 17.9051 131.363 18.1546 131.018 18.36C130.674 18.5649 130.284 18.7103 129.85 18.7939C130.03 18.9313 130.231 19.1046 130.454 19.315C130.676 19.526 130.973 19.8157 131.344 20.1839L133.3 22.2362Z" fill="#CFAB66"/>
<path d="M133.3 22.2362H128.895L126.526 19.4413H121.469V22.2362H118.177V16.8363H127.432C127.941 16.8363 128.371 16.7311 128.72 16.5207C129.071 16.3102 129.245 16.0206 129.245 15.6523C129.245 15.2414 129.086 14.9338 128.768 14.7283C128.45 14.5235 128.005 14.4207 127.432 14.4207H118.177L120.324 11.6734H127.162C127.766 11.6734 128.392 11.7285 129.038 11.8393C129.685 11.9495 130.274 12.1469 130.803 12.431C131.334 12.715 131.771 13.0994 132.115 13.584C132.46 14.0686 132.632 14.6893 132.632 15.4469C132.632 15.8572 132.569 16.2471 132.441 16.6154C132.314 16.9842 132.131 17.3159 131.893 17.6099C131.654 17.9051 131.363 18.1546 131.018 18.36C130.674 18.5649 130.284 18.7103 129.85 18.7939C130.03 18.9313 130.231 19.1046 130.454 19.315C130.676 19.526 130.973 19.8157 131.344 20.1839L133.3 22.2362Z" fill="#141414"/>
<path d="M141.537 11.5C144.124 11.5 146.067 11.9369 147.365 12.8102C148.664 13.6841 149.314 15.0624 149.314 16.947C149.314 18.842 148.667 20.2259 147.373 21.0992C146.08 21.9731 144.135 22.41 141.537 22.41C138.93 22.41 136.981 21.9731 135.693 21.0992C134.405 20.2259 133.761 18.842 133.761 16.947C133.761 15.0624 134.408 13.6841 135.701 12.8102C136.995 11.9369 138.94 11.5 141.537 11.5ZM141.537 19.6627C142.364 19.6627 143.064 19.6287 143.636 19.56C144.209 19.4919 144.672 19.3576 145.028 19.1577C145.383 18.9571 145.64 18.6811 145.799 18.329C145.958 17.9756 146.038 17.5151 146.038 16.947C146.038 16.3782 145.958 15.9183 145.799 15.5656C145.64 15.2134 145.383 14.9392 145.028 14.7443C144.672 14.5493 144.209 14.4181 143.636 14.3494C143.064 14.2813 142.364 14.2467 141.537 14.2467C140.71 14.2467 140.011 14.2813 139.439 14.3494C138.866 14.4181 138.402 14.5493 138.047 14.7443C137.692 14.9392 137.435 15.2134 137.276 15.5656C137.116 15.9183 137.037 16.3782 137.037 16.947C137.037 17.5151 137.116 17.9756 137.276 18.329C137.435 18.6811 137.692 18.9571 138.047 19.1577C138.402 19.3576 138.866 19.4919 139.439 19.56C140.011 19.6287 140.71 19.6627 141.537 19.6627Z" fill="#CFAB66"/>
<path d="M141.537 11.5C144.124 11.5 146.067 11.9369 147.365 12.8102C148.664 13.6841 149.314 15.0624 149.314 16.947C149.314 18.842 148.667 20.2259 147.373 21.0992C146.08 21.9731 144.135 22.41 141.537 22.41C138.93 22.41 136.981 21.9731 135.693 21.0992C134.405 20.2259 133.761 18.842 133.761 16.947C133.761 15.0624 134.408 13.6841 135.701 12.8102C136.995 11.9369 138.94 11.5 141.537 11.5ZM141.537 19.6627C142.364 19.6627 143.064 19.6287 143.636 19.56C144.209 19.4919 144.672 19.3576 145.028 19.1577C145.383 18.9571 145.64 18.6811 145.799 18.329C145.958 17.9756 146.038 17.5151 146.038 16.947C146.038 16.3782 145.958 15.9183 145.799 15.5656C145.64 15.2134 145.383 14.9392 145.028 14.7443C144.672 14.5493 144.209 14.4181 143.636 14.3494C143.064 14.2813 142.364 14.2467 141.537 14.2467C140.71 14.2467 140.011 14.2813 139.439 14.3494C138.866 14.4181 138.402 14.5493 138.047 14.7443C137.692 14.9392 137.435 15.2134 137.276 15.5656C137.116 15.9183 137.037 16.3782 137.037 16.947C137.037 17.5151 137.116 17.9756 137.276 18.329C137.435 18.6811 137.692 18.9571 138.047 19.1577C138.402 19.3576 138.866 19.4919 139.439 19.56C140.011 19.6287 140.71 19.6627 141.537 19.6627Z" fill="#141414"/>
<path d="M164.515 19.5207L162.4 22.2364H157.057C156.135 22.2364 155.282 22.0996 154.497 21.8261C153.712 21.5519 153.037 21.1762 152.469 20.6966C151.903 20.2182 151.457 19.6494 151.134 18.9921C150.811 18.3342 150.649 17.6206 150.649 16.852C150.649 16.0839 150.811 15.3814 151.134 14.744C151.457 14.1078 151.903 13.56 152.469 13.102C153.037 12.6447 153.712 12.2919 154.497 12.0443C155.282 11.7974 156.135 11.673 157.057 11.673H164.515L162.4 14.4209H157.057C156.612 14.4209 156.199 14.4834 155.817 14.6097C155.436 14.7365 155.107 14.9129 154.831 15.1388C154.555 15.3654 154.338 15.6364 154.179 15.9521C154.02 16.2677 153.94 16.6155 153.94 16.9943C153.94 17.3731 154.017 17.7184 154.171 18.0285C154.324 18.3392 154.542 18.6053 154.823 18.8256C155.104 19.0466 155.436 19.218 155.817 19.3387C156.199 19.46 156.612 19.5207 157.057 19.5207H164.515Z" fill="#CFAB66"/>
<path d="M164.515 19.5207L162.4 22.2364H157.057C156.135 22.2364 155.282 22.0996 154.497 21.8261C153.712 21.5519 153.037 21.1762 152.469 20.6966C151.903 20.2182 151.457 19.6494 151.134 18.9921C150.811 18.3342 150.649 17.6206 150.649 16.852C150.649 16.0839 150.811 15.3814 151.134 14.744C151.457 14.1078 151.903 13.56 152.469 13.102C153.037 12.6447 153.712 12.2919 154.497 12.0443C155.282 11.7974 156.135 11.673 157.057 11.673H164.515L162.4 14.4209H157.057C156.612 14.4209 156.199 14.4834 155.817 14.6097C155.436 14.7365 155.107 14.9129 154.831 15.1388C154.555 15.3654 154.338 15.6364 154.179 15.9521C154.02 16.2677 153.94 16.6155 153.94 16.9943C153.94 17.3731 154.017 17.7184 154.171 18.0285C154.324 18.3392 154.542 18.6053 154.823 18.8256C155.104 19.0466 155.436 19.218 155.817 19.3387C156.199 19.46 156.612 19.5207 157.057 19.5207H164.515Z" fill="#141414"/>
<path d="M179.082 22.2362H174.105L170.892 19.4573C170.341 18.9839 169.92 18.615 169.628 18.3526C169.336 18.0896 169.1 17.868 168.92 17.6891C168.931 17.9311 168.941 18.1812 168.952 18.4386C168.963 18.6967 168.968 18.9517 168.968 19.2048V22.2362H165.661V11.6734H168.968V14.1206C168.968 14.4467 168.963 14.7685 168.952 15.0836C168.941 15.3998 168.926 15.6944 168.904 15.968C169.116 15.778 169.374 15.544 169.675 15.2649C169.978 14.9864 170.372 14.6472 170.86 14.2468L173.929 11.6734H178.7L174.629 14.7048C174.279 14.9684 173.969 15.1999 173.699 15.3998C173.428 15.5997 173.187 15.7736 172.975 15.9209C172.763 16.0682 172.57 16.1994 172.394 16.3158C172.22 16.4315 172.048 16.5417 171.878 16.6469C172.186 16.858 172.556 17.1204 172.991 17.4366C173.426 17.7523 173.988 18.1892 174.677 18.7469L179.082 22.2362Z" fill="#CFAB66"/>
<path d="M179.082 22.2362H174.105L170.892 19.4573C170.341 18.9839 169.92 18.615 169.628 18.3526C169.336 18.0896 169.1 17.868 168.92 17.6891C168.931 17.9311 168.941 18.1812 168.952 18.4386C168.963 18.6967 168.968 18.9517 168.968 19.2048V22.2362H165.661V11.6734H168.968V14.1206C168.968 14.4467 168.963 14.7685 168.952 15.0836C168.941 15.3998 168.926 15.6944 168.904 15.968C169.116 15.778 169.374 15.544 169.675 15.2649C169.978 14.9864 170.372 14.6472 170.86 14.2468L173.929 11.6734H178.7L174.629 14.7048C174.279 14.9684 173.969 15.1999 173.699 15.3998C173.428 15.5997 173.187 15.7736 172.975 15.9209C172.763 16.0682 172.57 16.1994 172.394 16.3158C172.22 16.4315 172.048 16.5417 171.878 16.6469C172.186 16.858 172.556 17.1204 172.991 17.4366C173.426 17.7523 173.988 18.1892 174.677 18.7469L179.082 22.2362Z" fill="#141414"/>
<path d="M14.4013 28.8579L16.6975 32.3805L25.8036 19.0093H16.954L10.3097 28.7531L4.04301 19.8937L8.01343 19.8638L11.3517 24.5557L12.5151 22.8019L9.14639 18.0499H0.145264L10.2632 32.3356L18.1011 20.8231H22.0574L16.6207 28.708L15.5787 27.119L14.4013 28.8579Z" fill="url(#paint0_linear_1098_1135)"/>
<path d="M10.3099 5.12762L16.9541 14.8713H25.8039L16.6977 1.5L14.4014 5.02267L15.5788 6.76151L16.621 5.17262L22.0576 13.0574H18.1013L10.2634 1.54499L0.145508 15.8306H9.14664L12.5152 11.0788L11.3519 9.32482L8.01367 14.0169L4.04326 13.9868L10.3099 5.12762Z" fill="url(#paint1_linear_1098_1135)"/>
</g>
<defs>
<linearGradient id="paint0_linear_1098_1135" x1="-0.47557" y1="25.0852" x2="26.4108" y2="25.0852" gradientUnits="userSpaceOnUse">
<stop stop-color="#FBC926"/>
<stop offset="0.005618" stop-color="#FBC926"/>
<stop offset="0.252809" stop-color="#FFFBCC"/>
<stop offset="0.298171" stop-color="#F8EBB9"/>
<stop offset="0.387921" stop-color="#E7D08F"/>
<stop offset="0.512272" stop-color="#D1AA55"/>
<stop offset="0.595506" stop-color="#C3922E"/>
<stop offset="0.823015" stop-color="#E4C878"/>
<stop offset="0.870786" stop-color="#EED688"/>
<stop offset="1" stop-color="#FFFBCC"/>
</linearGradient>
<linearGradient id="paint1_linear_1098_1135" x1="-0.475326" y1="8.53531" x2="26.411" y2="8.53531" gradientUnits="userSpaceOnUse">
<stop stop-color="#FBC926"/>
<stop offset="0.005618" stop-color="#FBC926"/>
<stop offset="0.252809" stop-color="#FFFBCC"/>
<stop offset="0.298171" stop-color="#F8EBB9"/>
<stop offset="0.387921" stop-color="#E7D08F"/>
<stop offset="0.512272" stop-color="#D1AA55"/>
<stop offset="0.595506" stop-color="#C3922E"/>
<stop offset="0.823015" stop-color="#E4C878"/>
<stop offset="0.870786" stop-color="#EED688"/>
<stop offset="1" stop-color="#FFFBCC"/>
</linearGradient>
<clipPath id="clip0_1098_1135">
<rect width="204" height="32" fill="#141414" transform="translate(0 0.5)"/>
</clipPath>
</defs>
</svg>
