<svg width="106" height="30" viewBox="0 0 106 30" fill="none" xmlns="http://www.w3.org/2000/svg">
<path d="M46.1531 14.8918C46.1767 14.0911 46.0181 13.2954 45.6886 12.5643C45.3595 11.8332 44.8681 11.1857 44.2514 10.6701C42.8671 9.55431 41.122 8.97728 39.3414 9.04661H32.7399V11.9755H39.3414C40.2457 11.9399 41.1313 12.238 41.8281 12.8123C42.1491 13.0836 42.405 13.4227 42.5774 13.8049C42.7499 14.187 42.8345 14.6027 42.8252 15.0215C42.8378 15.4361 42.7548 15.8481 42.5827 16.2259C42.4106 16.6038 42.154 16.9375 41.8322 17.2014C41.1306 17.7699 40.246 18.0671 39.3414 18.0383H36.0974V13.6031H32.7314V20.9546H39.333C41.1262 21.0165 42.8756 20.3971 44.2262 19.2224C44.8461 18.6843 45.3395 18.0177 45.6727 17.2695C46.0055 16.5214 46.1694 15.7098 46.1531 14.8918Z" fill="#141414"/>
<path d="M49.8163 14.8929C49.8004 15.7107 49.9647 16.5221 50.2979 17.2702C50.6307 18.0183 51.1241 18.6849 51.7436 19.2234C53.093 20.3976 54.8414 21.0169 56.6337 20.9556H62.4244V18.0268H56.6337C55.731 18.0578 54.8483 17.7602 54.1506 17.1899C53.8313 16.9268 53.5758 16.5951 53.4038 16.2197C53.2317 15.8443 53.1475 15.435 53.1576 15.0226C53.1483 14.6042 53.2325 14.1889 53.4042 13.8068C53.5758 13.4248 53.8309 13.0854 54.1506 12.8133C54.845 12.2371 55.7302 11.9388 56.6337 11.9766H62.4244V9.04769H56.6337C54.8511 8.9777 53.1044 9.55473 51.7184 10.6711C51.1017 11.1867 50.6103 11.8343 50.2808 12.5654C49.9513 13.2965 49.7927 14.0921 49.8163 14.8929Z" fill="#141414"/>
<path d="M73.3316 11.9723L76.0543 9.04102H64.2573V20.9588H75.4791V18.0401H67.5552V16.3818H75.4791V13.5845H67.5552V11.9723H73.3316Z" fill="#141414"/>
<path d="M91.1971 9H87.8317V15.9475L80.5672 9.50634C80.3919 9.33637 80.1819 9.20486 79.9513 9.12049C79.721 9.03608 79.4749 9.0007 79.2296 9.0166C79.0299 9.00559 78.8298 9.03694 78.6435 9.10853C78.4567 9.18012 78.2883 9.2903 78.1484 9.43163C77.8933 9.71223 77.7587 10.08 77.7741 10.4567V20.8324H81.1391V13.9015L88.3995 20.3468C88.5928 20.5392 88.825 20.6894 89.0809 20.7873C89.3364 20.8853 89.6106 20.9289 89.8847 20.9154C90.7679 20.9154 91.1971 20.4173 91.1971 19.3881V9Z" fill="#141414"/>
<path d="M105.546 9.04199H92.5288V11.9733H97.3871V20.9598H100.692V11.9733H105.546V9.04199Z" fill="#141414"/>
<path d="M48.7151 11.9187H47.2539L46.1519 9.04199H49.813L48.7151 11.9187Z" fill="#141414"/>
<path d="M14.3843 5.66589L16.6016 4.3749V1.29096L14.3843 0V5.66589Z" fill="#141414"/>
<path d="M6.21747 19.0859V10.4162L13.6476 6.1004V0L1.37701 7.14247C1.26275 7.20949 1.16787 7.30549 1.10181 7.42093C1.03575 7.53641 1.00083 7.6673 1.00049 7.80058V22.1446L6.21747 19.0859Z" fill="#141414"/>
<path d="M21.4205 19.6973L14.003 24.0131L6.63145 19.7226L1.39355 22.7728L13.6474 29.8984C13.762 29.9647 13.8918 29.9996 14.0239 29.9996C14.1561 30.0002 14.2861 29.9652 14.4004 29.8984L26.6752 22.7517L21.4205 19.6973Z" fill="#141414"/>
<path d="M26.655 7.14233L21.7895 4.31152V7.39548L16.5767 10.4372L21.8062 13.479V19.0352L27.0357 22.1023V7.80048C27.0349 7.66676 26.9994 7.53562 26.9326 7.4201C26.8658 7.30462 26.77 7.20883 26.655 7.14233Z" fill="#141414"/>
<path d="M11.4058 13.4424L11.41 19.4837L16.4972 16.5221V10.4766L11.4058 13.4424Z" fill="#141414"/>
</svg>
