<svg width="222" height="32" viewBox="0 0 222 32" fill="none" xmlns="http://www.w3.org/2000/svg">
<g clip-path="url(#clip0_338_537)">
<path d="M27.8019 24.4218C29.0173 24.4099 29.2755 24.9879 28.5287 25.9127C25.5695 29.5962 21.0771 32 15.9968 32C10.9165 32 6.42402 29.5962 3.4648 25.9127C2.71805 24.9879 2.9802 24.4138 4.1917 24.4218C10.0982 24.4497 27.8019 24.4218 27.8019 24.4218Z" fill="url(#paint0_radial_338_537)"/>
<path d="M29.2321 21.9339C29.8358 22.9903 30.4555 22.9305 30.8845 21.8223C32.5845 17.4093 32.4137 12.3027 29.8716 7.88578C27.3294 3.46883 23.0118 0.770032 18.3525 0.036531C17.1807 -0.146844 16.8113 0.367403 17.431 1.41583C17.431 1.41583 26.3086 16.7914 29.2321 21.9339Z" fill="url(#paint1_radial_338_537)"/>
<path d="M14.5674 1.41602C15.1791 0.363602 14.8176 -0.146659 13.6458 0.0367166C8.98655 0.766231 4.66888 3.46902 2.12674 7.88597C-0.415405 12.3029 -0.582233 17.4095 1.11385 21.8225C1.54284 22.9347 2.16646 22.9945 2.76625 21.9341C2.76625 21.9341 11.5962 6.53059 14.5674 1.41602Z" fill="url(#paint2_radial_338_537)"/>
<path d="M16.0257 23.4336H3.07167L16.0257 0.476654V23.4336Z" fill="url(#paint3_linear_338_537)" fill-opacity="0.5"/>
<mask id="mask0_338_537" style="mask-type:alpha" maskUnits="userSpaceOnUse" x="0" y="0" width="32" height="32">
<path d="M27.8019 24.4218C29.0173 24.4099 29.2755 24.9879 28.5287 25.9127C25.5695 29.5962 21.0771 32 15.9968 32C10.9165 32 6.424 29.5962 3.46479 25.9127C2.71803 24.9879 2.98019 24.4138 4.19168 24.4218C10.0982 24.4497 27.8019 24.4218 27.8019 24.4218Z" fill="black"/>
<path d="M29.2321 21.9339C29.8358 22.9903 30.4555 22.9305 30.8845 21.8223C32.5845 17.4093 32.4137 12.3027 29.8716 7.88579C27.3294 3.46884 23.0118 0.770032 18.3525 0.0365311C17.1807 -0.146844 16.8113 0.367403 17.431 1.41583C17.431 1.41583 26.3086 16.7914 29.2321 21.9339Z" fill="black"/>
<path d="M14.5674 1.41602C15.1791 0.363602 14.8176 -0.146659 13.6458 0.0367166C8.98656 0.766231 4.66888 3.46902 2.12674 7.88597C-0.415405 12.3029 -0.582233 17.4095 1.11385 21.8225C1.54284 22.9347 2.16646 22.9945 2.76625 21.9341C2.76625 21.9341 11.5962 6.53059 14.5674 1.41602Z" fill="black"/>
</mask>
<g mask="url(#mask0_338_537)">
<g filter="url(#filter0_f_338_537)">
<path d="M27.8544 24.4225C27.8544 24.4225 10.1489 24.4502 4.24724 24.4225C7.8775 26.3801 11.9319 27.5171 16.051 27.5171C20.1701 27.5171 24.2245 26.3802 27.8544 24.4225Z" fill="#9B6556"/>
</g>
<g filter="url(#filter1_f_338_537)">
<path d="M29.874 7.88524C27.333 3.46829 23.0128 0.768646 18.3549 0.0375366C22.0435 2.22142 25.0624 5.68713 27.2136 9.42659C29.3648 13.1661 30.8462 17.5227 30.8864 21.8208C32.5846 17.4063 32.4152 12.3019 29.874 7.88524Z" fill="#9B6556"/>
</g>
<g filter="url(#filter2_f_338_537)">
<path d="M4.78772 9.42823C2.63611 13.1685 1.15547 17.5252 1.11488 21.8233C-0.583394 17.4089 -0.413467 12.3037 2.12776 7.88677C4.66899 3.46982 8.98854 0.770172 13.6469 0.0390625C9.95773 2.22306 6.93929 5.68877 4.78772 9.42823Z" fill="#9B6556"/>
</g>
<g filter="url(#filter3_f_338_537)">
<path d="M15.9947 28.9101C20.3002 28.9101 24.803 28.0191 28.5347 25.9049C25.5723 29.5884 21.0798 31.9928 15.9944 31.9928C10.909 31.9928 6.41689 29.5882 3.45486 25.9049C7.18634 28.019 11.6887 28.9101 15.9947 28.9101Z" fill="#FCCBB5"/>
</g>
<g filter="url(#filter4_f_338_537)">
<path d="M17.4221 1.40373C17.4221 1.40373 26.2989 16.7787 29.2259 21.9218C29.1002 17.7875 28.0539 13.6959 25.9942 10.1155C23.9344 6.53585 20.9264 3.57968 17.4221 1.40373Z" fill="#FCCBB5"/>
</g>
<g filter="url(#filter5_f_338_537)">
<path d="M5.99919 10.1208C3.93985 13.7012 2.89324 17.7936 2.76749 21.9271C2.76749 21.9271 11.5966 6.52532 14.5713 1.40903C11.0667 3.58577 8.05892 6.54114 5.99919 10.1208Z" fill="#FCCBB5"/>
</g>
</g>
<path d="M52.0144 10.2692C52.0144 10.0982 52.158 9.94134 52.3448 9.94134H59.4411C59.6279 9.94134 59.7715 10.0982 59.7715 10.2692V11.6947C59.7715 11.8658 59.6279 12.0226 59.4411 12.0226H54.2697V15.2728H58.5792C58.7516 15.2728 58.9096 15.4296 58.9096 15.6007V17.0262C58.9096 17.1973 58.7516 17.354 58.5792 17.354H54.2697V21.7304C54.2697 21.9015 54.1117 22.0583 53.9393 22.0583H52.3304C52.1437 22.0583 52 21.9015 52 21.7304V10.2692H52.0144Z" fill="#1a1a1a"/>
<path d="M73.635 9.77064C77.1257 9.77064 79.9126 12.5647 79.9126 16.0287C79.9126 19.4927 77.1257 22.244 73.635 22.244C70.1443 22.244 67.3718 19.4927 67.3718 16.0287C67.3718 12.5647 70.1443 9.77064 73.635 9.77064ZM73.635 19.9774C75.8329 19.9774 77.6429 18.1955 77.6429 16.0144C77.6429 13.8334 75.8329 12.0087 73.635 12.0087C71.4372 12.0087 69.6415 13.8334 69.6415 16.0144C69.6272 18.1955 71.4228 19.9774 73.635 19.9774Z" fill="#1a1a1a"/>
<path d="M88.3871 10.2692C88.3871 10.0982 88.5451 9.94134 88.7175 9.94134H90.3695C90.5562 9.94134 90.6999 10.0982 90.6999 10.2692V17.354C90.6999 18.8223 91.7054 19.9913 93.2281 19.9913C94.7509 19.9913 95.7708 18.8366 95.7708 17.3826V10.2835C95.7708 10.1124 95.9144 9.95559 96.1012 9.95559H97.7532C97.9255 9.95559 98.0836 10.1124 98.0836 10.2835V17.4823C98.0836 20.1196 95.9719 22.2436 93.2138 22.2436C90.4701 22.2436 88.3584 20.1196 88.3584 17.4823V10.2692H88.3871Z" fill="#1a1a1a"/>
<path d="M107.493 10.0698C107.493 9.89871 107.651 9.75616 107.823 9.75616H108.254L115.509 17.4112H115.523V10.2551C115.523 10.084 115.667 9.92722 115.853 9.92722H117.462C117.635 9.92722 117.793 10.084 117.793 10.2551V21.9158C117.793 22.0869 117.635 22.2295 117.462 22.2295H117.046L109.748 14.2751H109.734V21.7163C109.734 21.8873 109.59 22.0441 109.404 22.0441H107.809C107.637 22.0441 107.479 21.8873 107.479 21.7163V10.0698H107.493Z" fill="#1a1a1a"/>
<path d="M127.345 10.2692C127.345 10.0982 127.488 9.94134 127.661 9.94134H131.798C135.159 9.94134 137.917 12.6641 137.917 15.9856C137.917 19.3498 135.159 22.0583 131.798 22.0583H127.661C127.488 22.0583 127.345 21.9015 127.345 21.7304V10.2692ZM131.582 19.9485C133.852 19.9485 135.504 18.2521 135.504 15.9856C135.504 13.7332 133.852 12.0369 131.582 12.0369H129.586V19.9485H131.582Z" fill="#1a1a1a"/>
<path d="M147.226 21.7163C147.154 21.8873 146.996 22.0584 146.723 22.0584H145.2C144.942 22.0584 144.798 21.8303 144.899 21.6022L150.329 9.94147C150.386 9.84169 150.472 9.75616 150.63 9.75616H150.803C150.975 9.75616 151.047 9.84169 151.104 9.94147L156.477 21.6022C156.578 21.8303 156.448 22.0584 156.175 22.0584H154.653C154.394 22.0584 154.265 21.9586 154.15 21.7163L150.688 14.1183H150.63L147.226 21.7163Z" fill="#1a1a1a"/>
<path d="M165.428 12.0226H162.756C162.569 12.0226 162.426 11.8658 162.426 11.6947V10.2692C162.426 10.0982 162.569 9.94134 162.756 9.94134H170.384C170.571 9.94134 170.714 10.0982 170.714 10.2692V11.6947C170.714 11.8658 170.571 12.0226 170.384 12.0226H167.712V21.7447C167.712 21.9157 167.554 22.0725 167.382 22.0725H165.758C165.586 22.0725 165.428 21.9157 165.428 21.7447V12.0226Z" fill="#1a1a1a"/>
<path d="M178.902 10.2692C178.902 10.0982 179.06 9.94134 179.233 9.94134H180.856C181.028 9.94134 181.186 10.0982 181.186 10.2692V21.7304C181.186 21.9015 181.028 22.0583 180.856 22.0583H179.233C179.06 22.0583 178.902 21.9015 178.902 21.7304V10.2692Z" fill="#1a1a1a"/>
<path d="M196.126 9.77064C199.617 9.77064 202.403 12.5647 202.403 16.0287C202.403 19.4927 199.617 22.244 196.126 22.244C192.635 22.244 189.863 19.4927 189.863 16.0287C189.863 12.5647 192.635 9.77064 196.126 9.77064ZM196.126 19.9774C198.324 19.9774 200.134 18.1955 200.134 16.0144C200.134 13.8334 198.324 12.0087 196.126 12.0087C193.928 12.0087 192.132 13.8334 192.132 16.0144C192.132 18.1955 193.928 19.9774 196.126 19.9774Z" fill="#1a1a1a"/>
<path d="M211.066 10.0698C211.066 9.89871 211.224 9.75616 211.396 9.75616H211.827L219.082 17.4112H219.096V10.2551C219.096 10.084 219.24 9.92722 219.427 9.92722H221.035C221.208 9.92722 221.366 10.084 221.366 10.2551V21.9158C221.366 22.0869 221.208 22.2295 221.035 22.2295H220.619L213.321 14.2751H213.307V21.7163C213.307 21.8873 213.163 22.0441 212.977 22.0441H211.382C211.21 22.0441 211.052 21.8873 211.052 21.7163V10.0698H211.066Z" fill="#1a1a1a"/>
</g>
<defs>
<filter id="filter0_f_338_537" x="3.24724" y="23.4225" width="25.6071" height="5.09462" filterUnits="userSpaceOnUse" color-interpolation-filters="sRGB">
<feFlood flood-opacity="0" result="BackgroundImageFix"/>
<feBlend mode="normal" in="SourceGraphic" in2="BackgroundImageFix" result="shape"/>
<feGaussianBlur stdDeviation="0.5" result="effect1_foregroundBlur_338_537"/>
</filter>
<filter id="filter1_f_338_537" x="17.3549" y="-0.962463" width="15.6461" height="23.7833" filterUnits="userSpaceOnUse" color-interpolation-filters="sRGB">
<feFlood flood-opacity="0" result="BackgroundImageFix"/>
<feBlend mode="normal" in="SourceGraphic" in2="BackgroundImageFix" result="shape"/>
<feGaussianBlur stdDeviation="0.5" result="effect1_foregroundBlur_338_537"/>
</filter>
<filter id="filter2_f_338_537" x="-0.999603" y="-0.960938" width="15.6465" height="23.7842" filterUnits="userSpaceOnUse" color-interpolation-filters="sRGB">
<feFlood flood-opacity="0" result="BackgroundImageFix"/>
<feBlend mode="normal" in="SourceGraphic" in2="BackgroundImageFix" result="shape"/>
<feGaussianBlur stdDeviation="0.5" result="effect1_foregroundBlur_338_537"/>
</filter>
<filter id="filter3_f_338_537" x="0.454865" y="22.9049" width="31.0798" height="12.0879" filterUnits="userSpaceOnUse" color-interpolation-filters="sRGB">
<feFlood flood-opacity="0" result="BackgroundImageFix"/>
<feBlend mode="normal" in="SourceGraphic" in2="BackgroundImageFix" result="shape"/>
<feGaussianBlur stdDeviation="1.5" result="effect1_foregroundBlur_338_537"/>
</filter>
<filter id="filter4_f_338_537" x="14.4221" y="-1.59627" width="17.8038" height="26.5181" filterUnits="userSpaceOnUse" color-interpolation-filters="sRGB">
<feFlood flood-opacity="0" result="BackgroundImageFix"/>
<feBlend mode="normal" in="SourceGraphic" in2="BackgroundImageFix" result="shape"/>
<feGaussianBlur stdDeviation="1.5" result="effect1_foregroundBlur_338_537"/>
</filter>
<filter id="filter5_f_338_537" x="-0.232513" y="-1.59097" width="17.8038" height="26.5181" filterUnits="userSpaceOnUse" color-interpolation-filters="sRGB">
<feFlood flood-opacity="0" result="BackgroundImageFix"/>
<feBlend mode="normal" in="SourceGraphic" in2="BackgroundImageFix" result="shape"/>
<feGaussianBlur stdDeviation="1.5" result="effect1_foregroundBlur_338_537"/>
</filter>
<radialGradient id="paint0_radial_338_537" cx="0" cy="0" r="1" gradientUnits="userSpaceOnUse" gradientTransform="translate(15.9521 15.8943) rotate(90) scale(16.0168 91.3852)">
<stop offset="0.515315" stop-color="#9C6657"/>
<stop offset="0.6" stop-color="#C4816D"/>
<stop offset="0.75" stop-color="#E1A190"/>
<stop offset="1" stop-color="#FFC2B4"/>
</radialGradient>
<radialGradient id="paint1_radial_338_537" cx="0" cy="0" r="1" gradientUnits="userSpaceOnUse" gradientTransform="translate(15.9784 15.92) scale(16.0225 16.0802)">
<stop offset="0.5" stop-color="#FFC2B4"/>
<stop offset="0.75" stop-color="#E1A190"/>
<stop offset="0.95" stop-color="#C3806C"/>
<stop offset="1" stop-color="#9C6657"/>
</radialGradient>
<radialGradient id="paint2_radial_338_537" cx="0" cy="0" r="1" gradientUnits="userSpaceOnUse" gradientTransform="translate(15.9917 15.9137) scale(16.0455 16.1033)">
<stop offset="0.5" stop-color="#FFC2B4"/>
<stop offset="0.75" stop-color="#E1A190"/>
<stop offset="0.95" stop-color="#C3806C"/>
<stop offset="1" stop-color="#9C6657"/>
</radialGradient>
<linearGradient id="paint3_linear_338_537" x1="16.0257" y1="29.9111" x2="16.1124" y2="0.466491" gradientUnits="userSpaceOnUse">
<stop offset="0.216102" stop-color="white" stop-opacity="0"/>
<stop offset="1" stop-color="white"/>
</linearGradient>
<clipPath id="clip0_338_537">
<rect width="222" height="32" fill="#1a1a1a"/>
</clipPath>
</defs>
</svg>
