<svg xmlns="http://www.w3.org/2000/svg" fill="none" viewBox="0 0 194 24" height="24" width="194">
<g clip-path="url(#clip0_118_2176)">
<path fill="#231F20" d="M183.386 0.211185C186.441 0.231203 190.47 -0.482536 192.557 2.11852C192.975 2.64034 193.593 3.66674 193.675 4.34427C193.925 6.42877 193.748 8.59166 193.816 10.6924C193.831 13.381 193.879 16.1149 193.77 18.7868C193.7 20.4792 192.922 21.7649 191.626 22.8365C191.134 23.182 190.446 23.5628 189.874 23.7105C188.718 24.0092 183.634 24.1178 182.776 23.6531C182.361 23.2956 182.472 20.3736 182.47 19.7423L182.466 13.7026L182.495 5.34351C182.497 4.04704 182.481 2.75221 182.484 1.45681C182.485 0.783474 182.688 0.322313 183.386 0.211185ZM189.361 20.7124C190.686 19.9732 190.848 19.0873 190.851 17.648C190.86 13.6529 190.88 9.65257 190.832 5.65877C190.792 3.43938 188.592 2.98661 186.848 3.16917C186.531 3.19758 186.05 3.20953 185.809 3.3999L185.794 3.41112C185.315 3.78958 185.451 6.24452 185.452 6.96204L185.461 11.6905L185.451 16.7868C185.448 17.7083 185.429 18.6443 185.463 19.5586C185.493 20.364 185.654 20.9259 186.557 20.9574C187.411 20.9874 188.553 20.9788 189.361 20.7124Z"></path>
<path fill="#231F20" d="M104.555 0.354206C106.495 0.321449 108.512 0.217913 110.441 0.437912C111.887 0.602723 113.114 1.12571 114.04 2.29468C115.514 4.15585 115.473 7.89324 115.202 10.1993C115.069 11.3274 114.666 12.424 113.93 13.3025C111.547 16.1512 108.264 14.5588 107.099 15.4825C106.888 15.6497 106.877 15.9134 106.848 16.1621C106.791 17.6828 107.027 22.3474 106.673 23.4292C106.609 23.6267 106.486 23.7247 106.304 23.8138C105.883 24.0202 104.839 23.9892 104.402 23.8346C104.208 23.7659 104.052 23.6422 103.965 23.4534C103.752 22.9957 103.714 1.47561 103.962 0.844131C104.076 0.556854 104.29 0.466556 104.555 0.354206ZM111.115 11.7427C111.771 11.2904 112.053 10.8154 112.197 10.0316C112.417 8.83633 112.412 5.28873 111.715 4.28263C111.331 3.72963 110.775 3.49303 110.129 3.37778C109.244 3.21996 108.311 3.29386 107.418 3.33142C107.167 3.47871 107.028 3.58997 106.95 3.88506C106.677 4.92056 106.677 10.9137 107.057 11.8585C107.326 12.1713 107.726 12.2161 108.115 12.2444C109.147 12.3193 110.189 12.2266 111.115 11.7427Z"></path>
<path fill="#231F20" d="M133.311 0.276648C134.671 0.157463 135.856 0.423811 137.157 1.15865C138.496 1.91641 140.151 4.40645 139.466 5.97801C139.19 6.61434 137.474 6.52937 137.164 6.25962C136.492 5.59181 136.393 4.09327 135.451 3.61025C132.519 2.10805 130.325 5.47032 132.021 7.92672C133.579 10.1802 136.151 11.7236 137.942 13.8149C140.885 17.2512 140.064 22.6088 135.255 23.797C132.235 24.3413 129.163 22.7195 128.586 19.5284C128.509 19.1058 128.45 18.6433 128.706 18.2676C128.917 18.1074 129.132 18.0399 129.375 18.0093C132.133 17.6632 130.966 19.1585 132.446 20.4008C132.988 20.855 133.826 21.0122 134.524 20.8935C135.205 20.782 135.814 20.4024 136.213 19.8394C137.992 17.3089 134.742 14.751 133.069 13.2875C132.059 12.4469 131.188 11.5828 130.304 10.6206C127.08 7.10901 128.073 1.15754 133.311 0.276648Z"></path>
<path fill="#231F20" d="M31.6919 0.276671C34.4631 0.0279298 37.2351 1.57682 37.8543 4.41676C38.0226 5.18874 38.3019 6.0461 37.3706 6.25884C34.4801 6.91921 35.5308 4.85746 33.8848 3.66034C33.3681 3.28452 32.3775 3.21045 31.8033 3.34081C31.1535 3.48458 30.5886 3.88335 30.2356 4.44753C29.6539 5.3833 29.7394 6.95841 30.3232 7.81232C31.9437 10.1461 34.4995 11.69 36.3398 13.8449C39.3124 17.3256 38.3864 22.7091 33.4959 23.8279C33.1315 23.8985 32.5703 23.932 32.1955 23.9155C30.6811 23.8605 29.2521 23.2011 28.2276 22.0849C27.6111 21.4079 26.7912 20.0263 26.8503 19.0589C26.9284 17.7809 28.0931 17.9463 29.0151 18.0021C29.3038 18.1695 29.5443 18.3928 29.7968 18.6108C30.0606 19.4332 30.1931 19.9164 30.9135 20.4678C31.9722 21.2779 33.7995 20.9767 34.5685 19.9069C35.2559 18.9508 35.1852 17.3953 34.5182 16.4339C32.9101 14.177 30.548 12.7889 28.7227 10.6663C26.734 8.35396 26.0449 5.244 27.8639 2.5742C28.7552 1.26598 30.1366 0.531665 31.6919 0.276671Z"></path>
<path fill="#231F20" d="M45.9007 0.2048C45.9721 0.201961 46.0435 0.199946 46.1149 0.198754C48.1445 0.169954 50.2012 0.212083 52.2364 0.193889C53.2532 0.214197 54.2948 0.155046 55.3078 0.223478C55.9404 0.266216 56.202 1.12237 56.1906 1.64155C56.1381 4.0454 53.3096 2.29503 52.1279 3.2556C51.9317 3.41509 51.8493 3.79104 51.8348 4.03538C51.7963 5.82256 51.8165 7.65474 51.8163 9.44048L51.8152 20.8198C51.7879 23.4301 52.2943 24.2693 49.1256 23.698C48.9984 23.4174 48.9183 23.1177 48.8885 22.8109C48.7828 21.7843 48.8504 19.4712 48.8522 18.3581L48.8558 9.03036C48.856 7.44721 48.8618 5.78769 48.8331 4.27346C48.8604 1.92441 46.0199 3.59851 44.8756 2.73417C44.2385 2.25293 44.3544 1.05162 44.86 0.516011C45.1704 0.187228 45.4971 0.224587 45.9007 0.2048Z"></path>
<path fill="#231F20" d="M81.3824 24C80.783 23.8796 80.5101 23.6619 80.5314 22.98C80.5559 22.205 80.5957 21.4785 80.5875 20.7013L80.571 10.7205L80.5718 4.71416C80.5722 4.13882 80.4589 0.741812 80.8801 0.55648C81.7753 0.162582 83.7214 0.368906 84.7244 0.441881C85.6016 0.50571 85.7712 2.69424 85.929 3.36164C86.4566 5.58887 86.6492 8.2365 87.6221 10.3026C88.484 8.4175 88.8818 5.3689 89.3111 3.29029C89.4629 2.55746 89.5706 1.74015 89.8658 1.05104C89.977 0.790088 90.0966 0.60494 90.3756 0.500243C90.9873 0.270488 93.6186 0.234227 94.2005 0.506488C94.3693 0.585549 94.4864 0.709909 94.55 0.888639C94.7909 1.55905 94.7222 23.1965 94.505 23.6353C94.4389 23.7697 94.2955 23.8965 94.1878 24H92.0934C91.861 23.7586 91.7923 23.657 91.7397 23.3225C91.4563 21.4966 92.0781 8.91605 91.3588 8.21084L91.2341 8.23378C90.6038 8.97448 90.1525 13.104 89.759 14.1512C89.2729 15.4445 88.1023 15.0594 86.9987 15.1214C86.4473 15.1525 85.7755 15.0327 85.5753 14.4658C84.8053 12.2814 84.7725 9.87638 83.8337 7.73541C83.4917 8.78841 83.547 9.73433 83.5384 10.8247C83.5133 14.0163 83.492 17.208 83.4896 20.3997C83.4888 21.445 83.587 22.5276 83.4321 23.5577C83.4009 23.7655 83.1387 23.9069 82.9704 24H81.3824Z"></path>
<path fill="#231F20" d="M66.1188 0H67.8014C67.8458 0.0102429 67.8895 0.0227 67.9327 0.0373243C68.2031 0.128195 68.561 0.32392 68.6349 0.590738C69.2549 2.83087 69.73 5.76385 70.1687 8.02149L71.9152 16.9957C72.124 18.0681 73.1453 22.6282 72.8748 23.424C72.4302 23.8741 71.4286 23.8049 70.8351 23.6546C69.4293 23.2985 70.1478 20.3958 69.0207 20.1323C68.2466 19.9513 65.8854 19.8247 65.1066 20.1456C64.1248 20.55 64.3011 22.0814 64.0064 22.9005C63.6588 23.8944 62.4441 23.8728 61.5972 23.655C61.0814 23.5223 60.9428 22.8674 61.045 22.3962C61.3118 21.1645 61.5558 19.9259 61.7971 18.6858L63.5403 9.71966L64.6143 4.15888C64.8389 2.9935 65.0582 1.71108 65.4285 0.581828C65.5441 0.229272 65.7935 0.141772 66.1188 0ZM67.0399 16.9769C67.4976 16.9689 68.1302 17.0336 68.4752 16.6821C68.6369 16.5173 68.6394 16.3419 68.6346 16.1217C68.6077 14.8907 67.6891 10.1872 67.105 9.22007L66.9301 9.10312C66.5112 10.1201 65.1359 15.7186 65.4803 16.5368C65.5533 16.7103 65.6799 16.8013 65.8538 16.8692C66.202 17.0052 66.6687 16.9739 67.0399 16.9769Z"></path>
<path fill="#231F20" d="M8.33308 0H9.65219C13.0692 0.645989 15.0362 2.43301 14.6606 6.10533C14.6489 6.21922 14.5656 6.38589 14.5081 6.48083C14.2849 6.61302 14.1153 6.66709 13.892 6.46206C13.6972 5.82202 13.7862 5.34278 13.7719 4.70353C13.6738 0.294647 6.42796 -0.417602 4.59262 3.17848C3.97553 4.38757 4.17147 6.66336 4.18226 8.05654H12.594L5.43739 12.2171C4.78825 12.5947 2.5008 13.8753 2.01335 14.2906C1.72387 14.5381 1.51752 14.8686 1.42229 15.2374C1.29736 15.716 1.36954 16.2247 1.6227 16.6497C1.88427 17.0983 2.31307 17.4249 2.8151 17.558C3.83315 17.8178 5.24306 16.7873 6.11239 16.2754L10.6321 13.6169C12.0189 12.8029 13.5212 11.6585 15.1586 11.7217V9.36356L7.97059 13.5556C7.30923 13.9409 4.75421 15.5551 4.1967 15.5598C3.87606 15.4307 3.98047 15.5098 3.77252 15.224C3.76167 15.0734 3.7494 14.7802 3.89579 14.6891C7.29922 12.5735 10.8538 10.6023 14.3151 8.5691C14.6282 8.38528 15.0988 8.18753 15.3694 8.12341C16.4526 8.73583 16.1068 10.9114 16.0983 12.0282C16.9113 12.5378 17.4575 13.0841 17.6832 14.0591C17.8659 14.8451 17.7255 15.6716 17.2934 16.3532C16.9953 16.8296 16.5851 17.1932 16.0983 17.4706C16.0974 18.0749 16.1299 19.2524 16.0747 19.8118C14.4887 20.786 10.3923 23.5702 8.79874 24H8.76498C7.65346 23.7056 6.61609 22.9073 5.62587 22.2651C7.95179 20.9895 10.306 19.486 12.6384 18.18C13.7169 17.4954 14.9737 16.9338 15.9961 16.1813C16.7897 15.5973 16.8364 14.2261 16.1916 13.5079C14.9062 12.0762 13.3323 13.3252 12.0681 14.0687L7.2335 16.9132C5.74257 17.7897 4.52146 18.8018 2.73241 18.7113L2.6895 18.9924C2.87283 19.5671 3.67232 19.9181 4.21402 20.2432L10.4635 16.5987C11.4296 16.0354 12.4477 15.4245 13.4313 14.8871C13.6398 14.7733 13.6924 14.8039 13.9117 14.8262C14.1964 15.0226 14.2915 15.1627 14.2205 15.5109C13.9303 16.0839 5.68249 20.6803 4.35251 21.4561C3.48696 20.9127 2.62863 20.3579 1.77774 19.7919L1.7716 18.371C-0.207574 16.8589 -0.344762 14.5104 1.77166 13.0603C1.78135 12.4461 1.74055 11.8345 1.75114 11.2248C1.77648 9.76529 1.31851 8.08747 3.31797 8.04712C3.30977 6.97527 3.27058 5.88148 3.31998 4.81111C3.46065 1.76331 5.66136 0.502676 8.33308 0Z"></path>
<path fill="#231F20" d="M149.17 24C148.005 23.8868 147.373 24.0854 147.348 22.6711C147.322 21.2042 147.328 19.7411 147.328 18.2743V10.0906L147.328 4.33778C147.329 3.31614 147.262 2.23724 147.37 1.22265C147.401 0.934987 147.482 0.62222 147.722 0.435532C147.905 0.292681 148.217 0.261631 148.442 0.244631C149.844 0.138802 151.303 0.246182 152.711 0.24239C154.041 0.238808 155.537 0.0768884 156.844 0.265535C157.101 0.302629 157.307 0.382697 157.47 0.596041C157.744 0.957638 157.769 1.75587 157.704 2.18184C157.66 2.46913 157.515 2.75947 157.277 2.93221C156.163 3.73758 151.914 2.70318 150.817 3.33694C150.552 3.49014 150.468 3.71988 150.42 4.006C150.27 4.88755 150.163 9.81192 150.535 10.3394C150.696 10.5689 150.968 10.6693 151.234 10.7123C152.063 10.846 153.987 10.3629 154.537 11.1229C154.842 11.5437 154.803 12.3971 154.719 12.8842C154.68 13.1092 154.604 13.3559 154.409 13.4929C153.495 14.1351 151.274 13.2433 150.61 13.9764C150.473 14.1268 150.418 14.4659 150.383 14.6604C150.211 15.6134 150.103 20.0079 150.556 20.6566C150.672 20.8238 151.012 20.9034 151.207 20.9352C152.859 21.2043 156.586 20.3278 157.631 21.7601C157.826 22.0278 157.944 22.3627 157.892 22.6963C157.83 23.0932 157.559 23.3998 157.242 23.6261C156.819 23.9289 156.369 23.9522 155.868 24H149.17Z"></path>
<path fill="#231F20" d="M168.988 24C168.028 23.8041 165.277 24.2232 164.912 23.6039C164.612 23.0974 164.708 18.5002 164.708 17.816L164.711 9.27977L164.714 4.56712C164.714 3.9077 164.623 0.811359 165.026 0.41555C166.38 -0.0375522 172.825 0.295469 174.561 0.33998C174.977 0.350654 175.394 2.11969 175.076 2.49594C173.646 4.19507 169.603 2.37417 167.914 3.57423C167.65 4.66413 167.559 8.81978 167.816 10.0805C168.188 11.9104 173.264 8.89 172.02 13.2419C171.734 14.2404 168.421 13.1932 167.92 14.1004C167.515 15.9642 167.579 18.5652 167.849 20.4657C168.069 21.7991 174.399 20.1262 174.883 21.5324C175.075 22.0907 174.942 22.997 174.885 23.5625C173.556 24.3705 171.946 23.7072 171.096 24H168.988Z"></path>
</g>
<defs>
<clipPath id="clip0_118_2176">
<rect fill="white" height="24" width="194"></rect>
</clipPath>
</defs>
</svg>
