<svg width="110" height="39" viewBox="0 0 110 39" fill="none" xmlns="http://www.w3.org/2000/svg" class="Footer_footer-body-left-top-logo__R1VYd" name="Jinca"><g clip-path="url(#clip0_1600_9324)"><path d="M3.55941 27.9408C3.55941 31.1082 2.84836 32.0744 0.458002 32.0744H0.00152588V37.9001H0.764015C6.86657 37.9001 9.56041 34.6307 9.56041 28.0416V0.614258H3.5607L3.55941 27.9408Z" fill="#14181F"></path><path d="M21.458 0.61084H15.4583V26.151H21.458V0.61084Z" fill="#14181F"></path><path d="M40.9826 0.100588C39.5574 0.0996925 38.1467 0.388932 36.8357 0.950842C35.5248 1.51275 34.3407 2.33569 33.3551 3.36997V0.612141H27.3554V26.151H33.3551V12.3604C33.3551 8.32507 36.0553 5.77261 39.5078 5.77261C42.7108 5.77261 44.9482 7.76444 44.9482 12.0543V26.1523H50.9478V10.7716C50.9478 4.28969 46.8808 0.100588 40.9826 0.100588Z" fill="#14181F"></path><path d="M109.655 13.3823V0.100702H103.656V2.27211C101.075 0.567332 97.9785 -0.169961 94.9104 0.18954C91.8423 0.549042 88.9982 1.98237 86.877 4.23813L73.2291 18.2341C72.4229 19.1293 71.4068 19.808 70.2731 20.2084C69.1395 20.6089 67.9241 20.7184 66.7376 20.527C65.5511 20.3356 64.4309 19.8495 63.479 19.1126C62.5271 18.3758 61.7735 17.4118 61.2868 16.308C60.8 15.2042 60.5955 13.9958 60.6918 12.7924C60.7881 11.5891 61.1823 10.429 61.8384 9.41758C62.4945 8.40615 63.3917 7.57544 64.4487 7.00094C65.5056 6.42644 66.6886 6.12636 67.8904 6.12795C68.8929 6.13196 69.884 6.34254 70.8022 6.7467C71.7205 7.15085 72.5465 7.73996 73.2291 8.47761L77.4492 4.23813C76.2222 2.92887 74.7407 1.88649 73.0965 1.1755C71.4523 0.4645 69.6804 0.10001 67.8904 0.104581C64.3845 0.106292 61.0227 1.50615 58.5436 3.99656C56.0646 6.48697 54.6711 9.86422 54.6694 13.3862C54.6694 20.6897 60.619 26.6665 67.8904 26.6665C69.6804 26.6711 71.4523 26.3066 73.0965 25.5956C74.7407 24.8846 76.2222 23.8422 77.4492 22.533L91.097 8.53702C92.0716 7.44653 93.3529 6.67912 94.7713 6.33641C96.1896 5.9937 97.6781 6.09185 99.0397 6.61787C100.401 7.14389 101.572 8.07296 102.396 9.28207C103.22 10.4912 103.66 11.9233 103.656 13.3888C103.648 15.3101 102.885 17.1506 101.533 18.5092C100.18 19.8678 98.3484 20.6344 96.4358 20.6418C94.3515 20.6418 92.5976 19.6924 91.0353 18.3503L87.3707 14.7722L83.2779 19.1034L86.8782 22.5317C89.0006 24.7847 91.8435 26.2172 94.9103 26.5789C97.977 26.9406 101.073 26.2086 103.657 24.5106V26.66H109.657V13.381L109.655 13.3823Z" fill="#3BC48A"></path></g><path d="M16.8737 31.7923H17.7804V36.7534C17.7804 37.0648 17.7238 37.3276 17.6106 37.5419C17.4994 37.7562 17.3336 37.9189 17.1133 38.0301C16.8949 38.1413 16.625 38.1969 16.3036 38.1969C16.2712 38.1969 16.2409 38.1969 16.2126 38.1969C16.1823 38.1969 16.1509 38.1959 16.1186 38.1939V37.4145C16.1469 37.4145 16.1722 37.4145 16.1944 37.4145C16.2146 37.4145 16.2379 37.4145 16.2642 37.4145C16.4785 37.4145 16.6331 37.3569 16.7281 37.2417C16.8252 37.1285 16.8737 36.9637 16.8737 36.7474V31.7923ZM17.3225 31.0736C17.1648 31.0736 17.0294 31.021 16.9161 30.9159C16.805 30.8087 16.7494 30.6814 16.7494 30.5338C16.7494 30.3842 16.805 30.2568 16.9161 30.1517C17.0294 30.0445 17.1648 29.991 17.3225 29.991C17.4802 29.991 17.6146 30.0445 17.7258 30.1517C17.839 30.2568 17.8956 30.3842 17.8956 30.5338C17.8956 30.6814 17.839 30.8087 17.7258 30.9159C17.6146 31.021 17.4802 31.0736 17.3225 31.0736ZM26.2206 34.5185V31.7923H27.1304V36.4502H26.2388V35.6435H26.1903C26.0832 35.8922 25.9113 36.0994 25.6748 36.2652C25.4403 36.429 25.1481 36.5108 24.7984 36.5108C24.4992 36.5108 24.2343 36.4451 24.0039 36.3137C23.7754 36.1803 23.5955 35.9832 23.4641 35.7224C23.3347 35.4616 23.27 35.1391 23.27 34.755V31.7923H24.1767V34.6459C24.1767 34.9633 24.2647 35.216 24.4405 35.404C24.6164 35.592 24.8449 35.686 25.1259 35.686C25.2957 35.686 25.4645 35.6435 25.6323 35.5586C25.8021 35.4737 25.9426 35.3454 26.0538 35.1735C26.1671 35.0017 26.2226 34.7833 26.2206 34.5185ZM36.1089 32.9295L35.2871 33.075C35.2527 32.9699 35.1981 32.8698 35.1233 32.7748C35.0505 32.6798 34.9515 32.6019 34.8261 32.5413C34.7008 32.4806 34.5441 32.4503 34.3561 32.4503C34.0993 32.4503 33.885 32.5079 33.7132 32.6232C33.5413 32.7364 33.4554 32.883 33.4554 33.0629C33.4554 33.2186 33.513 33.3439 33.6283 33.4389C33.7435 33.5339 33.9295 33.6118 34.1863 33.6724L34.9262 33.8422C35.3548 33.9413 35.6742 34.0939 35.8845 34.3002C36.0947 34.5064 36.1998 34.7742 36.1998 35.1038C36.1998 35.3828 36.119 35.6314 35.9572 35.8498C35.7975 36.0661 35.5741 36.2359 35.2871 36.3592C35.002 36.4825 34.6715 36.5442 34.2954 36.5442C33.7738 36.5442 33.3483 36.433 33.0187 36.2106C32.6892 35.9862 32.487 35.6678 32.4122 35.2554L33.2886 35.122C33.3432 35.3504 33.4554 35.5233 33.6252 35.6405C33.7951 35.7558 34.0164 35.8134 34.2894 35.8134C34.5865 35.8134 34.8241 35.7517 35.002 35.6284C35.1799 35.503 35.2689 35.3504 35.2689 35.1705C35.2689 35.0249 35.2143 34.9026 35.1051 34.8035C34.998 34.7045 34.8332 34.6297 34.6108 34.5791L33.8224 34.4063C33.3877 34.3072 33.0662 34.1495 32.858 33.9332C32.6518 33.7169 32.5487 33.443 32.5487 33.1114C32.5487 32.8365 32.6255 32.5959 32.7792 32.3897C32.9328 32.1835 33.1451 32.0227 33.416 31.9075C33.6869 31.7902 33.9972 31.7316 34.347 31.7316C34.8504 31.7316 35.2466 31.8408 35.5357 32.0591C35.8248 32.2754 36.0159 32.5656 36.1089 32.9295ZM43.6408 31.7923V32.5201H41.0966V31.7923H43.6408ZM41.7789 30.6763H42.6856V35.0825C42.6856 35.2584 42.7119 35.3908 42.7644 35.4798C42.817 35.5667 42.8847 35.6264 42.9676 35.6587C43.0525 35.689 43.1445 35.7042 43.2436 35.7042C43.3164 35.7042 43.38 35.6991 43.4346 35.689C43.4892 35.6789 43.5317 35.6708 43.562 35.6648L43.7257 36.4138C43.6732 36.434 43.5984 36.4542 43.5013 36.4745C43.4043 36.4967 43.283 36.5088 43.1374 36.5108C42.8989 36.5149 42.6765 36.4724 42.4703 36.3835C42.2641 36.2945 42.0973 36.1571 41.9699 35.9711C41.8426 35.7851 41.7789 35.5516 41.7789 35.2706V30.6763Z" fill="#3BC48A"></path><path d="M55.4433 36.4502V31.7923H56.3501V36.4502H55.4433ZM55.9012 31.0736C55.7436 31.0736 55.6081 31.021 55.4949 30.9159C55.3837 30.8087 55.3281 30.6814 55.3281 30.5338C55.3281 30.3842 55.3837 30.2568 55.4949 30.1517C55.6081 30.0445 55.7436 29.991 55.9012 29.991C56.0589 29.991 56.1934 30.0445 56.3046 30.1517C56.4178 30.2568 56.4744 30.3842 56.4744 30.5338C56.4744 30.6814 56.4178 30.8087 56.3046 30.9159C56.1934 31.021 56.0589 31.0736 55.9012 31.0736ZM62.7464 33.6846V36.4502H61.8396V31.7923H62.71V32.5504H62.7676C62.8747 32.3038 63.0425 32.1056 63.271 31.956C63.5015 31.8064 63.7916 31.7316 64.1413 31.7316C64.4587 31.7316 64.7367 31.7983 64.9753 31.9318C65.2138 32.0632 65.3988 32.2593 65.5302 32.5201C65.6616 32.7809 65.7273 33.1033 65.7273 33.4874V36.4502H64.8206V33.5966C64.8206 33.259 64.7327 32.9952 64.5568 32.8051C64.3809 32.6131 64.1393 32.517 63.832 32.517C63.6217 32.517 63.4347 32.5625 63.271 32.6535C63.1093 32.7445 62.9809 32.8779 62.8859 33.0538C62.7929 33.2277 62.7464 33.4379 62.7464 33.6846ZM79.7049 36.5442C79.254 36.5442 78.8659 36.4421 78.5404 36.2379C78.2169 36.0317 77.9683 35.7477 77.7944 35.3858C77.6205 35.0239 77.5336 34.6095 77.5336 34.1425C77.5336 33.6694 77.6226 33.2519 77.8005 32.89C77.9784 32.5261 78.2291 32.2421 78.5525 32.0379C78.876 31.8337 79.2571 31.7316 79.6958 31.7316C80.0496 31.7316 80.365 31.7973 80.6419 31.9287C80.9189 32.0581 81.1423 32.2401 81.3121 32.4746C81.4839 32.7091 81.586 32.983 81.6184 33.2964H80.7359C80.6874 33.0781 80.5762 32.89 80.4024 32.7323C80.2305 32.5747 80 32.4958 79.7109 32.4958C79.4582 32.4958 79.2369 32.5625 79.0468 32.696C78.8588 32.8274 78.7122 33.0154 78.6071 33.26C78.502 33.5026 78.4494 33.7897 78.4494 34.1212C78.4494 34.4609 78.501 34.754 78.6041 35.0007C78.7072 35.2473 78.8527 35.4384 79.0408 35.5738C79.2308 35.7093 79.4542 35.777 79.7109 35.777C79.8828 35.777 80.0385 35.7456 80.1779 35.683C80.3195 35.6183 80.4377 35.5263 80.5328 35.407C80.6298 35.2877 80.6975 35.1442 80.7359 34.9764H81.6184C81.586 35.2776 81.488 35.5465 81.3242 35.783C81.1605 36.0196 80.9411 36.2056 80.6662 36.341C80.3933 36.4765 80.0728 36.5442 79.7049 36.5442ZM88.2133 36.5533C87.9182 36.5533 87.6513 36.4987 87.4127 36.3895C87.1742 36.2784 86.9852 36.1176 86.8457 35.9074C86.7082 35.6971 86.6395 35.4394 86.6395 35.1341C86.6395 34.8713 86.69 34.655 86.7911 34.4851C86.8922 34.3153 87.0286 34.1809 87.2005 34.0818C87.3723 33.9827 87.5644 33.9079 87.7766 33.8574C87.9889 33.8069 88.2052 33.7685 88.4256 33.7422C88.7046 33.7098 88.931 33.6835 89.1049 33.6633C89.2787 33.6411 89.4051 33.6057 89.4839 33.5572C89.5628 33.5087 89.6022 33.4298 89.6022 33.3207V33.2994C89.6022 33.0346 89.5274 32.8294 89.3778 32.6838C89.2302 32.5383 89.0099 32.4655 88.7167 32.4655C88.4114 32.4655 88.1709 32.5332 87.995 32.6687C87.8211 32.8021 87.7008 32.9507 87.6341 33.1144L86.782 32.9204C86.8831 32.6373 87.0306 32.4089 87.2247 32.235C87.4208 32.0591 87.6462 31.9318 87.901 31.8529C88.1557 31.7721 88.4236 31.7316 88.7046 31.7316C88.8906 31.7316 89.0877 31.7539 89.2959 31.7983C89.5062 31.8408 89.7023 31.9196 89.8842 32.0349C90.0682 32.1501 90.2188 32.3149 90.3361 32.5292C90.4533 32.7414 90.512 33.0174 90.512 33.357V36.4502H89.6265V35.8134H89.5901C89.5315 35.9306 89.4435 36.0459 89.3263 36.1591C89.209 36.2723 89.0584 36.3663 88.8744 36.4411C88.6904 36.5159 88.4701 36.5533 88.2133 36.5533ZM88.4104 35.8255C88.6611 35.8255 88.8754 35.776 89.0533 35.6769C89.2333 35.5778 89.3697 35.4485 89.4627 35.2887C89.5577 35.127 89.6052 34.9542 89.6052 34.7702V34.1698C89.5729 34.2021 89.5102 34.2324 89.4172 34.2607C89.3263 34.287 89.2221 34.3103 89.1049 34.3305C88.9876 34.3487 88.8734 34.3659 88.7622 34.382C88.651 34.3962 88.558 34.4083 88.4832 34.4184C88.3073 34.4407 88.1466 34.4781 88.001 34.5306C87.8575 34.5832 87.7423 34.659 87.6553 34.7581C87.5704 34.8551 87.528 34.9845 87.528 35.1462C87.528 35.3706 87.6109 35.5404 87.7766 35.6557C87.9424 35.7689 88.1537 35.8255 88.4104 35.8255ZM99.4798 32.9295L98.658 33.075C98.6236 32.9699 98.5691 32.8698 98.4943 32.7748C98.4215 32.6798 98.3224 32.6019 98.1971 32.5413C98.0717 32.4806 97.9151 32.4503 97.727 32.4503C97.4703 32.4503 97.256 32.5079 97.0841 32.6232C96.9123 32.7364 96.8264 32.883 96.8264 33.0629C96.8264 33.2186 96.884 33.3439 96.9992 33.4389C97.1145 33.5339 97.3005 33.6118 97.5572 33.6724L98.2972 33.8422C98.7257 33.9413 99.0452 34.0939 99.2554 34.3002C99.4657 34.5064 99.5708 34.7742 99.5708 35.1038C99.5708 35.3828 99.4899 35.6314 99.3282 35.8498C99.1685 36.0661 98.9451 36.2359 98.658 36.3592C98.373 36.4825 98.0424 36.5442 97.6664 36.5442C97.1448 36.5442 96.7192 36.433 96.3897 36.2106C96.0602 35.9862 95.858 35.6678 95.7832 35.2554L96.6596 35.122C96.7142 35.3504 96.8264 35.5233 96.9962 35.6405C97.166 35.7558 97.3874 35.8134 97.6603 35.8134C97.9575 35.8134 98.1951 35.7517 98.373 35.6284C98.5509 35.503 98.6398 35.3504 98.6398 35.1705C98.6398 35.0249 98.5852 34.9026 98.4761 34.8035C98.3689 34.7045 98.2042 34.6297 97.9818 34.5791L97.1933 34.4063C96.7587 34.3072 96.4372 34.1495 96.229 33.9332C96.0228 33.7169 95.9197 33.443 95.9197 33.1114C95.9197 32.8365 95.9965 32.5959 96.1501 32.3897C96.3038 32.1835 96.5161 32.0227 96.787 31.9075C97.0579 31.7902 97.3682 31.7316 97.7179 31.7316C98.2213 31.7316 98.6176 31.8408 98.9067 32.0591C99.1958 32.2754 99.3868 32.5656 99.4798 32.9295ZM106.845 36.5442C106.386 36.5442 105.991 36.4462 105.659 36.2501C105.33 36.0519 105.075 35.7739 104.895 35.4161C104.717 35.0563 104.628 34.6347 104.628 34.1516C104.628 33.6744 104.717 33.2539 104.895 32.89C105.075 32.5261 105.326 32.2421 105.647 32.0379C105.971 31.8337 106.349 31.7316 106.781 31.7316C107.044 31.7316 107.299 31.7751 107.546 31.862C107.792 31.949 108.014 32.0854 108.21 32.2714C108.406 32.4574 108.56 32.699 108.674 32.9962C108.787 33.2913 108.843 33.6502 108.843 34.0727V34.3942H105.141V33.7149H107.955C107.955 33.4763 107.906 33.2651 107.809 33.0811C107.712 32.8951 107.576 32.7485 107.4 32.6414C107.226 32.5342 107.022 32.4806 106.787 32.4806C106.533 32.4806 106.31 32.5433 106.12 32.6687C105.932 32.792 105.787 32.9537 105.684 33.1539C105.582 33.352 105.532 33.5673 105.532 33.7998V34.3305C105.532 34.6418 105.587 34.9067 105.696 35.125C105.807 35.3433 105.962 35.5101 106.16 35.6254C106.358 35.7386 106.589 35.7952 106.854 35.7952C107.026 35.7952 107.183 35.7709 107.324 35.7224C107.466 35.6719 107.588 35.5971 107.691 35.498C107.794 35.3989 107.873 35.2766 107.928 35.1311L108.786 35.2857C108.717 35.5384 108.594 35.7598 108.416 35.9498C108.24 36.1378 108.019 36.2844 107.752 36.3895C107.487 36.4927 107.185 36.5442 106.845 36.5442Z" fill="#14181F"></path><defs><clipPath id="clip0_1600_9324"><rect width="109.569" height="37.7987" fill="white" transform="translate(0 0.100586)"></rect></clipPath></defs></svg>