<svg xmlns="http://www.w3.org/2000/svg" viewBox="0 0 512 512" width="512" height="512" preserveAspectRatio="xMidYMid meet"><defs><style>.cls-1 { fill: #ffffff; }</style></defs><path d="M486.05,0c13.29,3.65,22.3,12.65,25.95,25.95v459.1c-3.95,14.06-14.35,24.69-29.41,25.99H30.4c-15.7-1.35-28.1-13.75-29.44-29.44V29.41C2.25,14.35,12.88,3.95,26.95,0h459.1ZM68.87,89.82h-15.97v288.44h15.97v-50.9l48.41,50.9h22.46l-49.83-52.53,44.84-44.28h-22.46l-43.42,41.92v-118.77l47.41,49.9h23.45l-49.83-51.54,44.84-44.28h-22.46l-43.42,41.92v-110.78Z"></path><polygon class="cls-1" points="68.87 89.82 68.87 200.61 112.28 158.69 134.74 158.69 89.9 202.97 139.73 254.5 116.27 254.5 68.87 204.6 68.87 323.37 112.28 281.45 134.74 281.45 89.9 325.73 139.73 378.26 117.27 378.26 68.87 327.36 68.87 378.26 52.9 378.26 52.9 89.82 68.87 89.82"></polygon><path class="cls-1" d="M387.24,158.69v12.97s15.29-11.16,15.29-11.16c45.89-20.53,87.76,27.83,64.74,71.73-13.99,26.68-52.91,34.49-74.58,12.33-2-2.04-2.63-6.26-5.45-6.03v62.88h-15.97v-142.72h15.97ZM416.97,170.95c-41.76,5.07-38.21,74.65,7.69,71.55s40.8-77.44-7.69-71.55Z"></path><path class="cls-1" d="M241.53,211.59h-77.85c1.74,27.02,30.77,39.77,53.02,24.58,3.55-2.42,5.65-5.75,9.36-7.65l11.44,9.45c-23.84,30.94-79.16,24.71-89.3-15.4-20.12-79.57,99.14-93.68,93.32-10.99Z"></path><path class="cls-1" d="M223.56,197.61c-.6-37.19-56.64-34.89-59.88,0h59.88Z"></path><path class="cls-1" d="M241.53,334.35h-77.85c1.4,25.95,28.53,38.87,50.84,26.38,4.64-2.6,7.01-7.02,11.54-9.46l11.44,9.45c-24.39,31.51-79.67,24.76-89.5-16.19-18.96-78.99,99.39-92.19,93.53-10.19Z"></path><path class="cls-1" d="M223.56,320.37c-.51-36.83-56.74-34.84-59.88,0h59.88Z"></path><path class="cls-1" d="M351.31,211.59h-77.85c3.16,23.43,23.18,36.63,46.14,28.67,5.31-1.84,13.75-7.42,15.76-12.7l11.8,9.63c-13.03,23.19-51.31,26.13-71.62,10.75-43.98-33.32-7.82-111.84,49.5-88.42,12.33,5.04,26.27,22.01,26.27,35.61v16.47Z"></path><path class="cls-1" d="M334.35,197.61c-1.28-36.7-57.56-35.51-59.88,0h59.88Z"></path><path class="cls-1" d="M266.98,281.45l31.43,74.85,28.46-74.85h16.47l-.96,4.53c-16.08,36.98-28.46,76.32-44.46,113.23-9.87,22.75-18.89,33.41-46.26,25.83l.87-13.84c26.32,7.76,29.86-14.13,35.9-33.37l-38.9-96.38h17.47Z"></path><path d="M416.97,170.95c48.49-5.88,52.48,68.53,7.69,71.55s-49.45-66.49-7.69-71.55Z"></path><path d="M223.56,197.61h-59.88c3.25-34.89,59.29-37.19,59.88,0Z"></path><path d="M223.56,320.37h-59.88c3.14-34.84,59.37-36.83,59.88,0Z"></path><path d="M334.35,197.61h-59.88c2.32-35.51,58.6-36.7,59.88,0Z"></path></svg>