<svg class="keycard-logo" xmlns="http://www.w3.org/2000/svg" width="95" height="40" fill="none" viewBox="0 0 95 40"><g clip-path="url(#kc-clip)" fill="#111111"><path d="M25.771 34.206c-1.415 0-2.627-.302-3.638-.908a6.487 6.487 0 0 1-2.425-2.522c-.607-1.11-.81-2.321-.81-3.835 0-1.412.304-2.724.81-3.834a5.878 5.878 0 0 1 2.324-2.623 6.989 6.989 0 0 1 3.638-1.01c1.213 0 2.325.303 3.234.808 1.01.504 1.718 1.312 2.325 2.32.606 1.01.808 2.321.808 3.835v1.513h-9.6c.1 1.01.504 1.918 1.01 2.523.606.605 1.314.908 2.425.908.809 0 1.516-.202 1.92-.605.405-.404.708-.808.91-1.413l3.234.908c-.202.605-.505 1.312-1.01 1.917a5.317 5.317 0 0 1-2.022 1.514c-.91.303-1.92.504-3.133.504Zm-.202-11.704c-.808 0-1.516.302-2.021.807-.505.504-.91 1.21-1.112 2.22h6.165c0-.807-.303-1.514-.808-2.12-.607-.605-1.314-.907-2.224-.907ZM36.989 34.61l.303-.707-5.154-14.127h3.74l3.132 9.384h.202l3.133-9.384h3.74L40.02 36.123c-.203.504-.506 1.11-.91 1.614-.404.505-.91 1.01-1.516 1.312-.606.303-1.415.504-2.324.504-.405 0-.708 0-1.112-.1-.404-.102-.606-.202-.91-.303l.809-2.825c.91.201 1.516.201 1.92-.102.303-.201.708-.807 1.01-1.614ZM58.717 24.317l-3.335.505c-.202-.707-.505-1.211-.91-1.615-.404-.404-1.01-.605-1.819-.605-1.111 0-1.819.403-2.425 1.21-.505.808-.809 1.817-.809 3.128 0 1.312.304 2.422.81 3.23.504.807 1.313 1.21 2.425 1.21.707 0 1.313-.202 1.718-.605.404-.404.808-.908.91-1.514l3.334.505c-.303 1.312-1.01 2.422-2.021 3.33a6.68 6.68 0 0 1-4.042 1.311c-1.415 0-2.527-.302-3.538-.908-1.01-.605-1.718-1.513-2.324-2.623a9.284 9.284 0 0 1-.809-3.835c0-1.412.303-2.724.809-3.834.505-1.11 1.314-1.917 2.324-2.523 1.01-.605 2.123-.908 3.538-.908 1.617 0 2.93.404 4.042 1.312 1.213.606 1.92 1.816 2.122 3.229ZM68.118 34.004v-1.615h-.203c-.202.404-.606.908-1.213 1.312-.606.404-1.414.605-2.425.605-.809 0-1.617-.201-2.325-.504-.707-.303-1.212-.807-1.718-1.413-.404-.605-.606-1.412-.606-2.32 0-1.413.505-2.422 1.516-3.128 1.01-.707 2.425-1.11 4.245-1.312.404 0 .808-.101 1.212-.101.404 0 .708-.101 1.01-.202.203-.1.405-.303.405-.505v-.201c0-.606-.202-1.11-.606-1.514a2.484 2.484 0 0 0-1.516-.504c-.708 0-1.213.201-1.718.504-.506.303-.708.706-.91 1.211l-3.335-.505c.303-1.311 1.01-2.32 2.122-3.027 1.113-.706 2.426-1.009 3.942-1.009.91 0 1.82.202 2.729.505.808.303 1.516.807 2.122 1.513.505.707.808 1.716.808 2.826v9.585h-3.536v-.201Zm-.203-4.743v-1.917c-.1.101-.303.202-.505.303-.303.1-.607.1-.91.202-.303.1-.606.1-.808.1-.809.101-1.516.303-1.92.606-.404.303-.606.807-.606 1.413 0 .504.202.908.504 1.21.405.303.81.404 1.415.404.809 0 1.415-.202 2.022-.706.606-.505.808-1.01.808-1.615ZM82.569 20.08l-1.112 3.128c-.101-.101-.303-.101-.505-.202-.203-.101-.506-.101-.81-.101-.606 0-1.11.1-1.515.403-.404.303-.808.707-1.01 1.11-.203.505-.405 1.01-.405 1.514v8.072h-3.638V19.777h3.537v2.018h.202c.202-.706.606-1.312 1.213-1.614a3.647 3.647 0 0 1 2.02-.606c.405 0 .709 0 1.113.101s.707.202.91.404ZM95 34.004h-3.537v-1.715h-.202c-.202.504-.606.908-1.213 1.311-.606.404-1.314.606-2.325.606a5.18 5.18 0 0 1-2.83-.808 6.398 6.398 0 0 1-2.02-2.522c-.506-1.11-.708-2.422-.708-4.036 0-1.615.303-2.926.808-4.036.506-1.11 1.213-1.917 2.022-2.422.91-.505 1.819-.807 2.83-.807.909 0 1.718.202 2.324.605.607.404 1.01.808 1.213 1.312h.1v-6.458H95v18.97Zm-9.5-7.164c0 1.312.303 2.422.809 3.229.505.807 1.313 1.21 2.425 1.21.708 0 1.314-.201 1.82-.605.404-.404.808-.908 1.01-1.614a7.859 7.859 0 0 0 .303-2.22c0-1.211-.202-2.321-.707-3.128-.505-.807-1.213-1.211-2.325-1.211s-1.819.404-2.425 1.21c-.606.808-.91 1.817-.91 3.129Z"></path><path d="m15.564 34.005-4.043-5.853-1.212 1.413v4.44H6.67V13.52h3.639v11.503h.202l4.447-5.247h4.244l-5.255 6.055 5.559 8.173h-3.942Z"></path><path d="M8.388 16.85C3.74 16.85 0 13.017 0 8.376A8.361 8.361 0 0 1 8.388 0a8.361 8.361 0 0 1 8.389 8.375c.1 4.642-3.74 8.476-8.389 8.476Zm0-13.52c-2.83 0-5.053 2.32-5.053 5.045 0 2.825 2.325 5.045 5.053 5.045 2.83 0 5.053-2.32 5.053-5.045.101-2.724-2.223-5.045-5.053-5.045Z"></path></g><defs><clipPath id="kc-clip"><path fill="#fff" d="M0 0h95v40H0z"></path></clipPath></defs></svg>
