<svg width="124" height="48" viewBox="0 0 124 48" fill="none" xmlns="http://www.w3.org/2000/svg">
<path d="M11.1236 33.8511V18.2948C11.1236 18.2948 12.5211 17.5999 15.1918 17.5999C17.8624 17.5999 19.0524 18.5926 19.0524 21.3862V33.8511H22.8854V21.3862C22.8854 20.1241 22.8854 19.1598 22.8716 18.4224C23.4804 18.082 24.6704 17.5999 26.6354 17.5999C29.6796 17.5999 30.8143 18.5926 30.8143 21.3862V33.8511H34.9517V21.3862C34.9517 19.5001 34.5642 17.529 33.1805 16.0967C31.7829 14.6645 29.7903 13.7144 26.6769 13.7144C23.8817 13.7144 21.4186 14.6928 20.9343 14.9055C19.3707 14.154 17.1705 13.7144 15.2195 13.7144C11.428 13.7144 7 14.9481 7 14.9481V33.8511H11.1236Z" fill="#3970DB"/>
<path d="M62.2121 13.7144V31.4245V32.6174C62.2121 32.6174 61.7388 32.7475 60.9502 32.9231C59.31 33.2885 56.306 33.8511 53.359 33.8511C50.2041 33.8511 47.6885 32.8868 46.2848 31.4687C44.8811 30.0365 44.5058 28.0653 44.5058 26.1793V13.7144H48.6614V26.1651C48.6614 28.9587 50.3292 29.9514 53.3868 29.9514C56.4444 29.9514 58.0705 29.2565 58.0705 29.2565V13.7144H62.2121Z" fill="#3970DB"/>
<path d="M89.4791 13.7144V32.6174C89.4791 32.6174 84.99 33.8511 80.626 33.8511C77.4711 33.8511 74.9555 32.8868 73.5518 31.4687C72.1481 30.0365 71.7729 28.0653 71.7729 26.1793V13.7144H75.9284V26.1651C75.9284 28.9587 77.5962 29.9514 80.6538 29.9514C83.7114 29.9514 85.3375 29.2565 85.3375 29.2565V13.7144H89.4791Z" fill="#3970DB"/>
<path d="M99.008 33.8511V14.9481C99.008 14.9481 103.497 13.7144 107.861 13.7144C111.016 13.7144 113.532 14.6787 114.935 16.0967C116.339 17.529 116.714 19.5001 116.714 21.3862V33.8511H112.559V21.4004C112.559 18.6067 110.891 17.6141 107.833 17.6141C104.776 17.6141 103.15 18.3089 103.15 18.3089V33.8511H99.008Z" fill="#3970DB"/>
</svg>
