<svg width="103" height="21" viewBox="0 0 103 21" fill="none" xmlns="http://www.w3.org/2000/svg"><path d="M36.7629 16.414L30.9697 7.08353H30.8954V16.414H28.3413V3.40234H31.4879L37.2071 12.5688H37.2811V3.40234H39.8352V16.414H36.7629Z" fill="#fff"></path> <path d="M52.2225 16.2515V14.7207C51.766 15.316 51.1984 15.7716 50.5196 16.0875C49.841 16.3912 49.0513 16.5431 48.1505 16.5431C46.892 16.5431 45.769 16.2636 44.7819 15.7048C43.7948 15.1459 43.0237 14.3562 42.4685 13.3357C41.9254 12.303 41.6541 11.1003 41.6541 9.72743C41.6541 8.35458 41.9254 7.15791 42.4685 6.13739C43.0237 5.11686 43.7948 4.33323 44.7819 3.78652C45.769 3.22768 46.892 2.94824 48.1505 2.94824C49.619 2.94824 50.8775 3.31271 51.9263 4.04166C52.9876 4.77061 53.7278 5.75467 54.1474 6.99389L51.3526 7.32192C51.0689 6.62941 50.6555 6.09486 50.1126 5.71824C49.5818 5.34161 48.9279 5.1533 48.1505 5.1533C47.04 5.1533 46.1516 5.54815 45.4854 6.33784C44.8189 7.12752 44.4859 8.25739 44.4859 9.72743C44.4859 11.2218 44.8189 12.3638 45.4854 13.1535C46.1516 13.9432 47.04 14.338 48.1505 14.338C49.0883 14.338 49.8657 14.0707 50.4826 13.5362C51.1121 13.0016 51.4944 12.3152 51.6303 11.4769H48.3727V9.41763H54.2029V16.2515H52.2225Z" fill="#fff"></path> <path d="M61.7634 11.6577H59.0798V16.414H56.3035V3.40234H62.7629C64.2682 3.40234 65.4406 3.7729 66.2797 4.51399C67.1186 5.24294 67.5381 6.24523 67.5381 7.52089C67.5381 8.49281 67.2915 9.31895 66.7979 9.99931C66.3167 10.6675 65.6194 11.1352 64.7063 11.4025L67.8344 16.414H64.5953L61.7634 11.6577ZM62.3372 9.48904C63.1146 9.48904 63.7068 9.31895 64.1141 8.97879C64.5213 8.6386 64.7248 8.15265 64.7248 7.52089C64.7248 6.90129 64.5213 6.4214 64.1141 6.08121C63.7068 5.74105 63.1146 5.57097 62.3372 5.57097H59.0798V9.48904H62.3372Z" fill="#fff"></path> <path d="M71.9738 13.316L70.8816 16.414H67.9387L72.862 3.40234H76.5268L81.4685 16.414H78.4702L77.3782 13.316H71.9738ZM74.6944 5.73498H74.6204L72.6955 11.2385H76.6378L74.6944 5.73498Z" fill="#fff"></path> <path d="M87.2877 16.414H84.0486L79.2363 3.40234H82.2162L85.659 13.4982H85.733L89.1571 3.40234H92.0999L87.2877 16.414Z" fill="#fff"></path> <path d="M102.667 8.68719V10.7829H96.1335V14.1725H103V16.414H93.3572V3.40234H103V5.57097H96.1335V8.68719H102.667Z" fill="#fff"></path> <path fill-rule="evenodd" clip-rule="evenodd" d="M18.0658 0.0500488L14.4041 3.1061L10.7422 6.16413L11.6386 12.8818L12.6955 20.05L19.2496 12.8818L25.3911 6.30006L21.7274 3.1061L18.0658 0.0500488Z" fill="url(#paint0_linear_2276_4670)"></path> <path fill-rule="evenodd" clip-rule="evenodd" d="M7.32437 0.0500488L3.66236 3.1061L0 6.16413L6.14029 12.8818L12.6956 20.05L13.7522 12.8818L14.6488 6.16413L10.9866 3.1061L7.32437 0.0500488Z" fill="url(#paint1_linear_2276_4670)"></path> <path fill-rule="evenodd" clip-rule="evenodd" d="M12.8583 0.0500488L9.19613 3.1061L5.53394 6.16413L9.19613 12.8818L12.6957 20.05L16.5205 12.8818L20.1826 6.16413L16.5205 3.1061L12.8583 0.0500488Z" fill="url(#paint2_linear_2276_4670)"></path> <defs>  <linearGradient id="paint0_linear_2276_4670" x1="10.7422" y1="0.0500488" x2="10.7422" y2="19.6013" gradientUnits="userSpaceOnUse"> <stop stop-color="#2E65A0"></stop> <stop offset="1" stop-color="#EED782"></stop>  </linearGradient>  <linearGradient id="paint1_linear_2276_4670" x1="0" y1="0.0500488" x2="0" y2="19.6013" gradientUnits="userSpaceOnUse"> <stop stop-color="#2E65A0"></stop> <stop offset="1" stop-color="#F9E7A5"></stop>  </linearGradient>  <linearGradient id="paint2_linear_2276_4670" x1="5.53394" y1="0.0500488" x2="5.53394" y2="19.6013" gradientUnits="userSpaceOnUse"> <stop stop-color="#010408"></stop> <stop offset="1" stop-color="#EED782"></stop>  </linearGradient> </defs></svg>