<?xml version="1.0" encoding="UTF-8"?> <svg xmlns="http://www.w3.org/2000/svg" id="Calque_2" viewBox="0 0 308.34 112.63"><defs><style>.cls-1{fill:#3c9ad1;}.cls-1,.cls-2{fill-rule:evenodd;}.cls-2{fill:#141414;}</style></defs><g id="svg"><path id="nodl" class="cls-2" d="M275.13,46.73l.04,18-.42-.73c-.23-.4-.42-.75-.42-.78,0-.26-1.82-2.55-2.84-3.58-2.17-2.19-6.33-4.59-8.49-4.92-.23-.03-.97-.21-1.64-.39-.67-.18-1.33-.29-1.46-.24-.13,.05-.36,.03-.52-.03-.16-.07-.57-.11-.91-.09-.34,.02-.7-.02-.8-.08-.27-.17-3.16-.19-3.16-.02,0,.08-.32,.12-.71,.1-.39-.02-.84,.02-1,.09-.16,.07-.4,.08-.54,.03-.76-.29-6.41,1.61-8.59,2.89-3.86,2.28-7.93,6.65-9.19,9.88-.1,.25-.25,.42-.33,.36-.08-.05-.14-.03-.12,.04,.05,.22-.22,1.1-.53,1.72-.35,.7-1.15,3-1.27,3.63-.04,.25-.22,.96-.4,1.59-.17,.62-.27,1.24-.23,1.36,.05,.12,.02,.27-.07,.32-.09,.05-.12,.29-.08,.52,.05,.23,.02,.42-.06,.42s-.15,.24-.15,.54c0,.3-.1,1.71-.22,3.14-.2,2.55-.2,2.76,.23,7.98,.03,.32,.1,.71,.16,.87,.06,.16,.07,.36,.01,.45-.06,.09-.02,.21,.08,.27,.1,.06,.14,.21,.1,.32-.09,.24,.7,3.4,1.29,5.17,1.86,5.54,5.61,10.48,10.18,13.44,1.2,.77,4.28,2.31,4.63,2.31,.11,0,.61,.16,1.11,.35,.5,.19,1.12,.35,1.38,.36,.26,0,.47,.08,.47,.16s.06,.11,.14,.07c.08-.05,.73,.02,1.46,.15,1.72,.31,5.93,.31,7.64,0,.73-.13,1.38-.2,1.45-.16,.07,.04,.17,0,.23-.1,.06-.09,.16-.14,.23-.09,.07,.04,.83-.15,1.69-.43,5.16-1.66,9.24-5.01,11.37-9.31l.37-.75,.04,5.21,.04,5.21h8.99V28.82l-4.62-.05-4.62-.05,.04,18m24.04,23.67v41.58h9.17V28.81h-9.17v41.58m-162.95-16.52c-.05,.08-.42,.11-.82,.06-.4-.05-.77-.02-.81,.05-.05,.08-.36,.13-.71,.13-.34,0-.94,.08-1.33,.18s-.79,.15-.88,.09c-.09-.05-.16-.03-.16,.06s-.36,.24-.79,.34c-4.44,.97-9.46,4.86-11.84,9.18-.6,1.08-.69,1.19-.77,.83-.2-.91-.46-3.99-.35-4.15,.06-.1,.03-.28-.07-.41-.1-.12-.18-.51-.18-.87,.01-.87-.13-3.02-.25-3.68l-.1-.54h-4.22c-4.93,0-4.49-.24-4.16,2.26,.23,1.74,.42,4.13,.5,6.24,.02,.69,.04,11.84,.05,24.79v23.54h9.19v-16.8c0-11.29,.06-17.26,.18-18.21,.1-.78,.18-1.62,.18-1.87,0-.25,.07-.46,.16-.46s.13-.06,.08-.14c-.22-.36,1.21-4.33,1.47-4.07,.06,.06,.06-.02,0-.2-.09-.24-.07-.28,.1-.18,.15,.09,.18,.07,.1-.06-.15-.24,1.15-2.22,2.26-3.43,1.74-1.9,5.03-3.93,7.01-4.32,.21-.04,.85-.2,1.43-.35,.58-.15,1.16-.23,1.29-.18,.13,.05,.24,.02,.24-.07s.36-.16,.79-.17c.43,0,1.39-.01,2.12-.02,2.19-.02,2.73,.02,2.84,.19,.06,.09,.17,.12,.25,.07,.54-.33,4.06,1,5.51,2.08,1.73,1.29,3.67,4.56,3.92,6.59,.02,.18,.17,1.01,.32,1.83,.16,.82,.24,1.74,.19,2.04-.05,.3-.02,.59,.07,.64,.1,.06,.16,7.31,.16,18.59v18.49h9.17l-.08-18.62c-.04-10.24-.12-19.11-.17-19.71-.05-.6-.13-1.48-.16-1.96-.04-.48-.15-1.29-.26-1.79-.1-.5-.14-.99-.09-1.08,.06-.09,.02-.17-.09-.17s-.15-.11-.1-.25c.05-.14,.03-.25-.04-.25s-.14-.17-.14-.38c0-1.86-2.44-6.49-4.52-8.59-2.86-2.89-7.42-5.05-10.64-5.05-.39,0-.75-.06-.79-.14-.05-.08-.38-.1-.74-.05-.36,.05-.79,.03-.96-.03-.44-.17-3.23-.2-3.34-.03m58.23-.02c-.1,.07-.49,.11-.87,.09-.37-.02-.75,0-.83,.06s-.46,.09-.83,.09c-.78,0-3.43,.59-4.75,1.06-.51,.18-1.03,.35-1.17,.38-3.12,.75-8.56,4.9-11.16,8.51-2.07,2.89-4.72,9.06-4.72,11.02,0,.22-.07,.44-.15,.49-.08,.05-.11,.15-.07,.22,.04,.07-.03,.73-.17,1.45-.57,2.97-.56,8.96,.01,12.01,.15,.81,.3,1.7,.32,1.97,.11,1.35,1.2,4.51,2.53,7.36,.48,1.02,.84,1.91,.8,1.96-.04,.05-.02,.06,.04,.02,.06-.04,.51,.53,1,1.26,1.46,2.15,3.87,4.7,5.56,5.85,.23,.16,.75,.52,1.17,.82,1.89,1.33,7.24,3.52,8.62,3.52,.21,0,.42,.06,.47,.13,.04,.07,.23,.09,.41,.04,.18-.05,.33-.02,.33,.06,0,.17,.07,.17,4.14,.32,2.18,.08,3.5,.05,4.58-.1,.84-.12,1.71-.24,1.94-.26,.23-.02,.42-.05,.42-.07s.21-.06,.46-.09c2.95-.35,7.91-2.79,11.08-5.45,2.95-2.48,6.7-8,7.29-10.75,.07-.32,.19-.5,.3-.43,.1,.06,.14,.04,.08-.04-.09-.15,.03-.68,.68-3.01,.19-.66,.29-1.24,.24-1.29-.05-.05,0-.19,.1-.32s.15-.26,.11-.31c-.04-.04,.04-.71,.18-1.49,.43-2.3,.5-7.47,.15-10.15-.16-1.24-.32-2.44-.34-2.67-.02-.23-.06-.45-.08-.5-.02-.05-.03-.13-.02-.19,0-.06-.14-.62-.32-1.25s-.37-1.37-.42-1.64c-.05-.27-.22-.8-.39-1.17-.16-.37-.35-.89-.42-1.15-.24-.97-2-4.32-3.04-5.79-2.08-2.94-4.04-4.81-7.16-6.84-.73-.48-3.82-1.97-4.23-2.06-.14-.03-.65-.21-1.14-.4-.49-.19-1.16-.39-1.5-.43s-.64-.15-.67-.25-.12-.13-.19-.09c-.08,.05-.64-.02-1.26-.15-.62-.13-1.22-.2-1.35-.15-.12,.05-.36,.03-.52-.04-.16-.07-.61-.11-1-.09-.39,.02-.79-.02-.89-.08-.26-.16-3.14-.19-3.38-.03m3.76,7.62c.34,0,.66,.07,.71,.16,.05,.09,.19,.12,.31,.07,.28-.11,2.62,.46,3.76,.92,2.8,1.12,5.49,3.39,7.21,6.1,.55,.86,1.98,3.87,1.98,4.15,0,.12,.12,.5,.26,.84,.14,.34,.29,.86,.33,1.15,.04,.29,.19,1.04,.33,1.67,.14,.63,.22,1.24,.18,1.37-.05,.12-.02,.23,.05,.23,.34,0,.34,10.22,0,10.42-.06,.04-.08,.26-.03,.49,.05,.26,0,.42-.12,.42-.11,0-.15,.08-.09,.17,.06,.1,.01,.57-.1,1.04-.12,.48-.2,1-.19,1.16,.01,.16-.05,.29-.15,.29s-.12,.07-.07,.15c.05,.08-.03,.48-.17,.88-.14,.4-.29,.84-.32,.99-.92,4.37-6.62,9.84-10.84,10.42-.18,.02-.33,.06-.33,.08,0,.02-.2,.06-.44,.09-.25,.03-.88,.13-1.41,.23-1.33,.24-4.74,.21-6.15-.06-.64-.12-1.22-.2-1.28-.16-.06,.04-.16,0-.22-.1-.06-.09-.17-.13-.24-.09-.35,.22-3.59-1.16-5.01-2.13-2.96-2.02-6.01-6.64-6.59-10-.05-.29-.2-.95-.34-1.48-.13-.52-.23-1.01-.22-1.08,.01-.07,0-.17-.01-.22-.02-.05-.06-.38-.09-.75-.03-.37-.13-1.34-.23-2.17-.23-1.93-.23-4.92,0-6.83,.1-.82,.18-1.78,.19-2.13,0-.35,.07-.67,.15-.72,.08-.05,.1-.16,.05-.25-.05-.09,.02-.55,.15-1.03,.14-.48,.29-1.1,.34-1.39,.24-1.37,2.17-5.64,2.47-5.46,.1,.06,.13,.03,.07-.07-.24-.39,2.33-3.34,3.81-4.37,1.58-1.1,3.42-2.02,4.52-2.25,.17-.04,.78-.19,1.36-.34,.58-.15,1.16-.23,1.29-.18,.13,.05,.24,0,.24-.09,0-.12,.22-.15,.62-.08,.34,.05,.74,.02,.88-.07,.14-.09,.79-.13,1.5-.08,.69,.05,1.53,.09,1.87,.09m61.75,0c.38,0,.74,.08,.8,.17,.06,.09,.17,.13,.25,.08,.21-.13,2.45,.39,3.29,.77,.39,.18,.81,.32,.92,.32,.4,0,2.95,1.69,3.97,2.63,2.25,2.07,4.53,6.09,5.06,8.9,.04,.21,.19,.85,.33,1.42,.14,.57,.21,1.12,.16,1.21-.06,.09-.02,.16,.08,.16s.17,.21,.16,.46c-.01,.25,.08,1.64,.2,3.08,.18,2.17,.18,3.07,0,5.17-.12,1.4-.21,2.74-.2,2.99,0,.25-.05,.49-.13,.54-.08,.05-.11,.24-.06,.42,.05,.19,0,.33-.11,.33-.11,0-.15,.07-.1,.16,.05,.09,.01,.48-.09,.88-.11,.39-.21,.86-.23,1.05-.62,5.32-6.91,11.87-12.01,12.5-.37,.05-1.07,.16-1.57,.25-1.15,.21-4.38,.21-5.46,0-.46-.09-1.17-.2-1.58-.25-5.45-.65-11.45-6.99-12.55-13.25-.05-.28-.21-1.01-.35-1.61-.14-.61-.22-1.21-.17-1.33s.03-.23-.04-.23c-.37,0-.36-10.21,.01-10.44,.07-.04,.09-.16,.03-.25-.05-.09,.03-.74,.2-1.45,.16-.71,.28-1.38,.26-1.49-.02-.12,.04-.21,.15-.21s.14-.06,.1-.14c-.05-.08,.12-.73,.38-1.46,1.79-5.05,4.79-8.34,9.39-10.29,.85-.36,3.59-.99,3.79-.87,.09,.05,.21,.01,.27-.09,.07-.11,.33-.14,.64-.09,.29,.05,.63,.02,.77-.07,.14-.1,.78-.13,1.5-.08,.69,.05,1.56,.09,1.95,.09"></path><g id="Bol"><path class="cls-2" d="M88.74,.54c-.33,.46-.89,1.3-1.61,2.44-.53,.83-1.17,1.78-1.26,1.85-.06,.04-.13,.16-.17,.25-.18,.44-1.21,1.92-1.34,1.92-.08,0-.14,.07-.14,.15,0,.19-1.36,2.25-1.54,2.32-.07,.03-.09,.12-.04,.21,.05,.08,.03,.15-.05,.15s-.36,.38-.63,.83-.55,.83-.62,.83-.13,.07-.13,.16c0,.2-1.02,1.74-1.2,1.81-.07,.03-.13,.11-.13,.19,0,.18-1.37,2.24-1.54,2.31-.07,.03-.09,.12-.04,.21s.03,.15-.05,.15-.36,.38-.63,.83c-.27,.46-.55,.83-.62,.83s-.13,.07-.13,.16c0,.2-1.02,1.74-1.2,1.81-.07,.03-.13,.11-.13,.19,0,.18-1.37,2.24-1.54,2.31-.07,.03-.09,.12-.04,.21s.03,.15-.05,.15-.36,.38-.63,.83c-.27,.46-.55,.83-.62,.83s-.13,.07-.13,.15c0,.24-1.2,2.02-1.36,2.02-.08,0-.14,.07-.14,.16,0,.15-.94,1.65-1.16,1.84-.05,.05-.18,.23-.29,.42-.89,1.46-1.48,2.36-1.65,2.54-.11,.12-.38,.51-.58,.88s-.43,.66-.51,.66-.14,.07-.14,.16c0,.15-.95,1.65-1.16,1.84-.05,.05-.18,.23-.29,.42-.89,1.46-1.48,2.36-1.66,2.54-.11,.12-.37,.51-.58,.88s-.43,.66-.51,.66-.14,.07-.14,.16c0,.15-.95,1.65-1.16,1.84-.05,.05-.18,.23-.29,.42-.11,.18-.5,.8-.86,1.36l-.66,1.03,.94,.74c.52,.4,1.27,.95,1.68,1.22l.73,.48,.27-.41c.15-.23,.57-.79,.94-1.25,.37-.46,1.04-1.36,1.49-2,.45-.64,.93-1.29,1.08-1.44,.14-.15,.56-.69,.92-1.21,.36-.51,.72-.93,.79-.93s.13-.09,.13-.21c0-.12,.24-.47,.52-.79,.29-.32,.71-.87,.94-1.21,.23-.34,.48-.62,.56-.62s.14-.1,.14-.21,.17-.4,.38-.62c.21-.23,.75-.94,1.2-1.58s.92-1.23,1.04-1.3c.12-.07,.22-.24,.22-.36s.06-.25,.14-.28c.08-.03,.43-.47,.78-.97s.76-1.04,.9-1.19c.14-.15,.56-.69,.92-1.21s.72-.93,.79-.93,.13-.1,.13-.21,.17-.4,.38-.62c.21-.23,.75-.94,1.2-1.58,.45-.64,.92-1.23,1.04-1.3,.12-.07,.22-.24,.22-.38s.06-.24,.12-.24c.07,0,.5-.53,.95-1.17,.45-.64,.89-1.17,.96-1.17s.13-.11,.13-.25,.06-.25,.13-.25,.46-.49,.86-1.08c.4-.6,.8-1.08,.87-1.08s.14-.08,.14-.19,.23-.46,.51-.79c1.05-1.26,1.16-1.39,1.16-1.5,0-.06,.18-.31,.41-.55,.22-.24,.36-.48,.31-.54-.06-.06-.03-.1,.07-.1s.53-.53,.97-1.17c.44-.64,.87-1.17,.94-1.17s.14-.11,.14-.25,.06-.25,.13-.25,.46-.49,.86-1.08c.4-.6,.8-1.08,.87-1.08s.14-.08,.14-.19,.23-.46,.51-.79c1.04-1.24,1.16-1.39,1.16-1.48,0-.05,.28-.43,.62-.85,2.25-2.74,2.27-2.81,1.26-3.54-1.95-1.4-3.08-2.16-3.22-2.16-.08,0-.15-.06-.15-.14C90.71,.88,89.43,0,89.24,0c-.06,0-.29,.25-.5,.54"></path><path class="cls-2" d="M106.8,15.14c-.1,.16-3.49,2.78-4.69,3.62-.41,.28-1.08,.8-1.5,1.15-.42,.35-1.19,.94-1.71,1.3-.52,.36-.97,.72-1,.8-.03,.08-.16,.15-.29,.15s-.24,.06-.24,.14-.62,.57-1.38,1.11c-.76,.53-1.45,1.05-1.54,1.16-.09,.1-.73,.6-1.42,1.1-.69,.5-1.4,1.04-1.58,1.2-.18,.16-.97,.77-1.75,1.34-.78,.58-2.09,1.57-2.92,2.2-.82,.63-1.99,1.52-2.58,1.96s-1.32,.99-1.6,1.21c-.28,.22-1.03,.78-1.67,1.24-.63,.46-1.32,.98-1.52,1.15-.2,.17-.92,.71-1.58,1.19-.67,.48-1.29,.96-1.38,1.06-.09,.11-.8,.66-1.58,1.24-.78,.57-2.02,1.51-2.77,2.08-3.24,2.48-4.66,3.57-5.3,4.03-1.87,1.35-2.19,2.45-1.03,3.51,.1,.09,.4,.48,.66,.88,.49,.71,.67,.84,.85,.55,.05-.09,.94-.72,1.97-1.41,1.03-.69,2.21-1.49,2.62-1.77,.41-.29,1.12-.76,1.57-1.05,.96-.62,2.08-1.38,3.76-2.53,.67-.46,1.67-1.12,2.24-1.48,.56-.36,1.06-.7,1.11-.76,.05-.06,.53-.4,1.08-.76,.55-.36,1.07-.72,1.17-.8,.09-.08,1.07-.74,2.17-1.47,2.62-1.74,6.67-4.46,9.15-6.14,1.09-.74,2.04-1.34,2.11-1.34s.15-.06,.18-.13c.03-.07,.51-.43,1.06-.79,.55-.36,1.08-.72,1.17-.8,.09-.08,.59-.42,1.1-.75,.52-.34,1.48-.99,2.15-1.44,1.9-1.31,2.86-1.95,3.99-2.67,.57-.37,1.13-.74,1.23-.83,.1-.09,.64-.47,1.19-.83,.55-.37,1.04-.71,1.08-.75,.05-.05,.48-.34,.96-.64,1-.63,1.03-.75,.46-1.53-.23-.31-.46-.7-.52-.86-.06-.16-.15-.29-.22-.29s-.37-.39-.67-.88c-.3-.48-.74-1.08-.98-1.33s-.38-.46-.32-.46-.1-.22-.34-.5c-.44-.5-.77-.62-.94-.35"></path><path class="cls-2" d="M.09,69.45c.08,5.77,.13,6.62,.44,7.96,.19,.82,.38,1.73,.42,2,.04,.27,.19,.87,.35,1.33,.15,.46,.3,.98,.33,1.17,.05,.31,.87,2.68,1.21,3.51,.29,.7,.9,2.02,1.15,2.5,.67,1.3,1.46,2.71,1.74,3.11,.17,.24,.31,.52,.31,.61s.06,.19,.14,.22c.12,.05,.59,.7,1.27,1.79,.09,.14,.25,.34,.34,.43,.1,.09,.47,.54,.83,1,3.26,4.16,8.32,8.21,13.25,10.6,2.42,1.17,2.7,1.3,3.21,1.43,.65,.16-1.51,.34-4.55,.38-1.05,.01-3,.14-4.33,.27-1.33,.14-3.13,.32-4,.4-4.2,.39-5.84,1.2-4,2,.84,.36,1.52,.48,5.42,.92,6.94,.79,32.45,1.26,42.25,.77,12.7-.63,17.67-1.27,17.67-2.26,0-.22-.07-.45-.16-.5-.44-.27-2.9-.79-4.4-.92-.93-.08-2.77-.27-4.1-.4-1.33-.14-3.06-.25-3.85-.25-3.26,0-5.6-.21-4.98-.43,2.06-.71,7.21-3.43,7.91-4.17,.09-.1,.61-.47,1.15-.83,1.1-.74,1.4-.99,4.13-3.52,1.07-.99,1.95-1.88,1.96-1.97,0-.1,.28-.42,.61-.73,.33-.31,.89-.99,1.24-1.52,.36-.53,.77-1.08,.91-1.22,.14-.14,.26-.34,.26-.43s.07-.18,.15-.18,.26-.25,.41-.55c.14-.3,.41-.72,.6-.94,.19-.22,.3-.45,.26-.52-.04-.07-.01-.16,.07-.19,.15-.06,2.28-4.02,2.21-4.1-.02-.03,.1-.36,.28-.75,.4-.88,.75-1.87,1.38-3.87,.2-.64,.38-1.32,.41-1.5,.02-.18,.19-1.01,.38-1.83,.52-2.29,.71-4.7,.82-10.21l.1-5.04h-9.01l-.08,5.21c-.04,2.86-.17,5.73-.27,6.38-.31,1.9-.86,4.28-1.2,5.15-.17,.45-.31,.9-.31,1.01s-.16,.52-.35,.93c-.19,.4-.37,.81-.38,.91-.02,.1-.17,.44-.35,.76-.17,.32-.5,.96-.73,1.42-.23,.46-.57,1.06-.76,1.33-.19,.27-.35,.54-.35,.6s-.13,.28-.3,.5c-.16,.22-.6,.83-.97,1.36-.37,.53-.75,.96-.84,.96s-.12,.07-.07,.15c.05,.08-.09,.3-.32,.48s-.42,.37-.42,.43c0,.21-2.91,3-3.98,3.82-1.7,1.31-1.95,1.48-2.89,2.06-1.01,.62-4.53,2.39-4.75,2.39-.08,0-.46,.15-.84,.33-.38,.18-.8,.33-.93,.33s-.5,.11-.83,.25c-4.05,1.69-14.21,1.72-19.45,.05-2.38-.76-5.56-2.17-7.08-3.14-.27-.18-.71-.44-.97-.58-3.99-2.25-8.9-7.99-11.14-13-.85-1.89-.96-2.19-1.36-3.5-1.2-3.97-1.24-4.32-1.38-11.36l-.1-5.21H0l.09,6.46"></path><path id="path0" class="cls-1" d="M64.32,45.17c-.24,.19-.64,.7-.89,1.12-.25,.43-.49,.82-.54,.86-.37,.34-2.01,3.85-2.01,4.3,0,.16-.09,.39-.2,.5s-.14,.2-.06,.2,.04,.11-.07,.25c-.11,.14-.16,.25-.11,.25s.03,.18-.05,.39c-.08,.21-.19,.68-.25,1.04-.43,2.74-.43,2.67-.68,8.65-.05,1.19-.2,2.69-.34,3.33-.13,.64-.28,1.39-.33,1.67-.08,.48-.27,.99-.59,1.62-.08,.16-.15,.37-.15,.47s-.22,.51-.5,.9c-2.2,3.2-5.86-.3-9.93-9.5-.45-1.01-.97-2.1-1.16-2.42-.2-.32-.49-.88-.66-1.25-.17-.37-.35-.71-.41-.75-.06-.05-.28-.38-.49-.75-1.3-2.21-3.44-4.44-4.94-5.15-2.14-1.02-3.42-.61-5.24,1.67-.42,.53-1.6,3.63-1.53,4.02,0,.02-.06,.28-.15,.58-.14,.48-.39,2.29-.57,4.13-.03,.32-.1,1.59-.16,2.83-.06,1.24-.15,3.15-.2,4.25-.1,2.23-.47,4.55-.9,5.66-.09,.23-.12,.42-.08,.42s-.14,.44-.41,.98c-2.01,3.99-5.32,1.88-9.11-5.81-.43-.87-.83-1.77-.89-2-.17-.62-.95-.95-1.5-.64-.67,.38-.65,1.11,.09,2.62,.71,1.45,2.85,5.28,3.17,5.68,.12,.15,.64,.8,1.16,1.47,2.43,3.09,5.1,3.89,6.95,2.09,.7-.68,1.62-1.95,1.62-2.24,0-.1,.11-.37,.25-.62,.2-.36,.51-1.29,.86-2.61,.12-.44,.58-3.09,.66-3.75,.05-.41,.16-1.35,.24-2.08,.09-.73,.16-2.34,.16-3.58,0-14.6,5.47-15.1,11.76-1.09,4.24,9.43,8.88,13.29,12.15,10.11,.54-.53,1.74-2.37,1.62-2.49-.02-.02,.06-.25,.19-.5,.26-.5,.94-3,1.04-3.79,.28-2.33,.41-3.77,.49-5.42,.2-4.48,.28-5.33,.64-6.75,.4-1.61,.63-2.34,.78-2.48,.09-.09,.17-.28,.17-.43,0-.27,1.25-2.81,1.51-3.08,.09-.09,.15-.28,.15-.43s.26-.58,.58-.95c1.02-1.19,.05-2.48-1.14-1.53"></path></g></g></svg> 