<svg xmlns="http://www.w3.org/2000/svg" width="201" height="18" viewBox="0 0 201 18" fill="#111111"><path d="M70.0652 0.760561V17.374H64.9115C64.0874 17.384 63.2784 17.1528 62.5839 16.709C61.8867 16.2592 61.3297 15.6227 60.9763 14.872L56.5823 5.84452H55.5499V17.369H51.0977V0.760561H56.2598C57.0838 0.750636 57.8928 0.98178 58.5873 1.42556C59.2835 1.87349 59.8408 2.50684 60.1966 3.25433L64.6139 12.2818H65.6463V0.760561H70.0652Z"></path><path d="M92.3706 0.760254V17.5898H81.2534C78.7242 17.5898 76.7397 16.9215 75.2999 15.5849C73.8602 14.2482 73.1398 12.2532 73.1387 9.59982V0.760254H77.6524V9.59483C77.6524 10.9248 77.9805 11.8852 78.6366 12.476C79.2927 13.0667 80.165 13.3632 81.2534 13.3654H87.8552V0.760254H92.3706Z"></path><path d="M114.383 0.760566V17.374H109.229C108.405 17.3843 107.595 17.1532 106.901 16.709C106.204 16.2593 105.646 15.6228 105.292 14.872L100.898 5.84452H99.8655V17.369H95.4199V0.760566H100.574C101.398 0.750545 102.207 0.981697 102.901 1.42557C103.597 1.87349 104.155 2.50684 104.511 3.25433L108.928 12.2818H109.96V0.760566H114.383Z"></path><path d="M131.482 4.9499C130.781 4.73893 130.052 4.63743 129.321 4.64898H125.816C124.438 4.64898 123.35 5.05353 122.551 5.86261C121.752 6.6717 121.352 7.73183 121.35 9.043V9.06793C121.383 10.3979 121.79 11.4664 122.574 12.2733C123.358 13.0801 124.438 13.4841 125.816 13.4852H129.321C130.069 13.502 130.815 13.3965 131.53 13.1727C132.134 12.967 132.69 12.64 133.163 12.2117L135.708 15.4786C134.931 16.2026 134.005 16.7474 132.995 17.0746C131.805 17.4401 130.565 17.6141 129.321 17.59H125.816C123.974 17.59 122.381 17.2381 121.038 16.5343C119.735 15.8697 118.663 14.8265 117.964 13.5418C117.259 12.2539 116.907 10.7615 116.908 9.06461V9.03967C116.908 7.34391 117.26 5.85541 117.964 4.57417C118.666 3.29835 119.735 2.26279 121.033 1.6016C122.376 0.898912 123.969 0.547014 125.811 0.545906H129.316C130.547 0.523595 131.774 0.691835 132.953 1.04466C133.979 1.36783 134.919 1.91787 135.703 2.65397L133.169 5.92413C132.684 5.48148 132.108 5.14913 131.482 4.9499Z"></path><path d="M152.37 0.760254H156.859V17.3737H152.37V11.1077H142.406V17.3737H137.893V0.760254H142.406V7.00298H152.37V0.760254Z"></path><path d="M179.164 0.760254V17.5898H168.046C165.517 17.5898 163.533 16.9215 162.093 15.5849C160.653 14.2482 159.933 12.2532 159.932 9.59982V0.760254H164.445V9.59483C164.445 10.9248 164.773 11.8852 165.43 12.476C166.086 13.0667 166.958 13.3632 168.046 13.3654H174.65V0.760254H179.164Z"></path><path d="M186.727 17.374H182.213V0.76056H186.727V6.6658L200.501 0.544434V5.36571L195.051 7.81459L200.597 17.369H195.628L191.024 9.62008L186.727 11.5636V17.374Z"></path><path d="M34.3397 0.770508L24.4494 10.6608C24.1607 10.9505 23.6491 10.7373 23.6514 10.3283V5.77633H17.6465C17.3923 5.77633 17.18 5.56335 17.181 5.30916V0.770508H11.432L0.5625 11.6749L6.27987 17.3956L16.0887 7.5868C16.3776 7.29989 16.8859 7.51212 16.885 7.9193V12.5461H22.9731C23.2276 12.5461 23.4403 12.7588 23.4403 13.0132V17.3873H29.1893L40.0671 6.48622L34.3397 0.770508Z"></path></svg>
