<svg viewBox="0 0 166.184 35.012" height="35.012" width="166.184" xmlns="http://www.w3.org/2000/svg">
  <g transform="translate(-100 -58)" data-name="Group 4848" id="Group_4848">
    <g transform="translate(100 58)" data-name="Billfodl black logo" id="Billfodl_black_logo">
      <g transform="translate(0 3.093)" data-name="Group 3" id="Group_3">
        <g transform="translate(0 0)" data-name="Group 2" id="Group_2">
          <g transform="translate(0)" data-name="Group 1" id="Group_1">
            <path fill="#141414" transform="translate(-1.41 39.414)" d="M1.41-8.079H18.444c8.652,0,12.2-2.779,12.2-9.1A7.5,7.5,0,0,0,24.721-24.8c3.363-1.348,4.394-3.183,4.394-6.95,0-4.885-3.54-7.665-10.984-7.665H1.41v5.783h2.6v19.723H1.41ZM13.289-33.5h2.826c1.7,0,2.956,1.211,2.956,3.273,0,2.152-.671,3.45-3.047,3.45H13.289Zm0,19.59v-7.8h3.453c2.466,0,3.764,1.658,3.764,3.944a3.644,3.644,0,0,1-3.63,3.854Zm0,0" data-name="Path 1" id="Path_1"></path>
          </g>
        </g>
      </g>
      <g transform="translate(31.695 0.894)" data-name="Group 6" id="Group_6">
        <g transform="translate(0 0)" data-name="Group 5" id="Group_5">
          <g transform="translate(0)" data-name="Group 4" id="Group_4">
            <path fill="#141414" transform="translate(-1.41 42.18)" d="M2.665-37.605a4.828,4.828,0,0,0,4.842,4.528c3.183,0,4.932-2.062,4.932-4.528A4.822,4.822,0,0,0,7.506-42.18,4.706,4.706,0,0,0,2.665-37.605Zm11.3,28.959v-5.873H11.811V-31.062H1.41v5.829H3.292v10.714H1.41v5.873Zm0,0" data-name="Path 2" id="Path_2"></path>
          </g>
        </g>
      </g>
      <g transform="translate(47.385 0.804)" data-name="Group 9" id="Group_9">
        <g transform="translate(0 0)" data-name="Group 8" id="Group_8">
          <g transform="translate(0)" data-name="Group 7" id="Group_7">
            <path fill="#141414" transform="translate(-1.41 42.293)" d="M14.5-8.669v-5.873H11.854V-42.293H1.454v5.786H3.339v21.966H1.41v5.873Zm0,0" data-name="Path 3" id="Path_3"></path>
          </g>
        </g>
      </g>
      <g transform="translate(63.165 0.804)" data-name="Group 12" id="Group_12">
        <g transform="translate(0 0)" data-name="Group 11" id="Group_11">
          <g transform="translate(0)" data-name="Group 10" id="Group_10">
            <path fill="#141414" transform="translate(-1.41 42.293)" d="M14.5-8.669v-5.873H11.854V-42.293H1.454v5.786H3.339v21.966H1.41v5.873Zm0,0" data-name="Path 4" id="Path_4"></path>
          </g>
        </g>
      </g>
      <g transform="translate(78.945)" data-name="Group 15" id="Group_15">
        <g transform="translate(0 0)" data-name="Group 14" id="Group_14">
          <g transform="translate(0)" data-name="Group 13" id="Group_13">
            <path fill="#141414" transform="translate(-1.41 43.305)" d="M18.714-42.187a19.271,19.271,0,0,0-6.59-1.118c-8.068,0-8.876,5.646-8.876,8.2v3.811H1.41v5.829H3.249v10.714h-1.8v5.873h13.36v-5.873H12.124V-25.463h4.081v-5.829H12.124V-35.1c0-1.612.447-2.376,1.435-2.376a5.787,5.787,0,0,1,2.466.45Zm0,0" data-name="Path 5" id="Path_5"></path>
          </g>
        </g>
      </g>
      <g transform="translate(96.518 11.475)" data-name="Group 18" id="Group_18">
        <g transform="translate(0)" data-name="Group 17" id="Group_17">
          <g transform="translate(0)" data-name="Group 16" id="Group_16">
            <path fill="#141414" transform="translate(-0.62 28.871)" d="M13.127-5.334c6.814,0,12.329-4.261,12.239-11.7-.134-7.488-5.379-11.745-12.463-11.835C6.717-28.871.664-24.7.621-17.216.531-9.281,6.717-5.334,13.127-5.334Zm0-5.739c-1.882,0-3.317-2.422-3.317-6.1,0-3.273,1.345-5.873,3.093-5.873,2.109.043,3.273,2.643,3.273,6.006S15.055-11.073,13.127-11.073Zm0,0" data-name="Path 6" id="Path_6"></path>
          </g>
        </g>
      </g>
      <g transform="translate(123.101 0.804)" data-name="Group 21" id="Group_21">
        <g transform="translate(0 0)" data-name="Group 20" id="Group_20">
          <g data-name="Group 19" id="Group_19">
            <path fill="#141414" transform="translate(-0.562 42.293)" d="M16.612-36.464v6.633a9.346,9.346,0,0,0-5.649-1.7c-5.512,0-10.4,4.438-10.4,11.432,0,6.23,4.081,11.835,10.4,11.835a8.469,8.469,0,0,0,5.649-2.062l.764,1.658H27.867V-14.5H25.714V-42.293H14.55v5.829ZM10.2-20.1c0-3.407,1.3-5.6,3.183-5.6,1.7,0,3.227,2.329,3.227,5.379.18,3.54-1.435,5.739-3.183,5.739C11.457-14.585,10.2-17.411,10.2-20.1Zm0,0" data-name="Path 7" id="Path_7"></path>
          </g>
        </g>
      </g>
      <g transform="translate(153.093 0.804)" data-name="Group 24" id="Group_24">
        <g transform="translate(0 0)" data-name="Group 23" id="Group_23">
          <g transform="translate(0)" data-name="Group 22" id="Group_22">
            <path fill="#141414" transform="translate(-1.41 42.293)" d="M14.5-8.669v-5.873H11.854V-42.293H1.454v5.786H3.339v21.966H1.41v5.873Zm0,0" data-name="Path 8" id="Path_8"></path>
          </g>
        </g>
      </g>
    </g>
  </g>
</svg>
