<svg xmlns="http://www.w3.org/2000/svg" width="220px" height="23px" viewBox="0 0 440.05 45.2">
                <title>seedhammer-logo</title>
                <path class="a" d="M70.6,45.2a20.28,20.28,0,0,1-6.6-1,16.33,16.33,0,0,1-5.2-2.9,13.05,13.05,0,0,1-3.4-4.4,1.53,1.53,0,0,1,0-1.6,2.15,2.15,0,0,1,1.4-1,2,2,0,0,1,1.5.2,2.16,2.16,0,0,1,1.1,1.2,10.92,10.92,0,0,0,2.4,2.9,11.47,11.47,0,0,0,3.8,2,15.28,15.28,0,0,0,4.9.7,12.07,12.07,0,0,0,5.2-1,8.39,8.39,0,0,0,3.6-2.8A7.27,7.27,0,0,0,80.6,33a7.58,7.58,0,0,0-2.5-5.8c-1.7-1.6-4.3-2.7-7.8-3.1a18.28,18.28,0,0,1-10.1-4,10.4,10.4,0,0,1-3.7-7.9,9.83,9.83,0,0,1,1.8-5.9,10.8,10.8,0,0,1,5-3.8,18.12,18.12,0,0,1,7.2-1.4,13.83,13.83,0,0,1,5.5,1,13.91,13.91,0,0,1,4.3,2.5,14.29,14.29,0,0,1,3,3.5,1.2,1.2,0,0,1,.6,1.4,1.89,1.89,0,0,1-1,1.3,2.29,2.29,0,0,1-3-1,15,15,0,0,0-2.1-2.4,7.53,7.53,0,0,0-3-1.8,13.33,13.33,0,0,0-4.3-.7,11.4,11.4,0,0,0-7,1.9,6.06,6.06,0,0,0-2.7,5.4,6.2,6.2,0,0,0,1,3.5,7.55,7.55,0,0,0,3.3,2.7,20.24,20.24,0,0,0,6.2,1.7c4.6.7,8,2.1,10.3,4.2a11.38,11.38,0,0,1,3.3,8.4A12.53,12.53,0,0,1,83.8,38a10.49,10.49,0,0,1-3,3.9,11.89,11.89,0,0,1-4.6,2.4A16.86,16.86,0,0,1,70.6,45.2Z" transform="translate(0 0)"></path>
                <path class="a" d="M107.2,44.9a15.71,15.71,0,0,1-7.9-2,13.62,13.62,0,0,1-5.4-5.5,16.09,16.09,0,0,1-2-8,16,16,0,0,1,1.9-8,15,15,0,0,1,5.1-5.5,15,15,0,0,1,14.8-.1,12.33,12.33,0,0,1,4.8,5.3,17.43,17.43,0,0,1,1.7,7.7,1.68,1.68,0,0,1-.6,1.4,1.74,1.74,0,0,1-1.4.5H94.7V27.2h24l-2.4,1.7a13.68,13.68,0,0,0-1.2-5.8,9.72,9.72,0,0,0-3.5-4,9.35,9.35,0,0,0-5.3-1.4,10.08,10.08,0,0,0-5.5,1.5,10.47,10.47,0,0,0-3.7,4.1,13.2,13.2,0,0,0-1.3,6,11.88,11.88,0,0,0,1.5,6,11.23,11.23,0,0,0,4,4.1,11.5,11.5,0,0,0,5.9,1.5,11.25,11.25,0,0,0,4-.7,10.67,10.67,0,0,0,3.2-1.7,2.39,2.39,0,0,1,1.4-.5,1.84,1.84,0,0,1,1.3.4,1.75,1.75,0,0,1,.7,1.4,1.61,1.61,0,0,1-.6,1.3,16.78,16.78,0,0,1-4.6,2.6A12.34,12.34,0,0,1,107.2,44.9Z" transform="translate(0 0)"></path>
                <path class="a" d="M140,44.9a15.71,15.71,0,0,1-7.9-2,13.62,13.62,0,0,1-5.4-5.5,16.09,16.09,0,0,1-2-8,16,16,0,0,1,1.9-8,14.19,14.19,0,0,1,5.1-5.5,15,15,0,0,1,14.8-.1,12.33,12.33,0,0,1,4.8,5.3,17.43,17.43,0,0,1,1.7,7.7,1.68,1.68,0,0,1-.6,1.4,1.87,1.87,0,0,1-1.4.5H127.5V27.2h24l-2.4,1.7a13.68,13.68,0,0,0-1.2-5.8,9.72,9.72,0,0,0-3.5-4,9.35,9.35,0,0,0-5.3-1.4,10.08,10.08,0,0,0-5.5,1.5,10.47,10.47,0,0,0-3.7,4.1,13.2,13.2,0,0,0-1.3,6,11.88,11.88,0,0,0,1.5,6,11.23,11.23,0,0,0,4,4.1,11.5,11.5,0,0,0,5.9,1.5,11.25,11.25,0,0,0,4-.7,10.67,10.67,0,0,0,3.2-1.7,2.39,2.39,0,0,1,1.4-.5,1.84,1.84,0,0,1,1.3.4,1.75,1.75,0,0,1,.7,1.4,1.61,1.61,0,0,1-.6,1.3,16.78,16.78,0,0,1-4.6,2.6A11.77,11.77,0,0,1,140,44.9Z" transform="translate(0 0)"></path>
                <path class="a" d="M173,44.9a16.26,16.26,0,0,1-7.9-2,14.53,14.53,0,0,1-5.5-5.5,16,16,0,0,1-2-7.9,16.26,16.26,0,0,1,2-7.9,14.35,14.35,0,0,1,12.9-7.5,13.55,13.55,0,0,1,6.7,1.6,13.06,13.06,0,0,1,4.8,4.2V3.6a2.06,2.06,0,0,1,2.2-2.2,2.45,2.45,0,0,1,1.6.6,2.11,2.11,0,0,1,.6,1.6V29.7a16.78,16.78,0,0,1-2.1,7.8,15.26,15.26,0,0,1-5.5,5.5A17.28,17.28,0,0,1,173,44.9Zm0-3.9a11,11,0,0,0,5.7-1.5,11.23,11.23,0,0,0,4-4.1,11.5,11.5,0,0,0,1.5-5.9,11.77,11.77,0,0,0-1.5-5.9,10.52,10.52,0,0,0-4-4.1,11.58,11.58,0,0,0-11.4,0,11.23,11.23,0,0,0-4,4.1,11.77,11.77,0,0,0-1.5,5.9,11.5,11.5,0,0,0,1.5,5.9,11.23,11.23,0,0,0,4,4.1A11,11,0,0,0,173,41Z" transform="translate(0 0)"></path>
                <path class="a" d="M201,44.6a2.05,2.05,0,0,1-2.1-2.1V3.6a2.45,2.45,0,0,1,.6-1.6,2,2,0,0,1,1.5-.6,2.45,2.45,0,0,1,1.6.6,2.11,2.11,0,0,1,.6,1.6V20.9h27V3.6a2.45,2.45,0,0,1,.6-1.6,2,2,0,0,1,1.5-.6,2.45,2.45,0,0,1,1.6.6,2.11,2.11,0,0,1,.6,1.6V42.5a2,2,0,0,1-.6,1.5,2.11,2.11,0,0,1-1.6.6,2.05,2.05,0,0,1-2.1-2.1V24.7h-27V42.5a2,2,0,0,1-.6,1.5A2.27,2.27,0,0,1,201,44.6Z" transform="translate(0 0)"></path>
                <path class="a" d="M258.4,44.9a14.35,14.35,0,0,1-12.9-7.5,15.71,15.71,0,0,1-2-7.9,15.71,15.71,0,0,1,2-7.9,14.53,14.53,0,0,1,5.5-5.5,16.41,16.41,0,0,1,15.7,0,15.26,15.26,0,0,1,5.5,5.5,17.19,17.19,0,0,1,2.1,7.9l-1.7,1.3a13.61,13.61,0,0,1-1.9,7.2,13.33,13.33,0,0,1-5,5A15,15,0,0,1,258.4,44.9Zm.4-3.9a11,11,0,0,0,5.7-1.5,11.23,11.23,0,0,0,4-4.1,11.77,11.77,0,0,0,1.5-5.9,11.5,11.5,0,0,0-1.5-5.9,11.23,11.23,0,0,0-4-4.1,11.58,11.58,0,0,0-11.4,0,11.23,11.23,0,0,0-4,4.1,11.5,11.5,0,0,0-1.5,5.9,11.77,11.77,0,0,0,1.5,5.9,10.52,10.52,0,0,0,4,4.1A11,11,0,0,0,258.8,41ZM272,44.6a2.05,2.05,0,0,1-2.1-2.1V33l1.1-4.4,3.3.8v13a2,2,0,0,1-.6,1.5A2.34,2.34,0,0,1,272,44.6Z" transform="translate(0 0)"></path>
                <path class="a" d="M284.6,44.6A2.11,2.11,0,0,1,283,44a2,2,0,0,1-.6-1.5v-26A2,2,0,0,1,283,15a2.11,2.11,0,0,1,1.6-.6,2.05,2.05,0,0,1,2.1,2.1v26a2,2,0,0,1-.6,1.5A1.75,1.75,0,0,1,284.6,44.6Zm19.5,0a2.45,2.45,0,0,1-1.6-.6,1.72,1.72,0,0,1-.6-1.5V26.6a9.23,9.23,0,0,0-2-6.2,6.74,6.74,0,0,0-5.3-2.3,7.31,7.31,0,0,0-5.6,2.2,7.76,7.76,0,0,0-2.2,5.8h-3a14,14,0,0,1,1.6-6.3A11.42,11.42,0,0,1,301,15.5a9.86,9.86,0,0,1,3.9,4.4,15.26,15.26,0,0,1,1.4,6.6V42.4a2,2,0,0,1-.6,1.5A2.13,2.13,0,0,1,304.1,44.6Zm19.3,0a2.05,2.05,0,0,1-2.1-2.1V26.6a9.23,9.23,0,0,0-2-6.2,6.88,6.88,0,0,0-5.3-2.3,7.38,7.38,0,0,0-5.6,2.3,7.87,7.87,0,0,0-2.1,6.1h-3.8a13.59,13.59,0,0,1,1.6-6.5,11.36,11.36,0,0,1,4.3-4.4,12.53,12.53,0,0,1,6.1-1.5,11.14,11.14,0,0,1,5.8,1.5,9.86,9.86,0,0,1,3.9,4.4,15.26,15.26,0,0,1,1.4,6.6V42.5A2,2,0,0,1,325,44,2.45,2.45,0,0,1,323.4,44.6Z" transform="translate(0 0)"></path>
                <path class="a" d="M337.1,44.6a2.11,2.11,0,0,1-1.6-.6,2,2,0,0,1-.6-1.5v-26a2,2,0,0,1,.6-1.5,2.11,2.11,0,0,1,1.6-.6,2.05,2.05,0,0,1,2.1,2.1v26a2.05,2.05,0,0,1-2.1,2.1Zm19.4,0a2.05,2.05,0,0,1-2.1-2.1V26.6a9.23,9.23,0,0,0-2-6.2,6.74,6.74,0,0,0-5.3-2.3,7.31,7.31,0,0,0-5.6,2.2,7.76,7.76,0,0,0-2.2,5.8h-3a14,14,0,0,1,1.6-6.3,11.42,11.42,0,0,1,15.6-4.3,9.86,9.86,0,0,1,3.9,4.4,15.26,15.26,0,0,1,1.4,6.6V42.4a2,2,0,0,1-.6,1.5A2.51,2.51,0,0,1,356.5,44.6Zm19.3,0a2.05,2.05,0,0,1-2.1-2.1V26.6a9.23,9.23,0,0,0-2-6.2,6.88,6.88,0,0,0-5.3-2.3,7.38,7.38,0,0,0-5.6,2.3,7.87,7.87,0,0,0-2.1,6.1h-3.8a13.59,13.59,0,0,1,1.6-6.5,11.36,11.36,0,0,1,4.3-4.4,12.53,12.53,0,0,1,6.1-1.5,11.14,11.14,0,0,1,5.8,1.5,9.86,9.86,0,0,1,3.9,4.4,15.26,15.26,0,0,1,1.4,6.6V42.5a2,2,0,0,1-.6,1.5A2.45,2.45,0,0,1,375.8,44.6Z" transform="translate(0 0)"></path>
                <path class="a" d="M401,44.9a15.71,15.71,0,0,1-7.9-2,13.62,13.62,0,0,1-5.4-5.5,16.09,16.09,0,0,1-2-8,16,16,0,0,1,1.9-8,15,15,0,0,1,5.1-5.5,15,15,0,0,1,14.8-.1,12.33,12.33,0,0,1,4.8,5.3,17.43,17.43,0,0,1,1.7,7.7,1.68,1.68,0,0,1-.6,1.4,1.74,1.74,0,0,1-1.4.5H388.5V27.2h24l-2.4,1.7a13.68,13.68,0,0,0-1.2-5.8,9.72,9.72,0,0,0-3.5-4,9.35,9.35,0,0,0-5.3-1.4,10.08,10.08,0,0,0-5.5,1.5,10.47,10.47,0,0,0-3.7,4.1,13.2,13.2,0,0,0-1.3,6,11.88,11.88,0,0,0,1.5,6,11.23,11.23,0,0,0,4,4.1,11.5,11.5,0,0,0,5.9,1.5,11.25,11.25,0,0,0,4-.7,10.67,10.67,0,0,0,3.2-1.7,2.39,2.39,0,0,1,1.4-.5,1.84,1.84,0,0,1,1.3.4,1.75,1.75,0,0,1,.7,1.4,1.61,1.61,0,0,1-.6,1.3,16.78,16.78,0,0,1-4.6,2.6A11.77,11.77,0,0,1,401,44.9Z" transform="translate(0 0)"></path>
                <path class="a" d="M423.4,44.6a2.11,2.11,0,0,1-1.6-.6,2,2,0,0,1-.6-1.5v-26a2.06,2.06,0,0,1,2.2-2.2,1.75,1.75,0,0,1,1.5.6,2.11,2.11,0,0,1,.6,1.6V42.6a1.75,1.75,0,0,1-.6,1.5A2.25,2.25,0,0,1,423.4,44.6ZM423.1,26a12.45,12.45,0,0,1,1.8-6.1,12.64,12.64,0,0,1,4.3-4.3,11.66,11.66,0,0,1,5.8-1.5,8.24,8.24,0,0,1,3.9.7,1.83,1.83,0,0,1,1.1,2.1,1.53,1.53,0,0,1-.7,1.1,1.91,1.91,0,0,1-1.3.2c-.5,0-1.1-.1-1.7-.1a12.13,12.13,0,0,0-5.5.6,7.77,7.77,0,0,0-3.8,2.8,7.53,7.53,0,0,0-1.4,4.5Z" transform="translate(0 0)"></path>
                <path class="a" d="M7.6,35.9,0,29.6l5.7-2.7,9.6,9.5V0H5.7A5.63,5.63,0,0,0,0,5.7V39.5a5.7,5.7,0,0,0,5.7,5.7H17.6L2.2,38.9Z" transform="translate(0 0)"></path>
                <path class="a" d="M45.2,29.5V5.7A5.7,5.7,0,0,0,39.5,0H29.8V36.4l9.7-9.6Z" transform="translate(0 0)"></path>
                <polygon class="a" points="15.3 36.4 10.8 38.6 17.6 45.2 22.6 45.2 15.3 36.5 15.3 36.4"></polygon>
                <polygon class="a" points="29.9 36.4 29.9 36.5 22.6 45.2 27.6 45.2 34.5 38.6 29.9 36.4"></polygon>
                <path class="a" d="M37.7,35.9l5.4,2.9L27.6,45.1H39.5a5.7,5.7,0,0,0,5.7-5.7V29.5Z" transform="translate(0 0)"></path>
              </svg>