<?xml version="1.0" encoding="UTF-8" standalone="no"?>
<!-- Created with Inkscape (http://www.inkscape.org/) -->

<svg
   width="115.29092mm"
   height="18.436195mm"
   viewBox="0 0 115.29092 18.436195"
   version="1.1"
   id="svg10313"
   inkscape:version="1.2.2 (b0a8486541, 2022-12-01)"
   sodipodi:docname="logo-line.svg"
   xmlns:inkscape="http://www.inkscape.org/namespaces/inkscape"
   xmlns:sodipodi="http://sodipodi.sourceforge.net/DTD/sodipodi-0.dtd"
   xmlns="http://www.w3.org/2000/svg"
   xmlns:svg="http://www.w3.org/2000/svg">
  <sodipodi:namedview
     id="namedview10315"
     pagecolor="#ffffff"
     bordercolor="#000000"
     borderopacity="0.25"
     inkscape:showpageshadow="2"
     inkscape:pageopacity="0.0"
     inkscape:pagecheckerboard="0"
     inkscape:deskcolor="#d1d1d1"
     inkscape:document-units="mm"
     showgrid="false"
     inkscape:zoom="2.3124972"
     inkscape:cx="288.649"
     inkscape:cy="-41.297348"
     inkscape:window-width="2560"
     inkscape:window-height="1523"
     inkscape:window-x="0"
     inkscape:window-y="0"
     inkscape:window-maximized="1"
     inkscape:current-layer="g10174" />
  <defs
     id="defs10310" />
  <g
     inkscape:label="Layer 1"
     inkscape:groupmode="layer"
     id="layer1"
     transform="translate(-92.113016,92.277423)">
    <g
       id="g10174"
       inkscape:label="twenty-two-line"
       transform="translate(7.469702,-359.32844)">
      <g
         aria-label="TwentyTw"
         transform="translate(-30.532014,-7.1511591)"
         id="text9191-1"
         style="font-weight:600;font-size:21.1667px;line-height:0.8;font-family:Gabarito;-inkscape-font-specification:'Gabarito Semi-Bold';fill:none;stroke-width:0.15;stroke-linecap:round">
        <path
           d="m 119.5145,288.6167 v -12.91169 h 2.79401 v 12.91169 z m -4.33917,-11.76869 v -2.64583 h 11.59935 v 2.64583 z"
           style="fill:#000000"
           id="path525" />
        <path
           d="m 129.12419,288.6167 -3.15384,-10.35052 h 2.7305 l 2.20134,7.89518 h -0.8255 l 2.54,-7.89518 h 2.24367 l 2.54001,7.89518 h -0.80434 l 2.20134,-7.89518 h 2.64584 l -3.17501,10.35052 h -2.45533 l -2.45534,-7.40835 h 0.762 l -2.4765,7.40835 z"
           style="fill:#000000"
           id="path527" />
        <path
           d="m 146.94657,288.82837 q -1.54517,0 -2.70934,-0.65617 -1.16417,-0.67734 -1.79917,-1.88384 -0.635,-1.2065 -0.635,-2.83634 0,-1.60866 0.635,-2.81517 0.635,-1.22767 1.79917,-1.905 1.16417,-0.6985 2.70934,-0.6985 1.56633,0 2.70934,0.6985 1.16417,0.6985 1.79917,1.92617 0.635,1.2065 0.635,2.77284 0,0.23283 -0.0212,0.46567 0,0.21166 -0.0423,0.35983 h -7.95868 v -2.07434 h 5.86317 l -0.42333,0.99484 q 0,-1.31234 -0.635,-2.13784 -0.61384,-0.8255 -1.92617,-0.8255 -1.143,0 -1.8415,0.71967 -0.69851,0.6985 -0.69851,1.88383 v 1.12184 q 0,1.24883 0.69851,1.9685 0.71966,0.6985 1.94733,0.6985 1.0795,0 1.69334,-0.4445 0.61383,-0.4445 1.05833,-1.10067 l 1.92617,1.10067 q -0.6985,1.29117 -1.905,1.98967 -1.18534,0.67734 -2.87867,0.67734 z"
           style="fill:#000000"
           id="path529" />
        <path
           d="m 160.00644,278.03335 q 1.05833,0 1.69333,0.35983 0.65617,0.35984 0.97367,0.97367 0.33867,0.61384 0.4445,1.397 0.10583,0.762 0.10583,1.58751 v 6.26534 h -2.77283 v -6.28651 q 0,-0.9525 -0.381,-1.27 -0.35984,-0.3175 -0.93134,-0.3175 -0.52917,0 -1.0795,0.21166 -0.55033,0.1905 -1.03717,0.5715 -0.46567,0.35984 -0.80433,0.82551 l -0.35984,-1.43934 h 0.6985 v 7.70468 h -2.77283 v -10.35052 h 2.07433 l 0.5715,1.98967 -0.889,-0.0423 q 0.55034,-0.635 1.24884,-1.12184 0.71967,-0.48683 1.524,-0.762 0.80433,-0.29633 1.69334,-0.29633 z"
           style="fill:#000000"
           id="path531" />
        <path
           d="m 169.78544,288.8072 q -1.58751,0 -2.51884,-0.8255 -0.91017,-0.84667 -0.91017,-2.68817 v -6.90035 l -0.0423,-0.127 0.5715,-2.43417 h 2.24367 v 9.01702 q 0,0.67733 0.3175,0.99483 0.33867,0.29634 0.84667,0.29634 0.33866,0 0.61383,-0.0423 0.27517,-0.0635 0.48684,-0.127 v 2.58234 q -0.33867,0.127 -0.71967,0.1905 -0.381,0.0635 -0.889,0.0635 z m -5.03768,-7.97985 v -2.56117 h 6.64635 v 2.56117 z"
           style="fill:#000000"
           id="path533" />
        <path
           d="m 176.74929,287.6642 -4.12751,-9.39802 h 2.83634 l 3.83117,8.74185 z m -2.37067,4.97417 6.32884,-14.37219 h 2.83634 l -6.32885,14.37219 z"
           style="fill:#000000"
           id="path535" />
        <path
           d="m 187.65014,288.6167 v -12.91169 h 2.79401 v 12.91169 z m -4.33917,-11.76869 v -2.64583 h 11.59935 v 2.64583 z"
           style="fill:#000000"
           id="path537" />
        <path
           d="m 197.25983,288.6167 -3.15384,-10.35052 h 2.73051 l 2.20133,7.89518 h -0.8255 l 2.54001,-7.89518 h 2.24367 l 2.54,7.89518 h -0.80433 l 2.20133,-7.89518 h 2.64584 l -3.175,10.35052 h -2.45534 l -2.45534,-7.40835 h 0.762 l -2.4765,7.40835 z"
           style="fill:#000000"
           id="path539" />
      </g>
      <path
         id="path1344-2-6-22-4"
         style="font-weight:500;font-size:72.8148px;font-family:Gabarito;-inkscape-font-specification:'Gabarito Medium';display:inline;fill:#000000;fill-opacity:1;stroke:#000000;stroke-width:0.0584831;stroke-linecap:round;stroke-linejoin:round;stroke-dasharray:none;stroke-opacity:1"
         d="m 184.88627,270.92557 c -0.35432,8.7e-4 -0.71249,0.0361 -1.07074,0.10852 -2.5475,0.51515 -4.37854,2.75432 -4.37854,5.35367 0,2.59936 1.83104,4.83904 4.37854,5.3542 2.54754,0.51517 5.10506,-0.83657 6.11488,-3.23184 h 9.80456 c 0.0937,0 0.17002,-0.0763 0.17002,-0.17002 v -3.90467 c 0,-0.0937 -0.0763,-0.1695 -0.17002,-0.1695 h -9.80456 c -0.86781,-2.05844 -2.87886,-3.34583 -5.04414,-3.34036 z m 0.0114,2.80551 c 1.46735,-9e-5 2.65677,1.18933 2.65668,2.65668 -8e-5,1.46724 -1.18945,2.65678 -2.65668,2.65669 -1.46712,-8e-5 -2.65661,-1.18957 -2.65669,-2.65669 -9e-5,-1.46723 1.18945,-2.6566 2.65669,-2.65668 z m 13.80794,1.93477 a 0.7219482,0.7219482 0 0 1 0.72192,0.72191 0.7219482,0.7219482 0 0 1 -0.72192,0.72244 0.7219482,0.7219482 0 0 1 -0.72192,-0.72244 0.7219482,0.7219482 0 0 1 0.72192,-0.72191 z"
         inkscape:transform-center-x="-4.8594532"
         inkscape:transform-center-y="-0.014158416" />
    </g>
  </g>
</svg>
