<svg xmlns="http://www.w3.org/2000/svg" xmlns:xlink="http://www.w3.org/1999/xlink" viewBox="0 0 29 15"><g transform="translate(0 0.5)"><path d="M 5.226 12.44 C 3.765 12.44 2.871 12.867 2.301 13.538 C 1.835 14.088 1.012 14.156 0.462 13.69 C -0.088 13.224 -0.156 12.4 0.31 11.85 C 1.504 10.442 3.222 9.829 5.226 9.829 C 6.91 9.829 8.453 10.257 9.823 11.118 C 11.242 10.277 12.737 9.829 14.294 9.829 C 15.817 9.829 17.255 10.258 18.591 11.073 C 19.784 10.27 21.216 9.901 22.811 9.901 C 24.812 9.901 26.575 10.481 28.007 11.7 C 28.556 12.168 28.622 12.992 28.154 13.541 C 27.687 14.089 26.863 14.155 26.314 13.688 C 25.418 12.924 24.28 12.512 22.811 12.512 C 21.424 12.512 20.426 12.879 19.697 13.508 C 19.127 14 18.294 14.038 17.681 13.6 L 17.658 13.584 C 16.555 12.8 15.442 12.44 14.294 12.44 C 13.126 12.44 11.94 12.814 10.717 13.642 C 10.142 14.031 9.384 14.014 8.828 13.599 L 8.787 13.569 C 7.763 12.819 6.592 12.44 5.226 12.44 Z" fill="#5241D6"></path><path d="M 21.533 5.044 C 19.63 3.393 17.176 2.554 14.058 2.614 C 10.926 2.674 8.494 3.574 6.648 5.225 C 4.786 6.891 3.397 9.431 2.578 12.987 C 2.416 13.69 1.715 14.128 1.012 13.966 C 0.31 13.804 -0.128 13.104 0.034 12.401 C 0.934 8.497 2.526 5.41 4.907 3.28 C 7.303 1.136 10.375 0.073 14.008 0.003 C 17.656 -0.067 20.772 0.927 23.244 3.071 C 25.695 5.197 27.389 8.346 28.425 12.369 C 28.604 13.067 28.184 13.779 27.486 13.958 C 26.788 14.138 26.076 13.718 25.896 13.02 C 24.945 9.322 23.459 6.713 21.533 5.044 Z" fill="#5241D6"></path></g></svg>
