<svg width="219" height="42" viewBox="0 0 219 42" fill="none" xmlns="http://www.w3.org/2000/svg">
<g clip-path="url(#clip0_3424_2941)">
<path d="M56.0351 26.2796V14.327C56.0351 11.3482 55.7865 10.1256 54.5996 7.90392V7.82945H61.6094V7.90392C60.6399 9.73466 60.1739 11.3482 60.1739 14.327V26.1741C60.1739 32.0263 62.6534 33.4226 66.5 33.4226C71.3969 33.4226 73.0748 30.1583 73.0748 25.8514V14.9724C73.0748 11.7392 72.6087 10.4111 70.4896 7.89771V7.82324H77.5367V7.89771C75.4487 10.4111 74.9515 11.7392 74.9515 14.9724V25.8142C74.9515 30.9465 72.7206 35.3651 65.8538 35.3651C60.5343 35.3651 56.0413 32.7462 56.0413 26.2796H56.0351Z" fill="#141414"/>
<path d="M78.8921 34.7559C79.5757 32.708 79.7559 30.9145 79.7559 27.6129V23.2688C79.7559 20.7926 78.9667 19.4273 78.0283 18.422V18.3475L83.3105 16.374V19.961L83.4534 19.9983C85.0692 17.9876 86.8713 16.554 89.4938 16.554C92.8743 16.554 94.7449 18.6702 94.7449 21.9407V27.5757C94.7449 30.9517 94.8194 32.708 95.6086 34.7559V34.8304H90.1835V34.7559C90.8671 32.708 91.01 30.7345 91.01 27.6129V22.8406C91.01 20.7926 90.0779 19.0736 87.5922 19.0736C86.0075 19.0736 84.5347 19.7562 83.4596 21.1215V27.5819C83.4596 30.8462 83.5342 32.7142 84.2861 34.7621V34.8366H78.8921V34.7621V34.7559Z" fill="#141414"/>
<path d="M113.215 30.7035C113.215 30.7035 113.239 30.7532 113.233 30.778C112.146 33.3783 109.71 35.3642 106.025 35.3642C101.134 35.3642 97.8652 31.7772 97.8652 26.2787C97.8652 20.7803 102.395 16.5479 107.286 16.5479C109.815 16.5479 111.276 17.0629 112.146 17.4849C112.183 17.5036 112.214 17.5408 112.22 17.5842L112.742 21.767C112.742 21.798 112.724 21.8291 112.693 21.8415L112.363 21.9222C112.363 21.9222 112.307 21.9222 112.289 21.8911C111.27 20.2031 108.952 17.6587 106.708 17.6587C103.62 17.6587 101.606 20.3893 101.606 24.7645C101.606 29.5741 104.16 32.1929 108.007 32.1929C109.784 32.1929 111.562 31.7027 112.817 30.4056C112.842 30.3808 112.879 30.3808 112.91 30.4056L113.227 30.6911L113.215 30.7035Z" fill="#141414"/>
<path d="M115.145 34.7567C115.829 32.7088 115.972 30.9153 115.972 27.6137V13.4394C115.972 11.0005 115.182 9.59798 114.281 8.62985V8.52435L119.675 6.61914V19.9991H119.713C121.328 17.9884 123.13 16.5548 125.753 16.5548C129.133 16.5548 131.035 18.671 131.035 21.9415V27.6137C131.035 30.9525 131.11 32.7088 131.862 34.7567V34.8312H126.436V34.7567C127.12 32.7088 127.3 30.7353 127.3 27.6137V22.8414C127.3 20.7934 126.331 19.0744 123.851 19.0744C122.236 19.0744 120.794 19.7943 119.682 21.1596V27.6199C119.682 30.8532 119.824 32.715 120.583 34.7629V34.8374H115.157V34.7629L115.145 34.7567Z" fill="#141414"/>
<path d="M134.292 31.9202C134.292 27.8987 139.829 25.0813 143.893 24.3986V22.6982C143.893 20.1476 142.992 18.9622 140.407 18.9622C138.841 18.9622 136.958 19.3842 135.386 20.4765C135.361 20.4951 135.324 20.4889 135.305 20.4703L135.025 20.191C135.025 20.191 135 20.1289 135.019 20.1041C136.573 18.0438 139.251 16.5605 142.389 16.5605C146.416 16.5605 147.64 18.9684 147.64 21.7301V31.3182C147.64 32.3235 148.001 33.0062 149.076 33.0062C149.741 33.0062 150.306 32.7642 150.94 32.2181C150.965 32.1994 151.002 32.1932 151.027 32.2181L151.27 32.4353C151.27 32.4353 151.301 32.4849 151.282 32.5159C150.661 33.7323 149.443 35.2714 147.168 35.2714C145.192 35.2714 144.185 34.1605 143.968 32.7207C142.781 34.1233 140.805 35.3769 138.393 35.3769C135.982 35.3769 134.298 34.1233 134.298 31.9326L134.292 31.9202ZM140.55 33.1427C141.954 33.1427 143.247 32.5345 143.893 31.8147V25.3295C140.836 26.0121 137.784 28.3269 137.784 30.8093C137.784 32.2429 138.828 33.1427 140.55 33.1427Z" fill="#141414"/>
<path d="M153.382 34.7571C153.886 32.7091 154.246 30.8784 154.246 27.6141V23.4127C154.246 21.042 153.457 19.6084 152.519 18.6403V18.3549L157.944 16.3814V27.583C157.944 30.7791 158.018 32.7153 158.77 34.7633V34.8377H153.376V34.7633L153.382 34.7571ZM153.668 10.0638C153.668 8.77293 154.638 7.76758 155.899 7.76758C157.161 7.76758 158.161 8.77293 158.161 10.0638C158.161 11.2863 157.154 12.2917 155.899 12.2917C154.644 12.2917 153.668 11.2863 153.668 10.0638Z" fill="#141414"/>
<path d="M161.966 34.7559C162.65 32.708 162.83 30.9145 162.83 27.6129V23.2688C162.83 20.7926 162.041 19.4273 161.103 18.422V18.3475L166.385 16.374V19.961L166.528 19.9983C168.143 17.9876 169.946 16.554 172.568 16.554C175.949 16.554 177.819 18.6702 177.819 21.9407V27.5757C177.819 30.9517 177.894 32.708 178.683 34.7559V34.8304H173.258V34.7559C173.941 32.708 174.084 30.7345 174.084 27.6129V22.8406C174.084 20.7926 173.152 19.0736 170.666 19.0736C169.082 19.0736 167.609 19.7562 166.534 21.1215V27.5819C166.534 30.8462 166.608 32.7142 167.36 34.7621V34.8366H161.966V34.7621V34.7559Z" fill="#141414"/>
<path d="M196.154 30.0898L196.496 30.3442C196.496 30.3442 196.527 30.3939 196.515 30.4249C195.39 33.1307 192.954 35.3648 189.201 35.3648C184.273 35.3648 180.936 31.6661 180.936 26.3166C180.936 20.3217 185.211 16.5547 189.455 16.5547C193.7 16.5547 196.788 20.5389 196.428 24.2004H184.708V24.7403C184.708 29.6926 187.33 32.206 191.139 32.206C193.097 32.206 194.769 31.5357 196.061 30.096C196.086 30.0712 196.123 30.0649 196.148 30.0898H196.154ZM184.751 23.195L192.065 23.0274V22.6241C192.065 19.4715 191.028 18.0317 188.977 18.0317C186.628 18.0317 185.087 20.1789 184.751 23.1888V23.195Z" fill="#141414"/>
<path d="M212.603 17.2002V13.4767C212.603 11.0377 211.814 9.59798 210.913 8.66709V8.59262L216.338 6.61914V26.8938C216.338 31.9889 216.767 32.8887 218.028 33.9996V34.0741L212.746 35.2594V31.6352H212.64C211.559 33.5404 209.372 35.3711 206.24 35.3711C201.747 35.3711 199.087 31.7469 199.087 26.7573C199.087 21.3706 202.43 16.561 208.831 16.561C210.266 16.561 211.565 16.8092 212.603 17.2064V17.2002ZM208.147 32.7832C210.086 32.7832 211.596 31.8834 212.603 30.5243V21.5878C211.92 18.5717 210.049 17.6719 208.328 17.6719C205.127 17.6719 203.077 20.9362 203.077 25.4975C203.077 30.0589 204.767 32.7832 208.147 32.7832Z" fill="#141414"/>
<g clip-path="url(#clip1_3424_2941)">
<path d="M41.6787 19.8701C41.6972 20.248 41.71 20.6261 41.71 21.0039C41.71 32.5199 32.4193 41.8555 20.959 41.8555C17.0506 41.8554 13.3889 40.7712 10.2695 38.8818C11.5086 36.0881 13.1363 32.9724 15.2568 29.7451V29.7383C21.4523 20.3072 30.4765 19.8859 37.8789 19.8701H41.6787ZM20.96 0.15918C31.3907 0.15932 40.0272 7.89685 41.4883 17.9756H29.6895C15.4305 17.9756 7.28024 24.3185 2.66895 30.8662C1.09697 27.93 0.209 24.5726 0.208984 21.0107C0.208984 9.49473 9.49961 0.15918 20.96 0.15918ZM21.1182 5.49219C21.081 5.36877 20.9095 5.36879 20.8662 5.49219L20.4961 6.63867C20.0892 7.88374 19.115 8.86263 17.876 9.27148L16.7354 9.64258C16.6121 9.67973 16.6122 9.85304 16.7354 9.89648L17.876 10.2686C19.115 10.6774 20.0892 11.6563 20.4961 12.9014L20.8662 14.0479C20.9035 14.171 21.0748 14.171 21.1182 14.0479L21.4883 12.9014C21.8952 11.6562 22.8693 10.6774 24.1084 10.2686L25.249 9.89648C25.3721 9.85918 25.3722 9.68592 25.249 9.64258L24.1084 9.27148C22.8693 8.86265 21.8952 7.88375 21.4883 6.63867L21.1182 5.49219Z" fill="#141414"/>
</g>
</g>
<defs>
<clipPath id="clip0_3424_2941">
<rect width="218.03" height="41.8764" fill="#141414"/>
</clipPath>
<clipPath id="clip1_3424_2941">
<rect width="41.9206" height="41.8764" fill="#141414" transform="translate(0 -0.0253906)"/>
</clipPath>
</defs>
</svg>
